<svg width="520" height="102" viewBox="0 0 520 102" fill="none" xmlns="http://www.w3.org/2000/svg">
<g clip-path="url(#clip0_56_824)">
<g clip-path="url(#clip1_56_824)">
<path d="M59.5506 88.8433H48.5772V86.1847H51.2291V85.5429V83.0675H50.8633H48.2114V85.818H46.0167V83.0675H45.6509H43.4562V82.7008V80.1337H41.1701V79.767V77.6583H44.0049V80.1337H45.6509V81.7839H47.2055V80.1337H48.5772V79.9503V77.2H51.2291V74.5411H48.2114V77.2H44.0049V74.5411H46.8397V71.2407H44.0049V74.1744H41.1701V71.2407H38.1524V74.5411H40.8043L40.8958 77.2H38.1524V77.3832V78.1168V79.767H36.1406L36.2321 75.1829V64.2731V59.0472L36.5064 58.3138L36.9636 57.4886L37.3294 56.8468L37.6037 56.2051L38.3353 55.4717L38.884 54.8299L39.4327 54.2798L40.1642 53.8215L40.9872 53.4548L42.176 53.1797L52.7837 53.2713H70.2497V54.0965L70.3411 58.3138V66.0149L70.1582 70.2322V74.2662V76.8333L70.2497 79.767L70.1582 83.7092L69.9754 84.7177L69.4267 85.5429L68.5122 86.643L67.9636 87.1931L67.4149 87.6514L66.7748 88.0181L66.3175 88.2932L65.586 88.6599L64.763 88.8433H63.2084H62.0196H59.5506Z" fill="#39A62F"/>
<path d="M40.8945 80.1328H38.334V82.8831H40.8945V80.1328Z" fill="#39A62F"/>
<path d="M43.2721 83.25H40.8945V86.0003H43.2721V83.25Z" fill="#39A62F"/>
<path d="M43.2734 88.8423V86.1836H45.9253L46.0168 88.8423H43.2734Z" fill="#39A62F"/>
<path d="M33.9453 30.6832L35.4084 32.5121L51.6857 48.7893H70.249V28.6714L54.2461 12.7599L53.9718 12.4856L53.4231 12.2112L52.8744 11.8455L52.3258 11.3882L51.96 11.0225L51.6857 10.7481L51.0455 10.2909L50.2225 9.74222L50.0396 9.92511V10.2909L49.9482 10.7481L49.491 10.6567L48.9423 10.3823L48.4851 10.0166L47.9364 9.46789L47.2048 9.01066L46.3818 8.55343L45.8332 8.09621L45.2845 7.63898L44.5529 7.18176L43.9128 6.81597L43.2727 6.45019L42.3582 5.99297L41.3523 5.35285L40.4379 4.71273L39.7978 4.34695L38.7919 4.16406L38.1518 4.52984C38.0908 4.74322 37.9689 5.20654 37.9689 5.35285C37.9689 5.53574 38.4261 5.90152 38.5175 5.99297L38.9748 6.45019L39.7063 6.90742L40.5293 7.82187L41.3523 8.73632C41.6572 9.04115 42.3217 9.68736 42.5411 9.83367C42.7606 9.97998 42.8155 10.2604 42.8155 10.3823H42.1753H41.901C41.7486 10.3214 41.4255 10.1812 41.3523 10.108C41.2792 10.0348 40.9561 9.77271 40.8037 9.65078C40.5598 9.52884 40.0538 9.26671 39.9807 9.19355C39.8892 9.10211 39.3405 9.01066 39.2491 8.91922C39.1577 8.82777 38.7919 8.73632 38.7004 8.64488C38.609 8.55343 38.0603 8.2791 37.9689 8.18765C37.8957 8.1145 37.6945 8.03525 37.6031 8.00476L36.8715 8.09621L36.7801 8.2791C36.841 8.46199 36.9813 8.86435 37.0544 9.01066C37.1459 9.19355 37.5116 9.37644 37.6031 9.46789C37.6945 9.55933 37.9689 9.92511 38.1518 10.108C38.3346 10.2909 38.3346 10.6567 38.3346 10.7481C38.3346 10.8213 38.2127 10.9615 38.1518 11.0225L37.6031 10.931L37.0544 10.6567L36.5057 10.2909L36.0485 10.0166L35.4084 9.55933L35.1341 9.10211L34.4939 8.55343L34.1282 8.09621L33.5795 8.00476L33.3052 7.91332C33.3356 8.15717 33.3966 8.66317 33.3966 8.73632C33.3966 8.80948 33.5795 9.07162 33.6709 9.19355C33.8233 9.34595 34.1282 9.66907 34.1282 9.74222C34.1282 9.83367 34.5854 10.1994 34.6768 10.2909C34.7683 10.3823 35.2255 10.8396 35.317 11.0225C35.3901 11.1688 35.6522 11.4492 35.7742 11.5711V12.2112L35.9571 12.3941L36.3228 13.2171C36.4753 13.2781 36.8167 13.4183 36.963 13.4915C37.1459 13.5829 37.1459 13.6744 37.2373 13.7658C37.3287 13.8573 37.1459 14.223 37.1459 14.3145C37.1459 14.3876 36.902 14.4059 36.7801 14.4059L36.3228 14.1316C36.2009 14.0097 35.9388 13.7658 35.8656 13.7658C35.7925 13.7658 35.6522 13.5829 35.5913 13.4915L34.9924 13.0343C34.8262 12.9123 34.4757 12.6319 34.4025 12.4856C34.3293 12.3393 34.0672 12.1808 33.9453 12.1198L33.2137 11.8455L33.0308 12.1198L33.1223 12.4856L33.488 13.0343L33.9453 13.4L34.0367 13.8573L34.2196 14.3145L34.3111 14.8632C34.4025 14.9546 34.5854 15.1558 34.5854 15.2289C34.5854 15.3204 35.0426 15.7776 35.2255 15.8691C35.3718 15.9422 35.2865 16.1434 35.2255 16.2348L34.7683 16.4177L34.4025 16.2348L33.9453 15.8691L33.488 15.5033L33.0308 15.4118L32.8479 15.6862V16.3263L33.3052 17.3322L33.9453 18.2466L33.3052 19.1611L32.8479 18.2466H32.0249L31.019 17.8808H30.3789L31.019 19.1611L31.7506 20.7157L32.8479 21.9044L33.3052 23.1847L34.4025 24.6478L35.4084 25.928L36.2314 26.9339L37.2373 27.9398V28.6714H36.7801L35.4084 27.9398L34.4025 27.4826H33.9453H32.8479L33.3052 28.6714V29.6773L33.9453 30.6832Z" fill="#FF6707"/>
<path d="M74.5469 63.9695V52.9961H89.9097V54.002L89.8182 55.0079V56.6539V58.7571L89.9097 59.8545L90.0011 60.4946C90.0317 60.647 90.1109 61.0067 90.184 61.2262C90.2755 61.5005 90.4584 61.5005 90.7327 61.8663C91.007 62.2321 91.0985 62.3235 91.1899 62.415C91.2814 62.5064 91.5557 62.9636 91.6471 63.1465C91.7203 63.2928 91.9824 63.4514 92.1044 63.5123L92.4701 63.8781C92.6225 64.0001 92.9457 64.2439 93.0188 64.2439C93.092 64.2439 93.4151 64.4877 93.5675 64.6096L94.0247 64.884L94.6648 65.1583L95.1221 65.2498L95.7622 65.3412L97.5911 65.5241V56.471L116.795 75.6745L97.6825 94.7866L97.3167 85.5506H92.7445C92.3787 85.5201 91.6288 85.4592 91.5557 85.4592C91.4825 85.4592 90.7327 85.3982 90.3669 85.3677C90.0011 85.3068 89.233 85.1665 89.0867 85.0934C88.9038 85.0019 88.2637 84.9105 88.1722 84.9105C88.0808 84.9105 87.5321 84.6361 87.3492 84.6361C87.1663 84.6361 86.6176 84.3618 86.5262 84.3618C86.453 84.3618 86.0081 84.1789 85.7946 84.0875C85.5812 84.0266 85.1179 83.8863 84.9716 83.8131C84.7887 83.7217 84.6059 83.6302 84.5144 83.5388C84.423 83.4474 83.9657 83.3559 83.7828 83.3559C83.6 83.3559 83.2342 82.9901 83.0513 82.8987C82.8684 82.8072 82.5026 82.5329 82.3197 82.4415C82.1734 82.3683 81.7101 81.9233 81.4967 81.7099C81.2833 81.6185 80.8383 81.4173 80.7652 81.3441C80.6737 81.2527 80.125 80.704 79.9421 80.6126C79.7593 80.5211 79.5764 80.1553 79.3935 79.9724C79.2106 79.7895 78.9362 79.4238 78.8448 79.4238C78.7716 79.4238 78.2656 78.7531 78.0218 78.4179C77.9913 78.3264 77.9121 78.1435 77.8389 78.1435C77.7475 78.1435 77.656 77.7778 77.5646 77.6863C77.4731 77.5949 77.2902 77.3205 77.1988 77.2291C77.1073 77.1376 77.0159 76.7719 76.9245 76.6804C76.8513 76.6073 76.711 76.5281 76.6501 76.4975L76.2843 76.0403C76.2234 75.8574 76.1014 75.4733 76.1014 75.4002C76.1014 75.3087 75.9186 74.9429 75.8271 74.8515C75.754 74.7783 75.6137 74.3943 75.5528 74.2114L75.4613 73.7542C75.4004 73.5713 75.2784 73.1872 75.2784 73.114C75.2784 73.0409 75.1564 72.7788 75.0955 72.6568L74.8212 71.9253L74.7298 71.3766L74.5469 70.5536V69.9135V69.1819V63.9695Z" fill="#FDAC10"/>
<path d="M36.1406 59.398C36.1406 55.9636 38.9246 53.1797 42.3589 53.1797H70.3411V70.3714H36.1406V59.398Z" fill="#39A62F"/>
<path d="M51.6855 68.541H70.3404V82.6236C70.3404 86.0579 67.5564 88.8419 64.1221 88.8419H51.6855V68.541Z" fill="#39A62F"/>
<path d="M38.1524 69.2734H36.1406V79.5153H38.1524V69.2734Z" fill="#39A62F"/>
<path d="M74.7305 52.9961H92.288V85.5506H90.6419C81.8542 85.5506 74.7305 78.4268 74.7305 69.6391V52.9961Z" fill="#FDAC10"/>
<path d="M93.3572 64.3906C92.5179 64.1582 92.1845 63.8374 92.2046 62.4121L91.7578 62.8684L91.841 63.7979L92.998 64.735L93.3572 64.3906Z" fill="#FDAC10"/>
<path d="M74.3633 28.8541V48.6062H93.6582L108.93 33.7921L110.301 32.5119L111.033 31.1402L111.399 29.9514L111.764 28.7626L112.039 27.5738L112.405 26.2021V24.6476V23.2759V21.9957V20.8983V20.1668L112.039 18.978L111.399 17.6063L110.301 16.2346L108.564 15.5945H107.375V15.2287V14.4971L107.009 13.4912L106.278 12.1196L105.363 11.5709L104.083 10.9308L103.077 10.565L102.163 10.1992H100.608H99.2364H98.139H97.0417L95.4871 10.565L94.1155 10.9308L92.5609 11.5709L91.555 12.1196L90.3662 12.8511L74.3633 28.8541Z" fill="#2596BE"/>
<path d="M87.5586 15.6492L91.0154 12.2569C95.3411 8.01216 102.354 8.14474 106.599 12.4704C107.59 13.4797 107.59 15.1164 106.58 16.1069L97.1188 25.3917L87.5586 15.6492Z" fill="#2596BE"/>
<path d="M89.9102 30.6821L104.374 17.0957C106.601 15.0038 110.102 15.1133 112.194 17.3402C115.934 21.3224 115.738 27.5832 111.756 31.3239L100.471 41.9247L89.9102 30.6821Z" fill="#2596BE"/>
<path d="M93.2634 66.1634L97.7748 65.1575C97.2804 65.1694 96.8232 65.167 96.4018 65.1453C93.2532 64.9836 92.0898 63.7495 92.1847 59.3965L91.0078 61.3168L91.3021 64.6089L93.2634 66.1634Z" fill="#FDAC10"/>
<path d="M97.7737 65.2078C94.995 65.1248 93.6113 64.8139 91.7383 63.2383L93.9235 65.7987L97.7737 65.6018V65.2078Z" fill="#FDAC10"/>
<path d="M93.7497 48.6971H74.3633V28.945L79.027 24.2812C77.9412 42.3598 83.4359 45.22 98.5963 43.8505L93.7497 48.6971Z" fill="black" fill-opacity="0.2"/>
<path fill-rule="evenodd" clip-rule="evenodd" d="M96.0483 18.2565C96.1716 18.261 96.2694 18.3638 96.2671 18.4871C96.2647 18.6105 96.1635 18.7065 96.0403 18.702C95.6264 18.6863 95.3084 18.7907 95.0854 19.0147C95.0108 19.09 94.9453 19.1784 94.8888 19.2825C94.8868 19.287 94.885 19.2902 94.8822 19.294C94.7692 19.5086 94.6946 19.7822 94.6604 20.1167C94.6478 20.2398 94.5377 20.3266 94.4157 20.3118C94.2924 20.297 94.2037 20.1853 94.2158 20.0629C94.2297 19.9282 94.2496 19.8007 94.2752 19.6818C94.1168 19.7359 93.9487 19.766 93.7681 19.7726C93.3708 19.7869 92.9236 19.6839 92.4253 19.4636C92.3119 19.4134 92.2594 19.2805 92.3082 19.1685C92.3563 19.0559 92.4884 19.0057 92.6018 19.0558C93.0356 19.2477 93.4164 19.3383 93.7443 19.3271C94.0415 19.3165 94.2975 19.2198 94.5111 19.0382C94.5839 18.9093 94.6697 18.7961 94.7675 18.698C95.0805 18.3836 95.5072 18.2362 96.0483 18.2565ZM103.124 31.3213C103.267 31.274 103.377 31.1728 103.44 31.0463C103.502 30.9204 103.514 30.7701 103.465 30.6251C103.415 30.4806 103.313 30.3687 103.185 30.3047C103.059 30.2406 102.908 30.2253 102.764 30.2721C102.682 30.2988 102.612 30.3431 102.554 30.3994C102.551 30.4038 102.547 30.4084 102.543 30.412L102.539 30.4159C102.503 30.4552 102.472 30.4991 102.449 30.5464C102.387 30.6723 102.374 30.8226 102.423 30.9676C102.473 31.1119 102.576 31.224 102.703 31.2879C102.829 31.3526 102.98 31.368 103.124 31.3213ZM103.84 31.2491C103.952 31.0214 103.976 30.7494 103.886 30.4872C103.796 30.2251 103.609 30.0228 103.379 29.9071C103.15 29.7911 102.877 29.7622 102.617 29.8478C102.539 29.8739 102.466 29.9087 102.4 29.9498L98.3131 25.7615L99.7994 24.311L102.08 26.6476C102.06 26.6781 102.042 26.7101 102.026 26.7419C101.915 26.9696 101.89 27.2416 101.98 27.5039C102.07 27.7652 102.258 27.9682 102.486 28.0835C102.716 28.1992 102.988 28.2281 103.249 28.1425C103.509 28.0569 103.708 27.8731 103.82 27.6462C103.931 27.4186 103.956 27.1465 103.865 26.8844C103.775 26.6222 103.588 26.4201 103.359 26.3041C103.129 26.1883 102.857 26.1593 102.596 26.245C102.525 26.2686 102.457 26.2995 102.395 26.337L100.116 24.0019L101.54 22.6126L105.634 26.8082C105.619 26.833 105.606 26.8579 105.593 26.8835C105.481 27.1112 105.457 27.3832 105.547 27.6454V27.6467C105.637 27.9075 105.823 28.1103 106.053 28.2261C106.282 28.3421 106.555 28.371 106.815 28.2854H106.817C107.076 28.1998 107.275 28.0167 107.387 27.789C107.499 27.5615 107.523 27.2893 107.433 27.0273L107.433 27.0265C107.343 26.765 107.156 26.5629 106.926 26.4469C106.697 26.3312 106.424 26.3023 106.164 26.3879L106.163 26.3884C106.084 26.4146 106.011 26.4491 105.944 26.4918L101.857 22.3027L104.484 19.7393L106.24 21.5384L105.654 22.1107C105.623 22.0907 105.591 22.0719 105.558 22.0557C105.329 21.9399 105.056 21.9109 104.796 21.9966L104.795 21.9972C104.535 22.0822 104.337 22.266 104.225 22.4936C104.113 22.7211 104.089 22.9932 104.179 23.2553V23.2566C104.269 23.5176 104.455 23.7204 104.685 23.8362C104.914 23.9521 105.187 23.981 105.447 23.8954H105.448C105.708 23.8104 105.907 23.6266 106.019 23.3991C106.131 23.1714 106.155 22.8994 106.065 22.6373L106.065 22.6366C106.039 22.5644 106.007 22.4978 105.969 22.435L106.715 21.7059C106.802 21.6206 106.803 21.4785 106.716 21.3895L104.802 19.4294L105.925 18.3336L105.926 18.3343C106.264 18.0035 106.703 17.8332 107.146 17.825C107.59 17.8168 108.039 17.9708 108.401 18.2891C108.766 18.6092 108.995 19.0267 109.014 19.5006C109.032 19.8968 108.905 20.3372 108.596 20.8022C108.277 20.6696 107.931 20.6088 107.575 20.6427C107.452 20.6544 107.364 20.763 107.378 20.8853C107.391 21.0083 107.501 21.0978 107.624 21.0868C108.133 21.0387 108.619 21.238 109.009 21.5814C109.327 21.8606 109.583 22.2334 109.739 22.6468C109.896 23.0602 109.953 23.5141 109.877 23.9549C109.779 24.5206 109.459 25.07 108.837 25.4935C108.762 25.5449 108.688 25.5907 108.615 25.6324C108.592 25.6453 108.569 25.6578 108.545 25.6709C108.262 25.3123 107.909 24.9633 107.48 24.638C107.381 24.5623 107.24 24.5805 107.167 24.6778C107.093 24.7759 107.114 24.9163 107.213 24.9915C107.661 25.3328 108.019 25.6987 108.293 26.0718C108.298 26.0792 108.304 26.0863 108.309 26.0929C108.803 26.773 109.021 27.4737 109.009 28.0902C109.002 28.464 108.909 28.8044 108.742 29.0864C108.577 29.3633 108.338 29.5857 108.036 29.7265C107.381 30.032 106.426 29.9648 105.261 29.2876C105.195 29.2488 105.112 29.2439 105.041 29.2823C104.932 29.3403 104.894 29.4756 104.954 29.5841C105.604 30.7674 105.647 31.7241 105.327 32.3704C105.178 32.6696 104.951 32.9032 104.669 33.0606C104.383 33.2214 104.041 33.3059 103.667 33.3039C103.05 33.3008 102.354 33.0647 101.687 32.5548C101.681 32.5495 101.674 32.5441 101.667 32.5394C101.301 32.2559 100.944 31.8889 100.613 31.4324C100.54 31.3314 100.401 31.3078 100.301 31.3793C100.201 31.451 100.18 31.59 100.254 31.691C100.569 32.127 100.909 32.4887 101.26 32.7808C101.247 32.8044 101.234 32.8274 101.22 32.8498C101.177 32.9213 101.129 32.9952 101.076 33.069C100.633 33.6848 100.071 34.0045 99.4978 34.0978C99.056 34.17 98.6068 34.1102 98.1999 33.95C97.7929 33.7896 97.4304 33.5296 97.161 33.2016C96.8285 32.7975 96.6425 32.2905 96.6987 31.7453C96.712 31.6229 96.6233 31.5112 96.5006 31.4971C96.3781 31.4816 96.2685 31.569 96.2559 31.6908C96.2184 32.0531 96.2663 32.4002 96.3808 32.7197C95.8967 33.0261 95.4442 33.1407 95.0433 33.1058C94.5631 33.0648 94.1494 32.8081 93.8408 32.4141C93.5504 32.0425 93.4202 31.5968 93.4463 31.1646C93.4718 30.7317 93.6534 30.31 93.9851 29.9862L95.1119 28.8865L97.0253 30.8473C97.1122 30.9362 97.2543 30.9393 97.3417 30.8539L98.0868 30.1267C98.1481 30.166 98.2152 30.1997 98.286 30.2271H98.2873C98.5466 30.3229 98.8191 30.3054 99.0501 30.1997C99.2796 30.0941 99.4682 29.8997 99.5602 29.6413V29.64C99.6516 29.3823 99.6299 29.1087 99.5198 28.8765C99.4095 28.6442 99.212 28.4522 98.9521 28.3558C98.6927 28.2599 98.4202 28.2775 98.1894 28.383C97.9592 28.4893 97.7704 28.6837 97.6786 28.9419C97.5872 29.1998 97.6088 29.4734 97.719 29.7057C97.7351 29.739 97.7523 29.771 97.7717 29.8023L97.1852 30.3745L95.4302 28.5749L97.9956 26.0713L102.089 30.2662C102.074 30.2919 102.059 30.3173 102.046 30.3442C101.934 30.5719 101.91 30.8438 102 31.1061C102.09 31.3682 102.278 31.5704 102.507 31.6862C102.736 31.8022 103.009 31.8311 103.269 31.7455C103.529 31.6604 103.729 31.4761 103.84 31.2491ZM105.289 23.4728C105.297 23.4699 105.306 23.4667 105.315 23.4644C105.453 23.4148 105.558 23.3157 105.618 23.1942C105.678 23.0728 105.692 22.9278 105.648 22.7868C105.645 22.7782 105.641 22.7697 105.639 22.7606C105.612 22.6891 105.572 22.6249 105.523 22.5722C105.52 22.5689 105.516 22.5662 105.514 22.5636C105.511 22.5603 105.507 22.557 105.505 22.5538C105.464 22.5135 105.416 22.479 105.364 22.4533C105.242 22.3913 105.097 22.3747 104.956 22.4164C104.948 22.4194 104.94 22.4225 104.931 22.4249C104.792 22.4736 104.687 22.5728 104.627 22.6949C104.568 22.8164 104.553 22.9614 104.598 23.1024C104.601 23.111 104.604 23.1194 104.607 23.1286C104.658 23.2672 104.759 23.3746 104.882 23.4366C105.004 23.4991 105.149 23.5158 105.289 23.4728ZM99.24 18.2179C99.2323 18.219 99.2251 18.2195 99.2175 18.2193C98.9144 18.2408 98.6114 18.1505 98.3072 17.9478C98.1933 17.8712 98.0766 17.7777 97.9595 17.6654C97.8694 17.5796 97.8655 17.4381 97.9491 17.35C98.0332 17.2614 98.1748 17.2598 98.2642 17.345C98.3588 17.4355 98.4548 17.513 98.5501 17.577C98.76 17.717 98.9625 17.7833 99.1582 17.7751C99.2778 17.7343 99.3961 17.7025 99.5125 17.6778C99.6586 17.6047 99.8049 17.4902 99.9527 17.3344C100.077 17.204 100.202 17.0419 100.329 16.8501C100.396 16.7475 100.534 16.7207 100.638 16.7894C100.742 16.8581 100.771 16.9969 100.704 17.0995C100.57 17.304 100.431 17.4813 100.291 17.6314C100.437 17.6461 100.58 17.6749 100.72 17.7166C101.216 17.8645 101.676 18.1796 102.098 18.6612C102.18 18.7546 102.171 18.8959 102.08 18.976C101.988 19.0567 101.846 19.0454 101.765 18.9526C101.401 18.5368 101.012 18.2672 100.6 18.1443C100.303 18.056 99.9883 18.0424 99.658 18.1046C99.5489 18.1533 99.4389 18.1872 99.3272 18.2049C99.2981 18.2127 99.269 18.2153 99.24 18.2179ZM96.8291 21.0506C96.7889 20.9328 96.8507 20.8069 96.967 20.7693C97.084 20.731 97.211 20.795 97.2507 20.9121C97.3778 21.2836 97.4392 21.602 97.437 21.8667C97.4346 22.1741 97.3472 22.4151 97.1755 22.5918C97.0063 22.7644 96.7645 22.8628 96.4512 22.8853C96.1476 22.9075 95.7694 22.8595 95.3166 22.7403C95.1973 22.7087 95.1235 22.5863 95.1529 22.4674C95.1823 22.3486 95.3034 22.2769 95.4228 22.3084C95.8267 22.415 96.1559 22.4581 96.4108 22.4395C96.6149 22.4244 96.7643 22.37 96.8558 22.2757C96.9452 22.1846 96.9902 22.044 96.9915 21.8561C96.993 21.6424 96.939 21.3745 96.8291 21.0506ZM93.0628 23.323C93.0568 23.2001 93.1515 23.0962 93.2748 23.0929C93.3982 23.0883 93.503 23.1855 93.5085 23.3091C93.5416 23.9898 93.3745 24.4732 93.0094 24.7601C92.9024 24.8439 92.7795 24.9098 92.6413 24.956C92.6954 24.9919 92.745 25.0297 92.79 25.0707C93.0886 25.3443 93.17 25.7156 93.0134 26.3303C92.9827 26.4491 92.8609 26.519 92.7422 26.4868C92.623 26.4539 92.5511 26.331 92.5813 26.2128C92.6899 25.7862 92.6539 25.5471 92.4911 25.3972C92.3 25.2219 91.9271 25.1122 91.4117 24.9754H91.4104C91.2892 24.9522 91.2081 24.8344 91.2292 24.7133C91.2504 24.5924 91.3669 24.5134 91.4881 24.5367C92.0624 24.6493 92.4765 24.6056 92.7291 24.4068C92.9778 24.2131 93.0881 23.8517 93.0628 23.323ZM106.657 27.8642C106.665 27.8611 106.674 27.8581 106.683 27.8558C106.821 27.8062 106.926 27.7071 106.986 27.5856C107.046 27.4642 107.06 27.3192 107.016 27.178C107.013 27.1695 107.01 27.1611 107.007 27.152C106.956 27.0128 106.854 26.906 106.732 26.844C106.609 26.782 106.464 26.7654 106.324 26.8071C106.315 26.8102 106.307 26.8131 106.298 26.8157C106.221 26.8431 106.155 26.8855 106.101 26.9387C106.097 26.9437 106.092 26.9488 106.087 26.9532L106.082 26.9578C106.048 26.9956 106.018 27.039 105.996 27.0851C105.936 27.2065 105.921 27.3515 105.966 27.4925C105.969 27.5011 105.972 27.5095 105.975 27.5187C106.026 27.6573 106.127 27.7647 106.25 27.8267C106.372 27.8892 106.518 27.9064 106.657 27.8642ZM99.1357 29.4943C99.1384 29.4853 99.1416 29.4771 99.1448 29.4687C99.1906 29.3302 99.1769 29.1839 99.118 29.0599C99.0571 28.9315 98.9477 28.8258 98.8045 28.7724C98.6607 28.7197 98.5102 28.7289 98.3827 28.7876C98.2555 28.8463 98.1518 28.9538 98.1007 29.0963C98.0506 29.2391 98.0623 29.39 98.1232 29.5184C98.1475 29.5705 98.181 29.6192 98.2202 29.662C98.2234 29.6653 98.2273 29.6678 98.2304 29.6711C98.2337 29.6744 98.237 29.6777 98.2388 29.681C98.2909 29.7318 98.3527 29.7732 98.4244 29.8012C98.4334 29.8039 98.4418 29.8074 98.4502 29.8107C98.5894 29.8588 98.7355 29.8476 98.8583 29.7909C98.9819 29.7346 99.0836 29.6314 99.1357 29.4943ZM103.104 27.7189C103.248 27.6723 103.358 27.5699 103.42 27.4439C103.482 27.3181 103.494 27.1677 103.445 27.0234C103.395 26.8784 103.292 26.767 103.165 26.703C103.038 26.639 102.887 26.6236 102.743 26.6703C102.666 26.6951 102.6 26.7357 102.545 26.7869C102.541 26.79 102.539 26.7939 102.535 26.797C102.532 26.8003 102.529 26.8034 102.526 26.8052C102.486 26.8464 102.453 26.8936 102.428 26.9446C102.366 27.0706 102.353 27.2208 102.402 27.3658C102.452 27.511 102.556 27.6229 102.683 27.6869C102.809 27.7502 102.959 27.7663 103.104 27.7189ZM90.0771 26.2547C89.7591 26.7313 89.6334 27.1807 89.6585 27.5823C89.6878 28.0635 89.9343 28.4832 90.3206 28.8013C90.6849 29.1009 91.1275 29.2419 91.56 29.2263C91.9935 29.2115 92.4196 29.0402 92.7514 28.7164L104.69 17.0677L104.689 17.067C105.028 16.7363 105.209 16.3022 105.228 15.8589C105.247 15.4156 105.104 14.9631 104.795 14.593C104.484 14.2209 104.072 13.9818 103.599 13.9506C103.203 13.9236 102.759 14.0397 102.287 14.3372C102.412 14.6595 102.464 15.0061 102.422 15.3618C102.407 15.4842 102.296 15.569 102.174 15.5529C102.052 15.5362 101.965 15.4239 101.979 15.3021C102.039 14.7938 101.852 14.3036 101.518 13.9046C101.247 13.5798 100.88 13.3158 100.471 13.149C100.062 12.9823 99.6092 12.914 99.1666 12.9791C98.5987 13.0634 98.0417 13.3702 97.6031 13.9811C97.5499 14.0549 97.5023 14.1282 97.4588 14.2003C97.4452 14.2226 97.4323 14.2456 97.4185 14.2692C97.7701 14.5607 98.1104 14.9224 98.4252 15.3591C98.4985 15.4601 98.4767 15.5998 98.3776 15.6707C98.2779 15.7422 98.1379 15.718 98.0652 15.6177C97.7351 15.1613 97.3779 14.7941 97.0116 14.5106C97.0045 14.506 96.9973 14.5 96.9909 14.4947C96.3232 13.9841 95.6279 13.7487 95.0113 13.7455C94.6373 13.7435 94.295 13.8281 94.0089 13.9888C93.728 14.147 93.4999 14.3799 93.3516 14.679C93.0305 15.3259 93.0742 16.2821 93.7227 17.464C93.76 17.5306 93.7629 17.614 93.7225 17.6842C93.6622 17.7908 93.5257 17.8261 93.4187 17.7631C92.2524 17.0852 91.2965 17.018 90.6425 17.3228C90.3398 17.4637 90.1007 17.6854 89.9363 17.963C89.7688 18.2449 89.6759 18.5853 89.6687 18.9591C89.6569 19.5756 89.8758 20.2771 90.3692 20.9565C90.3743 20.9631 90.3796 20.9696 90.384 20.9768C90.6584 21.3501 91.0168 21.716 91.4651 22.0573C91.5642 22.133 91.5843 22.2729 91.5105 22.3709C91.4364 22.4687 91.2968 22.4865 91.1977 22.4108C90.7696 22.0848 90.4162 21.7357 90.1327 21.3778C90.1088 21.3909 90.0856 21.4033 90.0629 21.4164C89.9904 21.4575 89.9153 21.5037 89.8403 21.5552C89.2137 21.9826 88.8805 22.5369 88.7731 23.1075C88.6901 23.5476 88.7389 23.998 88.8893 24.4088C89.0394 24.8194 89.2907 25.1883 89.6119 25.4656C90.0078 25.8077 90.51 26.0062 91.0565 25.9634C91.1792 25.953 91.2888 26.0444 91.2999 26.1673C91.3124 26.2904 91.2229 26.3983 91.1002 26.4073C90.7403 26.434 90.3945 26.3776 90.0771 26.2547ZM89.2135 27.6034C89.2514 28.2179 89.5581 28.7486 90.0404 29.1442C90.493 29.516 91.0432 29.6909 91.5838 29.6719C92.1237 29.6534 92.6531 29.4403 93.0654 29.0381L105.004 17.3881L105.004 17.3887C105.425 16.9777 105.651 16.4373 105.675 15.8849C105.699 15.3326 105.521 14.7676 105.137 14.3082C104.748 13.8422 104.226 13.5439 103.621 13.5035C103.148 13.4723 102.628 13.6003 102.086 13.9326C102.019 13.8239 101.943 13.7197 101.859 13.6197C101.541 13.2398 101.112 12.9299 100.632 12.7358L100.631 12.7351C100.151 12.5398 99.6185 12.4595 99.0933 12.537C98.4144 12.6372 97.7531 12.9993 97.2391 13.7145C97.1821 13.7934 97.1274 13.8775 97.0749 13.9649L97.0573 13.9949C96.3662 13.5212 95.6509 13.3003 95.0064 13.2972C94.555 13.2948 94.1369 13.3992 93.7856 13.5965C93.4284 13.7971 93.1395 14.0933 92.9514 14.4724C92.6288 15.1205 92.6038 16.01 93.0429 17.0706C91.9927 16.605 91.1035 16.609 90.4477 16.9157C90.0642 17.0943 89.7609 17.3761 89.5517 17.7282C89.3452 18.0752 89.2313 18.4901 89.2225 18.9414C89.2099 19.5857 89.4134 20.3061 89.8699 21.0087L89.8396 21.0255C89.7503 21.0753 89.6655 21.1284 89.5852 21.1836C88.8543 21.6818 88.4646 22.3376 88.3369 23.0157C88.2382 23.5368 88.2963 24.0696 88.4736 24.5531C88.6506 25.0367 88.9467 25.4723 89.3253 25.7993C89.4346 25.8933 89.55 25.9789 89.6719 26.0532C89.3211 26.5975 89.1843 27.1236 89.2135 27.6034ZM96.5743 33.1267C96.0224 33.4632 95.4936 33.5879 95.0146 33.5468C94.4014 33.4939 93.8782 33.1744 93.4944 32.6826C93.134 32.221 92.9725 31.6666 93.0048 31.1267C93.0365 30.5876 93.2624 30.0632 93.6744 29.6611L105.611 18.0117L105.61 18.011C106.031 17.6 106.577 17.3879 107.13 17.3775C107.683 17.3671 108.243 17.559 108.693 17.9539C109.15 18.3542 109.435 18.8826 109.461 19.4883C109.48 19.9622 109.34 20.4791 108.994 21.0132C109.101 21.0826 109.203 21.1616 109.301 21.2476C109.673 21.5744 109.973 22.0108 110.155 22.4958L110.156 22.4963C110.339 22.9814 110.406 23.5156 110.316 24.0388C110.199 24.7152 109.822 25.3681 109.094 25.8643C109.014 25.9195 108.929 25.972 108.84 26.0225L108.81 26.0393C109.266 26.7418 109.47 27.4622 109.457 28.1065C109.448 28.5579 109.334 28.9734 109.128 29.3198C108.919 29.6719 108.615 29.9535 108.232 30.1322C107.576 30.4389 106.686 30.4422 105.637 29.9773C106.076 31.0386 106.051 31.9274 105.728 32.5756C105.54 32.9546 105.251 33.2508 104.894 33.4513C104.542 33.6494 104.124 33.7531 103.673 33.7507C103.029 33.7476 102.313 33.5266 101.622 33.0531L101.605 33.0831C101.553 33.1711 101.498 33.2545 101.44 33.3335C100.924 34.0519 100.259 34.4255 99.5783 34.5366C99.055 34.6225 98.5238 34.5514 98.0448 34.3624C97.5656 34.1735 97.1373 33.8668 96.8198 33.4805C96.7285 33.3688 96.6462 33.2508 96.5743 33.1267Z" fill="white"/>
<path d="M51.6862 48.8811H70.2496V28.5802L66.0431 24.5566C66.5995 39.216 62.3841 43.4432 47.2969 44.3088L51.6862 48.8811Z" fill="black" fill-opacity="0.2"/>
<path d="M74.5469 52.9961H92.2873C75.7759 63.2036 72.1655 72.2879 84.2401 84.1789C82.2394 83.1964 81.1895 82.5528 79.5764 81.0698C76.3727 77.5956 75.371 75.1736 74.5469 70.2792V52.9961Z" fill="black" fill-opacity="0.2"/>
</g>
<path d="M127.271 14.6719H134.063L140.602 29.2053H140.882L147.422 14.6719H154.213L143.753 36.4887V48.4184H137.732V36.4887L127.271 14.6719Z" fill="white"/>
<path d="M181.155 31.5423C181.155 35.1902 180.576 38.2933 179.418 40.8525C178.27 43.4113 176.702 45.3659 174.715 46.7164C172.737 48.0558 170.513 48.7253 168.043 48.7253C165.555 48.7253 163.322 48.0503 161.344 46.6998C159.366 45.3498 157.803 43.3952 156.654 40.836C155.506 38.2772 154.932 35.1792 154.932 31.5423C154.932 27.8945 155.506 24.7913 156.654 22.2321C157.803 19.6734 159.366 17.7243 161.344 16.3848C163.322 15.0344 165.555 14.3594 168.043 14.3594C170.513 14.3594 172.737 15.0344 174.715 16.3848C176.702 17.7243 178.27 19.6734 179.418 22.2321C180.576 24.7913 181.155 27.8945 181.155 31.5423ZM175.153 31.5423C175.153 29.1796 174.856 27.1868 174.264 25.5644C173.681 23.942 172.856 22.7111 171.789 21.8728C170.723 21.0344 169.474 20.6152 168.043 20.6152C166.612 20.6152 165.363 21.0344 164.297 21.8728C163.231 22.7111 162.401 23.942 161.809 25.5644C161.225 27.1868 160.934 29.1796 160.934 31.5423C160.934 33.9051 161.225 35.8979 161.809 37.5203C162.401 39.1427 163.231 40.3735 164.297 41.2119C165.363 42.0502 166.612 42.4694 168.043 42.4694C169.474 42.4694 170.723 42.0502 171.789 41.2119C172.856 40.3735 173.681 39.1427 174.264 37.5203C174.856 35.8979 175.153 33.9051 175.153 31.5423Z" fill="white"/>
<path d="M203.488 14.6719H209.533V36.4798C209.533 38.9283 209.035 41.0708 208.039 42.9071C207.053 44.7438 205.669 46.1757 203.892 47.2033C202.115 48.2198 200.042 48.7281 197.678 48.7281C195.305 48.7281 193.23 48.2198 191.451 47.2033C189.673 46.1757 188.29 44.7438 187.304 42.9071C186.318 41.0708 185.824 38.9283 185.824 36.4798V14.6719H191.87V35.8731C191.87 37.1519 192.108 38.2889 192.582 39.2834C193.066 40.2783 193.745 41.0598 194.62 41.6283C195.495 42.1969 196.515 42.4807 197.678 42.4807C198.852 42.4807 199.87 42.1969 200.737 41.6283C201.612 41.0598 202.287 40.2783 202.761 39.2834C203.246 38.2889 203.488 37.1519 203.488 35.8731V14.6719Z" fill="white"/>
<path d="M214.923 48.4184V14.6719H226.066C228.199 14.6719 230.019 15.1275 231.526 16.0393C233.044 16.9405 234.198 18.2201 234.988 19.879C235.788 21.5264 236.187 23.4653 236.187 25.6953C236.187 27.9363 235.783 29.8646 234.974 31.4794C234.164 33.0831 232.993 34.3135 231.457 35.1701C229.931 36.0271 228.083 36.4556 225.913 36.4556H218.454V30.7212H224.948C226.088 30.7212 227.035 30.5345 227.79 30.1612C228.543 29.7874 229.104 29.2273 229.471 28.4802C229.848 27.7331 230.037 26.8052 230.037 25.6953C230.037 24.5748 229.848 23.6304 229.471 22.8611C229.104 22.0924 228.539 21.5098 227.776 21.1149C227.022 20.708 226.07 20.5052 224.921 20.5052H220.895V48.4184H214.923ZM230.175 33.061L237.195 48.4184H230.603L223.735 33.061H230.175Z" fill="white"/>
<path d="M255.792 24.4324C255.68 23.1155 255.2 22.0926 254.354 21.3632C253.505 20.6339 252.355 20.2695 250.903 20.2695C249.915 20.2695 249.082 20.4324 248.402 20.7591C247.722 21.0747 247.2 21.5156 246.838 22.0815C246.483 22.6475 246.306 23.2899 246.306 24.0081C246.288 24.6064 246.395 25.1291 246.628 25.5754C246.87 26.0213 247.2 26.4078 247.62 26.7345C248.039 27.0502 248.523 27.3276 249.072 27.5669C249.621 27.7956 250.209 27.9916 250.833 28.1545L253.403 28.8728C254.651 29.1995 255.797 29.6348 256.84 30.1792C257.883 30.7235 258.786 31.3926 259.55 32.1872C260.313 32.9819 260.905 33.9178 261.323 34.9951C261.753 36.0727 261.972 37.3082 261.98 38.7011C261.972 40.7473 261.524 42.5216 260.639 44.0235C259.764 45.5144 258.497 46.6735 256.84 47.5009C255.191 48.3172 253.203 48.7253 250.874 48.7253C248.565 48.7253 246.553 48.3116 244.84 47.4847C243.135 46.6574 241.804 45.433 240.845 43.8114C239.894 42.1788 239.396 40.1597 239.35 37.7545H245.203C245.268 38.8754 245.543 39.8114 246.027 40.5623C246.521 41.3027 247.178 41.8631 247.997 42.2437C248.826 42.6141 249.761 42.7991 250.804 42.7991C251.829 42.7991 252.719 42.6247 253.473 42.2764C254.236 41.9285 254.828 41.444 255.248 40.8237C255.666 40.2034 255.876 39.4902 255.876 38.6849C255.876 37.934 255.685 37.3027 255.303 36.791C254.93 36.2797 254.381 35.844 253.654 35.4851C252.937 35.1257 252.057 34.7995 251.014 34.5054L247.899 33.5911C245.486 32.9055 243.582 31.8334 242.186 30.3752C240.788 28.9165 240.094 26.9522 240.104 24.4816C240.094 22.457 240.556 20.6882 241.487 19.1757C242.427 17.6627 243.717 16.4816 245.357 15.6326C246.995 14.7836 248.858 14.3594 250.944 14.3594C253.069 14.3594 254.922 14.7836 256.504 15.6326C258.096 16.4816 259.335 17.6627 260.221 19.1757C261.105 20.6882 261.562 22.4405 261.59 24.4324H255.792Z" fill="white"/>
<path d="M292.155 31.5423C292.155 35.1902 291.561 38.2933 290.372 40.8525C289.192 43.4113 287.581 45.3659 285.54 46.7164C283.507 48.0558 281.223 48.7253 278.685 48.7253C276.128 48.7253 273.834 48.0503 271.802 46.6998C269.769 45.3498 268.165 43.3952 266.984 40.836C265.804 38.2772 265.214 35.1792 265.214 31.5423C265.214 27.8945 265.804 24.7913 266.984 22.2321C268.165 19.6734 269.769 17.7243 271.802 16.3848C273.834 15.0344 276.128 14.3594 278.685 14.3594C281.223 14.3594 283.507 15.0344 285.54 16.3848C287.581 17.7243 289.192 19.6734 290.372 22.2321C291.561 24.7913 292.155 27.8945 292.155 31.5423ZM285.99 31.5423C285.99 29.1796 285.684 27.1868 285.077 25.5644C284.476 23.942 283.629 22.7111 282.534 21.8728C281.438 21.0344 280.155 20.6152 278.685 20.6152C277.215 20.6152 275.931 21.0344 274.836 21.8728C273.74 22.7111 272.889 23.942 272.28 25.5644C271.681 27.1868 271.381 29.1796 271.381 31.5423C271.381 33.9051 271.681 35.8979 272.28 37.5203C272.889 39.1427 273.74 40.3735 274.836 41.2119C275.931 42.0502 277.215 42.4694 278.685 42.4694C280.155 42.4694 281.438 42.0502 282.534 41.2119C283.629 40.3735 284.476 39.1427 285.077 37.5203C285.684 35.8979 285.99 33.9051 285.99 31.5423Z" fill="white"/>
<path d="M296.464 48.4184V14.6719H315.504V20.5544H302.544V28.5956H314.238V34.4781H302.544V48.4184H296.464Z" fill="white"/>
<path d="M318.376 20.5544V14.6719H341.725V20.5544H333.022V48.4184H327.082V20.5544H318.376Z" fill="white"/>
<path d="M364.561 48.4184H354.3V14.6719H364.647C367.56 14.6719 370.063 15.3473 372.167 16.6986C374.266 18.0389 375.883 19.9668 377.014 22.4823C378.156 24.9978 378.728 28.008 378.728 31.512C378.728 35.0275 378.156 38.0483 377.014 40.5749C375.883 43.1014 374.259 45.0408 372.139 46.3916C370.029 47.7429 367.502 48.4184 364.561 48.4184ZM360.42 42.305H364.309C366.116 42.305 367.64 41.9317 368.874 41.1846C370.115 40.4268 371.049 39.2567 371.674 37.675C372.305 36.0823 372.618 34.028 372.618 31.512C372.618 29.0186 372.305 26.9808 371.674 25.3987C371.049 23.817 370.122 22.6524 368.888 21.9057C367.653 21.1586 366.129 20.7852 364.323 20.7852H360.42V42.305Z" fill="white"/>
<path d="M388.786 14.6719V48.4184H382.68V14.6719H388.786Z" fill="white"/>
<path d="M412.825 25.6297C412.625 24.8346 412.346 24.1325 411.991 23.5223C411.632 22.9016 411.191 22.3794 410.674 21.9547C410.164 21.5189 409.581 21.1867 408.919 20.9581C408.267 20.7294 407.547 20.6152 406.754 20.6152C405.271 20.6152 403.971 21.0399 402.847 21.8893C401.734 22.7387 400.865 23.9746 400.244 25.597C399.62 27.2084 399.31 29.1796 399.31 31.5097C399.31 33.8402 399.617 35.8215 400.227 37.455C400.841 39.0884 401.709 40.3354 402.833 41.1954C403.954 42.0447 405.281 42.4694 406.809 42.4694C408.195 42.4694 409.381 42.1864 410.364 41.62C411.353 41.043 412.108 40.2318 412.625 39.1864C413.156 38.141 413.418 36.9051 413.418 35.4787L414.663 35.6909H407.192V30.3663H419.321V34.5805C419.321 37.5203 418.783 40.0468 417.707 42.1593C416.632 44.2607 415.149 45.8831 413.263 47.0265C411.377 48.1589 409.215 48.7253 406.781 48.7253C404.064 48.7253 401.678 48.0337 399.62 46.651C397.565 45.2569 395.958 43.2806 394.807 40.7219C393.669 38.152 393.097 35.1032 393.097 31.575C393.097 28.8635 393.435 26.4464 394.114 24.3229C394.803 22.1889 395.765 20.381 397.003 18.8999C398.237 17.4192 399.675 16.2924 401.32 15.5189C402.961 14.7459 404.74 14.3594 406.654 14.3594C408.295 14.3594 409.822 14.6368 411.239 15.1922C412.656 15.737 413.911 16.51 415.004 17.5117C416.108 18.5134 417.008 19.706 417.707 21.0887C418.404 22.4608 418.852 23.9746 419.052 25.6297H412.825Z" fill="white"/>
<path d="M429.736 14.6719V48.4184H423.63V14.6719H429.736Z" fill="white"/>
<path d="M433.688 20.5544V14.6719H457.036V20.5544H448.334V48.4184H442.39V20.5544H433.688Z" fill="white"/>
<path d="M462.575 48.4184H456.317L465.851 14.6719H473.377L482.9 48.4184H476.643L469.723 22.3834H469.505L462.575 48.4184ZM462.182 35.154H476.963V40.7234H462.182V35.154Z" fill="white"/>
<path d="M486.854 48.4184V14.6719H492.785V42.5359H504.814V48.4184H486.854Z" fill="white"/>
<path d="M137.709 55.7187V54H149.709V55.7187H144.678V70H142.74V55.7187H137.709ZM156.219 70V54H165.875V55.7187H158.157V61.125H165.375V62.8437H158.157V68.2812H166V70H156.219ZM185.763 59H183.825C183.711 58.4427 183.51 57.9531 183.224 57.5312C182.942 57.1094 182.599 56.7552 182.192 56.4688C181.791 56.1771 181.346 55.9583 180.856 55.8125C180.367 55.6667 179.856 55.5937 179.325 55.5937C178.356 55.5937 177.479 55.8385 176.692 56.3281C175.911 56.8177 175.289 57.5391 174.825 58.4922C174.367 59.4453 174.138 60.6146 174.138 62C174.138 63.3854 174.367 64.5547 174.825 65.5078C175.289 66.4609 175.911 67.1823 176.692 67.6719C177.479 68.1615 178.356 68.4062 179.325 68.4062C179.856 68.4062 180.367 68.3333 180.856 68.1875C181.346 68.0417 181.791 67.8255 182.192 67.5391C182.599 67.2474 182.942 66.8906 183.224 66.4687C183.51 66.0417 183.711 65.5521 183.825 65H185.763C185.617 65.8177 185.351 66.5495 184.966 67.1953C184.58 67.8411 184.101 68.3906 183.528 68.8437C182.955 69.2917 182.312 69.6328 181.599 69.8672C180.89 70.1016 180.132 70.2187 179.325 70.2187C177.961 70.2187 176.747 69.8854 175.684 69.2188C174.622 68.5521 173.786 67.6042 173.177 66.375C172.567 65.1458 172.263 63.6875 172.263 62C172.263 60.3125 172.567 58.8542 173.177 57.625C173.786 56.3958 174.622 55.4479 175.684 54.7812C176.747 54.1146 177.961 53.7812 179.325 53.7812C180.132 53.7812 180.89 53.8984 181.599 54.1328C182.312 54.3672 182.955 54.7109 183.528 55.1641C184.101 55.612 184.58 56.1589 184.966 56.8047C185.351 57.4453 185.617 58.1771 185.763 59ZM192.413 70V54H194.351V61.125H202.882V54H204.82V70H202.882V62.8437H194.351V70H192.413ZM224.906 54V70H223.031L214.312 57.4375H214.156V70H212.219V54H214.094L222.844 66.5937H223V54H224.906ZM245.803 62C245.803 63.6875 245.498 65.1458 244.889 66.375C244.28 67.6042 243.444 68.5521 242.381 69.2188C241.319 69.8854 240.105 70.2187 238.741 70.2187C237.376 70.2187 236.162 69.8854 235.1 69.2188C234.037 68.5521 233.202 67.6042 232.592 66.375C231.983 65.1458 231.678 63.6875 231.678 62C231.678 60.3125 231.983 58.8542 232.592 57.625C233.202 56.3958 234.037 55.4479 235.1 54.7812C236.162 54.1146 237.376 53.7812 238.741 53.7812C240.105 53.7812 241.319 54.1146 242.381 54.7812C243.444 55.4479 244.28 56.3958 244.889 57.625C245.498 58.8542 245.803 60.3125 245.803 62ZM243.928 62C243.928 60.6146 243.696 59.4453 243.233 58.4922C242.774 57.5391 242.152 56.8177 241.366 56.3281C240.584 55.8385 239.709 55.5937 238.741 55.5937C237.772 55.5937 236.894 55.8385 236.108 56.3281C235.327 56.8177 234.704 57.5391 234.241 58.4922C233.782 59.4453 233.553 60.6146 233.553 62C233.553 63.3854 233.782 64.5547 234.241 65.5078C234.704 66.4609 235.327 67.1823 236.108 67.6719C236.894 68.1615 237.772 68.4062 238.741 68.4062C239.709 68.4062 240.584 68.1615 241.366 67.6719C242.152 67.1823 242.774 66.4609 243.233 65.5078C243.696 64.5547 243.928 63.3854 243.928 62ZM252.581 70V54H254.518V68.2812H261.956V70H252.581ZM281.353 62C281.353 63.6875 281.048 65.1458 280.439 66.375C279.829 67.6042 278.993 68.5521 277.931 69.2188C276.868 69.8854 275.655 70.2187 274.29 70.2187C272.926 70.2187 271.712 69.8854 270.65 69.2188C269.587 68.5521 268.751 67.6042 268.142 66.375C267.533 65.1458 267.228 63.6875 267.228 62C267.228 60.3125 267.533 58.8542 268.142 57.625C268.751 56.3958 269.587 55.4479 270.65 54.7812C271.712 54.1146 272.926 53.7812 274.29 53.7812C275.655 53.7812 276.868 54.1146 277.931 54.7812C278.993 55.4479 279.829 56.3958 280.439 57.625C281.048 58.8542 281.353 60.3125 281.353 62ZM279.478 62C279.478 60.6146 279.246 59.4453 278.783 58.4922C278.324 57.5391 277.702 56.8177 276.915 56.3281C276.134 55.8385 275.259 55.5937 274.29 55.5937C273.322 55.5937 272.444 55.8385 271.658 56.3281C270.876 56.8177 270.254 57.5391 269.79 58.4922C269.332 59.4453 269.103 60.6146 269.103 62C269.103 63.3854 269.332 64.5547 269.79 65.5078C270.254 66.4609 270.876 67.1823 271.658 67.6719C272.444 68.1615 273.322 68.4062 274.29 68.4062C275.259 68.4062 276.134 68.1615 276.915 67.6719C277.702 67.1823 278.324 66.4609 278.783 65.5078C279.246 64.5547 279.478 63.3854 279.478 62ZM299.068 59C298.896 58.474 298.67 58.0026 298.388 57.5859C298.112 57.1641 297.782 56.8047 297.396 56.5078C297.016 56.2109 296.584 55.9844 296.099 55.8281C295.615 55.6719 295.084 55.5937 294.506 55.5937C293.558 55.5937 292.696 55.8385 291.92 56.3281C291.144 56.8177 290.526 57.5391 290.068 58.4922C289.61 59.4453 289.381 60.6146 289.381 62C289.381 63.3854 289.612 64.5547 290.076 65.5078C290.54 66.4609 291.167 67.1823 291.959 67.6719C292.75 68.1615 293.641 68.4062 294.631 68.4062C295.547 68.4062 296.355 68.2109 297.053 67.8203C297.756 67.4245 298.303 66.8672 298.693 66.1484C299.089 65.4245 299.287 64.5729 299.287 63.5937L299.881 63.7187H295.068V62H301.162V63.7187C301.162 65.0365 300.881 66.1823 300.318 67.1562C299.761 68.1302 298.99 68.8854 298.006 69.4219C297.026 69.9531 295.901 70.2187 294.631 70.2187C293.214 70.2187 291.969 69.8854 290.896 69.2188C289.829 68.5521 288.995 67.6042 288.396 66.375C287.803 65.1458 287.506 63.6875 287.506 62C287.506 60.7344 287.675 59.5964 288.013 58.5859C288.357 57.5703 288.842 56.7057 289.467 55.9922C290.092 55.2786 290.831 54.7318 291.685 54.3516C292.54 53.9714 293.48 53.7812 294.506 53.7812C295.349 53.7812 296.136 53.9089 296.865 54.1641C297.599 54.4141 298.253 54.7708 298.826 55.2344C299.404 55.6927 299.886 56.2422 300.271 56.8828C300.657 57.5182 300.922 58.224 301.068 59H299.068ZM306.131 54H308.35L312.787 61.4687H312.975L317.412 54H319.631L313.85 63.4063V70H311.912V63.4063L306.131 54ZM336.021 70H333.989L339.864 54H341.864L347.739 70H345.708L340.927 56.5312H340.802L336.021 70ZM336.771 63.75H344.958V65.4687H336.771V63.75ZM366.439 54V70H364.564L355.845 57.4375H355.689V70H353.752V54H355.627L364.377 66.5937H364.533V54H366.439ZM378.774 70H373.836V54H378.992C380.544 54 381.873 54.3203 382.977 54.9609C384.081 55.5964 384.927 56.5104 385.516 57.7031C386.104 58.8906 386.399 60.3125 386.399 61.9687C386.399 63.6354 386.102 65.0703 385.508 66.2734C384.914 67.4714 384.05 68.3932 382.914 69.0391C381.779 69.6797 380.399 70 378.774 70ZM375.774 68.2812H378.649C379.972 68.2812 381.068 68.026 381.938 67.5156C382.807 67.0052 383.456 66.2786 383.883 65.3359C384.31 64.3932 384.524 63.2708 384.524 61.9687C384.524 60.6771 384.313 59.5651 383.891 58.6328C383.469 57.6953 382.839 56.9766 382 56.4766C381.162 55.9714 380.117 55.7187 378.867 55.7187H375.774V68.2812ZM407.814 70H402.876V54H408.032C409.584 54 410.913 54.3203 412.017 54.9609C413.121 55.5964 413.967 56.5104 414.556 57.7031C415.144 58.8906 415.439 60.3125 415.439 61.9687C415.439 63.6354 415.142 65.0703 414.548 66.2734C413.954 67.4714 413.09 68.3932 411.954 69.0391C410.819 69.6797 409.439 70 407.814 70ZM404.814 68.2812H407.689C409.012 68.2812 410.108 68.026 410.978 67.5156C411.847 67.0052 412.496 66.2786 412.923 65.3359C413.35 64.3932 413.564 63.2708 413.564 61.9687C413.564 60.6771 413.353 59.5651 412.931 58.6328C412.509 57.6953 411.879 56.9766 411.04 56.4766C410.202 55.9714 409.157 55.7187 407.907 55.7187H404.814V68.2812ZM424.146 54V70H422.209V54H424.146ZM442.488 59C442.317 58.474 442.09 58.0026 441.809 57.5859C441.533 57.1641 441.202 56.8047 440.817 56.5078C440.436 56.2109 440.004 55.9844 439.52 55.8281C439.035 55.6719 438.504 55.5937 437.926 55.5937C436.978 55.5937 436.116 55.8385 435.34 56.3281C434.564 56.8177 433.947 57.5391 433.488 58.4922C433.03 59.4453 432.801 60.6146 432.801 62C432.801 63.3854 433.033 64.5547 433.496 65.5078C433.96 66.4609 434.587 67.1823 435.379 67.6719C436.171 68.1615 437.061 68.4062 438.051 68.4062C438.968 68.4062 439.775 68.2109 440.473 67.8203C441.176 67.4245 441.723 66.8672 442.113 66.1484C442.509 65.4245 442.707 64.5729 442.707 63.5937L443.301 63.7187H438.488V62H444.582V63.7187C444.582 65.0365 444.301 66.1823 443.738 67.1562C443.181 68.1302 442.41 68.8854 441.426 69.4219C440.447 69.9531 439.322 70.2187 438.051 70.2187C436.634 70.2187 435.389 69.8854 434.317 69.2188C433.249 68.5521 432.415 67.6042 431.817 66.375C431.223 65.1458 430.926 63.6875 430.926 62C430.926 60.7344 431.095 59.5964 431.434 58.5859C431.777 57.5703 432.262 56.7057 432.887 55.9922C433.512 55.2786 434.251 54.7318 435.106 54.3516C435.96 53.9714 436.9 53.7812 437.926 53.7812C438.77 53.7812 439.556 53.9089 440.285 54.1641C441.02 54.4141 441.673 54.7708 442.246 55.2344C442.824 55.6927 443.306 56.2422 443.692 56.8828C444.077 57.5182 444.343 58.224 444.488 59H442.488ZM453.358 54V70H451.42V54H453.358ZM459.888 55.7187V54H471.888V55.7187H466.857V70H464.919V55.7187H459.888ZM477.185 70H475.154L481.029 54H483.029L488.904 70H486.873L482.091 56.5312H481.966L477.185 70ZM477.935 63.75H486.123V65.4687H477.935V63.75ZM494.916 70V54H496.854V68.2812H504.291V70H494.916Z" fill="white"/>
<path d="M202.683 75.3679V73.7273H214.137V75.3679H209.334V89H207.485V75.3679H202.683ZM220.351 89V73.7273H225.512C226.705 73.7273 227.684 73.9311 228.45 74.3388C229.216 74.7415 229.782 75.2958 230.15 76.0018C230.518 76.7077 230.702 77.5107 230.702 78.4105C230.702 79.3104 230.518 80.1083 230.15 80.8043C229.782 81.5004 229.218 82.0472 228.458 82.445C227.697 82.8377 226.725 83.0341 225.542 83.0341H221.366V81.3636H225.482C226.297 81.3636 226.954 81.2443 227.451 81.0057C227.953 80.767 228.316 80.429 228.54 79.9915C228.768 79.549 228.883 79.022 228.883 78.4105C228.883 77.799 228.768 77.2646 228.54 76.8072C228.311 76.3498 227.945 75.9968 227.443 75.7482C226.941 75.4947 226.278 75.3679 225.452 75.3679H222.201V89H220.351ZM227.54 82.1392L231.299 89H229.151L225.452 82.1392H227.54ZM237.77 89H235.831L241.439 73.7273H243.349L248.956 89H247.018L242.454 76.1435H242.334L237.77 89ZM238.486 83.0341H246.302V84.6747H238.486V83.0341ZM266.806 73.7273V89H265.016L256.694 77.0085H256.545V89H254.695V73.7273H256.485L264.837 85.7486H264.987V73.7273H266.806ZM282.219 77.5455C282.13 76.7898 281.767 76.2031 281.13 75.7855C280.494 75.3679 279.714 75.1591 278.789 75.1591C278.113 75.1591 277.521 75.2685 277.014 75.4872C276.512 75.706 276.119 76.0067 275.836 76.3896C275.557 76.7724 275.418 77.2074 275.418 77.6946C275.418 78.1023 275.515 78.4528 275.709 78.7461C275.908 79.0344 276.161 79.2756 276.47 79.4695C276.778 79.6584 277.101 79.815 277.439 79.9393C277.777 80.0586 278.088 80.1555 278.371 80.2301L279.922 80.6477C280.32 80.7521 280.763 80.8963 281.25 81.0803C281.742 81.2642 282.212 81.5153 282.659 81.8335C283.112 82.1467 283.484 82.5494 283.778 83.0415C284.071 83.5337 284.218 84.1378 284.218 84.8537C284.218 85.679 284.002 86.4247 283.569 87.0909C283.141 87.7571 282.515 88.2866 281.69 88.6793C280.869 89.0721 279.873 89.2685 278.699 89.2685C277.606 89.2685 276.658 89.092 275.858 88.739C275.063 88.386 274.436 87.8938 273.979 87.2624C273.526 86.631 273.27 85.8977 273.211 85.0625H275.12C275.169 85.6392 275.363 86.1165 275.701 86.4943C276.044 86.8672 276.477 87.1456 276.999 87.3295C277.526 87.5085 278.093 87.598 278.699 87.598C279.405 87.598 280.039 87.4837 280.601 87.255C281.163 87.0213 281.608 86.6982 281.936 86.2855C282.264 85.8679 282.428 85.3807 282.428 84.8239C282.428 84.3168 282.286 83.9041 282.003 83.5859C281.72 83.2678 281.347 83.0092 280.884 82.8104C280.422 82.6115 279.922 82.4375 279.385 82.2884L277.506 81.7514C276.313 81.4084 275.368 80.9187 274.672 80.2823C273.976 79.646 273.628 78.8132 273.628 77.7841C273.628 76.929 273.859 76.1832 274.322 75.5469C274.789 74.9055 275.416 74.4084 276.201 74.0554C276.992 73.6974 277.874 73.5185 278.848 73.5185C279.833 73.5185 280.708 73.695 281.473 74.0479C282.239 74.396 282.846 74.8732 283.293 75.4798C283.745 76.0863 283.984 76.7749 284.009 77.5455H282.219ZM290.619 89V73.7273H299.776V75.3679H292.468V80.5284H299.09V82.169H292.468V89H290.619ZM319.19 81.3636C319.19 82.9744 318.899 84.3665 318.318 85.5398C317.736 86.7131 316.938 87.6179 315.924 88.2543C314.91 88.8906 313.751 89.2088 312.449 89.2088C311.146 89.2088 309.988 88.8906 308.973 88.2543C307.959 87.6179 307.161 86.7131 306.58 85.5398C305.998 84.3665 305.707 82.9744 305.707 81.3636C305.707 79.7528 305.998 78.3608 306.58 77.1875C307.161 76.0142 307.959 75.1094 308.973 74.473C309.988 73.8366 311.146 73.5185 312.449 73.5185C313.751 73.5185 314.91 73.8366 315.924 74.473C316.938 75.1094 317.736 76.0142 318.318 77.1875C318.899 78.3608 319.19 79.7528 319.19 81.3636ZM317.4 81.3636C317.4 80.0412 317.179 78.9251 316.737 78.0153C316.299 77.1055 315.705 76.4169 314.954 75.9496C314.209 75.4822 313.373 75.2486 312.449 75.2486C311.524 75.2486 310.686 75.4822 309.935 75.9496C309.19 76.4169 308.596 77.1055 308.153 78.0153C307.716 78.9251 307.497 80.0412 307.497 81.3636C307.497 82.6861 307.716 83.8022 308.153 84.712C308.596 85.6218 309.19 86.3104 309.935 86.7777C310.686 87.245 311.524 87.4787 312.449 87.4787C313.373 87.4787 314.209 87.245 314.954 86.7777C315.705 86.3104 316.299 85.6218 316.737 84.712C317.179 83.8022 317.4 82.6861 317.4 81.3636ZM325.66 89V73.7273H330.82C332.013 73.7273 332.993 73.9311 333.759 74.3388C334.524 74.7415 335.091 75.2958 335.459 76.0018C335.827 76.7077 336.011 77.5107 336.011 78.4105C336.011 79.3104 335.827 80.1083 335.459 80.8043C335.091 81.5004 334.527 82.0472 333.766 82.445C333.005 82.8377 332.033 83.0341 330.85 83.0341H326.674V81.3636H330.79C331.606 81.3636 332.262 81.2443 332.759 81.0057C333.261 80.767 333.624 80.429 333.848 79.9915C334.077 79.549 334.191 79.022 334.191 78.4105C334.191 77.799 334.077 77.2646 333.848 76.8072C333.619 76.3498 333.254 75.9968 332.752 75.7482C332.25 75.4947 331.586 75.3679 330.761 75.3679H327.509V89H325.66ZM332.849 82.1392L336.607 89H334.46L330.761 82.1392H332.849ZM342.452 73.7273H344.66L349.85 86.4048H350.029L355.219 73.7273H357.427V89H355.697V77.3963H355.548L350.775 89H349.104L344.332 77.3963H344.183V89H342.452V73.7273ZM365.121 89H363.183L368.791 73.7273H370.7L376.308 89H374.369L369.805 76.1435H369.685L365.121 89ZM365.837 83.0341H373.653V84.6747H365.837V83.0341ZM379.427 75.3679V73.7273H390.882V75.3679H386.079V89H384.23V75.3679H379.427ZM398.945 73.7273V89H397.096V73.7273H398.945ZM418.9 81.3636C418.9 82.9744 418.609 84.3665 418.027 85.5398C417.446 86.7131 416.648 87.6179 415.634 88.2543C414.619 88.8906 413.461 89.2088 412.158 89.2088C410.856 89.2088 409.697 88.8906 408.683 88.2543C407.669 87.6179 406.871 86.7131 406.289 85.5398C405.708 84.3665 405.417 82.9744 405.417 81.3636C405.417 79.7528 405.708 78.3608 406.289 77.1875C406.871 76.0142 407.669 75.1094 408.683 74.473C409.697 73.8366 410.856 73.5185 412.158 73.5185C413.461 73.5185 414.619 73.8366 415.634 74.473C416.648 75.1094 417.446 76.0142 418.027 77.1875C418.609 78.3608 418.9 79.7528 418.9 81.3636ZM417.11 81.3636C417.11 80.0412 416.889 78.9251 416.446 78.0153C416.009 77.1055 415.415 76.4169 414.664 75.9496C413.918 75.4822 413.083 75.2486 412.158 75.2486C411.234 75.2486 410.396 75.4822 409.645 75.9496C408.9 76.4169 408.305 77.1055 407.863 78.0153C407.425 78.9251 407.207 80.0412 407.207 81.3636C407.207 82.6861 407.425 83.8022 407.863 84.712C408.305 85.6218 408.9 86.3104 409.645 86.7777C410.396 87.245 411.234 87.4787 412.158 87.4787C413.083 87.4787 413.918 87.245 414.664 86.7777C415.415 86.3104 416.009 85.6218 416.446 84.712C416.889 83.8022 417.11 82.6861 417.11 81.3636ZM437.48 73.7273V89H435.691L427.368 77.0085H427.219V89H425.37V73.7273H427.159L435.512 85.7486H435.661V73.7273H437.48Z" fill="white"/>
</g>
<defs>
<clipPath id="clip0_56_824">
<rect width="520" height="102" fill="white"/>
</clipPath>
<clipPath id="clip1_56_824">
<rect width="93.457" height="93.457" fill="white" transform="translate(30.3789 4.16406)"/>
</clipPath>
</defs>
</svg>
