<svg width="4413" height="629" viewBox="0 0 4413 629" fill="none" xmlns="http://www.w3.org/2000/svg">
<path d="M517 536H457V521.463H471.5V517.954V504.419H469.5H455V519.458H443V504.419H441H429V502.414V488.378H416.5V486.373V474.843H432V488.378H441V497.401H449.5V488.378H457V487.375V472.337H471.5V457.799H455V472.337H432V457.799H447.5V439.753H432V455.794H416.5V439.753H400V457.799H414.5L415 472.337H400V473.339V477.35V486.373H389L389.5 461.308V401.656V373.082L391 369.072L393.5 364.56L395.5 361.051L397 357.542L401 353.532L404 350.023L407 347.015L411 344.509L415.5 342.504L422 341L480 341.501H575.5V346.013L576 369.072V411.18L575 434.239V456.296V470.332L575.5 486.373L575 507.928L574 513.442L571 517.954L566 523.969L563 526.977L560 529.483L556.5 531.488L554 532.992L550 534.997L545.5 536H537H530.5H517Z" fill="#39A62F"/>
<path d="M415 488.378H401V503.416H415V488.378Z" fill="#39A62F"/>
<path d="M428 505.422H415V520.46H428V505.422Z" fill="#39A62F"/>
<path d="M428 536V521.463H442.5L443 536H428Z" fill="#39A62F"/>
<path d="M377 218L385 228L474 317H575.5V207L488 120L486.5 118.5L483.5 117L480.5 115L477.5 112.5L475.5 110.5L474 109L470.5 106.5L466 103.5L465 104.5V106.5L464.5 109L462 108.5L459 107L456.5 105L453.5 102L449.5 99.5L445 97L442 94.5L439 92L435 89.5L431.5 87.5L428 85.5L423 83L417.5 79.5L412.5 76L409 74L403.5 73L400 75C399.667 76.1667 399 78.7 399 79.5C399 80.5 401.5 82.5 402 83L404.5 85.5L408.5 88L413 93L417.5 98C419.167 99.6667 422.8 103.2 424 104C425.2 104.8 425.5 106.333 425.5 107H422H420.5C419.667 106.667 417.9 105.9 417.5 105.5C417.1 105.1 415.333 103.667 414.5 103C413.167 102.333 410.4 100.9 410 100.5C409.5 100 406.5 99.5 406 99C405.5 98.5 403.5 98 403 97.5C402.5 97 399.5 95.5 399 95C398.6 94.6 397.5 94.1667 397 94L393 94.5L392.5 95.5C392.833 96.5 393.6 98.7 394 99.5C394.5 100.5 396.5 101.5 397 102C397.5 102.5 399 104.5 400 105.5C401 106.5 401 108.5 401 109C401 109.4 400.333 110.167 400 110.5L397 110L394 108.5L391 106.5L388.5 105L385 102.5L383.5 100L380 97L378 94.5L375 94L373.5 93.5C373.667 94.8333 374 97.6 374 98C374 98.4 375 99.8333 375.5 100.5C376.333 101.333 378 103.1 378 103.5C378 104 380.5 106 381 106.5C381.5 107 384 109.5 384.5 110.5C384.9 111.3 386.333 112.833 387 113.5V117L388 118L390 122.5C390.833 122.833 392.7 123.6 393.5 124C394.5 124.5 394.5 125 395 125.5C395.5 126 394.5 128 394.5 128.5C394.5 128.9 393.167 129 392.5 129L390 127.5C389.333 126.833 387.9 125.5 387.5 125.5C387.1 125.5 386.333 124.5 386 124L382.725 121.5C381.817 120.833 379.9 119.3 379.5 118.5C379.1 117.7 377.667 116.833 377 116.5L373 115L372 116.5L372.5 118.5L374.5 121.5L377 123.5L377.5 126L378.5 128.5L379 131.5C379.5 132 380.5 133.1 380.5 133.5C380.5 134 383 136.5 384 137C384.8 137.4 384.333 138.5 384 139L381.5 140L379.5 139L377 137L374.5 135L372 134.5L371 136V139.5L373.5 145L377 150L373.5 155L371 150H366.5L361 148H357.5L361 155L365 163.5L371 170L373.5 177L379.5 185L385 192L389.5 197.5L395 203V207H392.5L385 203L379.5 200.5H377H371L373.5 207V212.5L377 218Z" fill="#FF6707"/>
<path d="M599 400V340H683V345.5L682.5 351V360V371.5L683 377.5L683.5 381C683.667 381.833 684.1 383.8 684.5 385C685 386.5 686 386.5 687.5 388.5C689 390.5 689.5 391 690 391.5C690.5 392 692 394.5 692.5 395.5C692.9 396.3 694.333 397.167 695 397.5L697 399.5C697.833 400.167 699.6 401.5 700 401.5C700.4 401.5 702.167 402.833 703 403.5L705.5 405L709 406.5L711.5 407L715 407.5L725 408.5V359L830 464L725.5 568.5L723.5 518H698.5C696.5 517.833 692.4 517.5 692 517.5C691.6 517.5 687.5 517.167 685.5 517C683.5 516.667 679.3 515.9 678.5 515.5C677.5 515 674 514.5 673.5 514.5C673 514.5 670 513 669 513C668 513 665 511.5 664.5 511.5C664.1 511.5 661.667 510.5 660.5 510C659.333 509.667 656.8 508.9 656 508.5C655 508 654 507.5 653.5 507C653 506.5 650.5 506 649.5 506C648.5 506 646.5 504 645.5 503.5C644.5 503 642.5 501.5 641.5 501C640.7 500.6 638.167 498.167 637 497C635.833 496.5 633.4 495.4 633 495C632.5 494.5 629.5 491.5 628.5 491C627.5 490.5 626.5 488.5 625.5 487.5C624.5 486.5 623 484.5 622.5 484.5C622.1 484.5 619.333 480.833 618 479C617.833 478.5 617.4 477.5 617 477.5C616.5 477.5 616 475.5 615.5 475C615 474.5 614 473 613.5 472.5C613 472 612.5 470 612 469.5C611.6 469.1 610.833 468.667 610.5 468.5L608.5 466C608.167 465 607.5 462.9 607.5 462.5C607.5 462 606.5 460 606 459.5C605.6 459.1 604.833 457 604.5 456L604 453.5C603.667 452.5 603 450.4 603 450C603 449.6 602.333 448.167 602 447.5L600.5 443.5L600 440.5L599 436V432.5V428.5V400Z" fill="#FDAC10"/>
<path d="M389 375C389 356.222 404.222 341 423 341H576V435H389V375Z" fill="#39A62F"/>
<path d="M474 425H576V502C576 520.778 560.778 536 542 536H474V425Z" fill="#39A62F"/>
<rect x="389" y="429" width="11" height="56" fill="#39A62F"/>
<path d="M600 340H696V518H687C638.951 518 600 479.049 600 431V340Z" fill="#FDAC10"/>
<path d="M701.848 402.306C697.259 401.035 695.436 399.281 695.546 391.488L693.103 393.983L693.558 399.065L699.884 404.189L701.848 402.306Z" fill="#FDAC10"/>
<path d="M598 208V316H703.5L787 235L794.5 228L798.5 220.5L800.5 214L802.5 207.5L804 201L806 193.5V185V177.5V170.5V164.5V160.5L804 154L800.5 146.5L794.5 139L785 135.5H778.5V133.5V129.5L776.5 124L772.5 116.5L767.5 113.5L760.5 110L755 108L750 106H741.5H734H728H722L713.5 108L706 110L697.5 113.5L692 116.5L685.5 120.5L598 208Z" fill="#2596BE"/>
<path d="M670.146 135.802L689.047 117.254C712.699 94.0448 751.046 94.7697 774.256 118.421C779.671 123.94 779.672 132.889 774.153 138.305L722.419 189.072L670.146 135.802Z" fill="#2596BE"/>
<path d="M683 217.997L762.083 143.71C774.259 132.272 793.402 132.871 804.84 145.047C825.293 166.821 824.222 201.053 802.449 221.506L740.744 279.469L683 217.997Z" fill="#2596BE"/>
<path d="M701.333 412L726 406.5C723.297 406.565 720.797 406.552 718.493 406.433C701.277 405.549 694.916 398.801 695.435 375L689 385.5L690.609 403.5L701.333 412Z" fill="#FDAC10"/>
<path d="M726 406.769C710.807 406.315 703.241 404.615 693 396L704.948 410L726 408.923V406.769Z" fill="#FDAC10"/>
<path d="M704 316.5H598V208.5L623.5 183C617.563 281.849 647.607 297.488 730.5 290L704 316.5Z" fill="black" fill-opacity="0.2"/>
<path fill-rule="evenodd" clip-rule="evenodd" d="M716.568 150.052C717.242 150.076 717.777 150.638 717.764 151.313C717.751 151.987 717.198 152.512 716.524 152.488C714.261 152.402 712.522 152.973 711.303 154.197C710.895 154.609 710.537 155.092 710.228 155.662C710.217 155.686 710.207 155.703 710.192 155.724C709.574 156.898 709.166 158.394 708.979 160.223C708.91 160.896 708.308 161.371 707.641 161.29C706.967 161.208 706.482 160.598 706.548 159.928C706.624 159.192 706.733 158.495 706.873 157.845C706.007 158.141 705.088 158.305 704.1 158.341C701.928 158.419 699.483 157.856 696.758 156.652C696.138 156.377 695.851 155.651 696.118 155.039C696.381 154.423 697.103 154.148 697.723 154.422C700.095 155.471 702.177 155.967 703.97 155.905C705.595 155.847 706.995 155.319 708.163 154.326C708.561 153.621 709.03 153.002 709.565 152.466C711.276 150.746 713.609 149.941 716.568 150.052ZM755.255 221.487C756.039 221.228 756.642 220.675 756.983 219.983C757.321 219.295 757.391 218.473 757.122 217.68C756.849 216.89 756.287 216.278 755.592 215.928C754.898 215.578 754.076 215.494 753.287 215.75C752.842 215.896 752.456 216.138 752.141 216.446C752.123 216.47 752.099 216.495 752.077 216.515L752.056 216.536C751.858 216.751 751.691 216.991 751.563 217.25C751.225 217.938 751.155 218.76 751.424 219.553C751.696 220.342 752.259 220.955 752.953 221.304C753.644 221.658 754.466 221.742 755.255 221.487ZM759.172 221.092C759.783 219.847 759.916 218.36 759.423 216.926C758.93 215.493 757.907 214.387 756.652 213.754C755.398 213.12 753.908 212.962 752.484 213.43C752.056 213.573 751.66 213.763 751.299 213.988L728.951 191.087L737.078 183.156L749.546 195.932C749.439 196.099 749.34 196.274 749.254 196.448C748.643 197.693 748.51 199.18 749.003 200.614C749.492 202.043 750.519 203.153 751.77 203.783C753.025 204.416 754.514 204.574 755.939 204.106C757.363 203.638 758.451 202.633 759.059 201.392C759.67 200.148 759.803 198.66 759.31 197.227C758.818 195.793 757.794 194.688 756.539 194.054C755.285 193.421 753.795 193.262 752.371 193.731C751.979 193.86 751.611 194.029 751.271 194.234L738.811 181.466L746.595 173.87L768.982 196.81C768.9 196.946 768.825 197.082 768.754 197.222C768.143 198.467 768.01 199.954 768.503 201.388L768.503 201.395C768.996 202.821 770.016 203.93 771.27 204.563C772.525 205.197 774.014 205.355 775.439 204.887L775.446 204.887C776.863 204.419 777.954 203.418 778.566 202.173C779.178 200.929 779.31 199.441 778.817 198.008L778.814 198.004C778.325 196.574 777.301 195.469 776.046 194.835C774.792 194.202 773.302 194.044 771.878 194.512L771.874 194.515C771.44 194.658 771.044 194.847 770.675 195.08L748.331 172.176L762.694 158.159L772.294 167.996L769.088 171.125C768.919 171.016 768.743 170.913 768.566 170.825C767.312 170.191 765.822 170.033 764.398 170.501L764.394 170.505C762.973 170.97 761.886 171.975 761.274 173.219C760.662 174.463 760.53 175.951 761.023 177.384L761.023 177.391C761.515 178.818 762.535 179.927 763.79 180.56C765.044 181.194 766.534 181.352 767.958 180.884L767.965 180.884C769.386 180.419 770.474 179.414 771.086 178.17C771.697 176.925 771.83 175.438 771.337 174.005L771.334 174.001C771.197 173.606 771.022 173.242 770.811 172.899L774.889 168.912C775.368 168.446 775.37 167.669 774.896 167.182L764.43 156.465L770.57 150.473L770.574 150.477C772.427 148.669 774.824 147.737 777.25 147.692C779.675 147.648 782.13 148.49 784.111 150.23C786.103 151.98 787.356 154.263 787.463 156.854C787.558 159.021 786.864 161.429 785.174 163.971C783.429 163.246 781.542 162.914 779.592 163.099C778.921 163.163 778.442 163.757 778.514 164.425C778.589 165.098 779.191 165.587 779.859 165.527C782.645 165.264 785.3 166.354 787.436 168.231C789.175 169.758 790.57 171.796 791.426 174.057C792.283 176.317 792.596 178.799 792.181 181.209C791.644 184.302 789.893 187.306 786.495 189.622C786.084 189.903 785.677 190.153 785.278 190.381C785.154 190.452 785.027 190.52 784.896 190.592C783.349 188.631 781.418 186.723 779.073 184.944C778.53 184.53 777.764 184.63 777.363 185.162C776.959 185.698 777.072 186.466 777.611 186.877C780.062 188.743 782.021 190.744 783.521 192.784C783.546 192.824 783.578 192.863 783.606 192.899C786.307 196.618 787.501 200.449 787.436 203.82C787.397 205.864 786.889 207.725 785.973 209.267C785.071 210.781 783.767 211.997 782.112 212.767C778.533 214.437 773.312 214.07 766.939 210.367C766.579 210.155 766.124 210.128 765.735 210.338C765.144 210.655 764.933 211.395 765.263 211.988C768.816 218.458 769.052 223.689 767.299 227.223C766.488 228.859 765.244 230.136 763.705 230.997C762.141 231.876 760.269 232.338 758.224 232.327C754.853 232.31 751.048 231.019 747.4 228.231C747.365 228.202 747.33 228.173 747.291 228.147C745.287 226.597 743.335 224.59 741.529 222.094C741.129 221.542 740.367 221.413 739.821 221.804C739.276 222.196 739.161 222.956 739.561 223.508C741.286 225.892 743.147 227.87 745.065 229.467C744.991 229.596 744.92 229.722 744.845 229.844C744.611 230.235 744.348 230.639 744.057 231.043C741.637 234.41 738.563 236.158 735.429 236.668C733.013 237.063 730.557 236.736 728.332 235.86C726.107 234.983 724.125 233.561 722.652 231.768C720.834 229.558 719.817 226.786 720.124 223.805C720.197 223.136 719.712 222.525 719.041 222.448C718.371 222.363 717.772 222.841 717.703 223.507C717.498 225.488 717.76 227.386 718.386 229.133C715.739 230.808 713.265 231.435 711.073 231.244C708.447 231.02 706.185 229.616 704.498 227.462C702.91 225.43 702.198 222.993 702.341 220.63C702.48 218.263 703.473 215.957 705.287 214.187L711.448 208.174L721.91 218.895C722.385 219.381 723.162 219.398 723.64 218.931L727.714 214.955C728.049 215.17 728.416 215.354 728.803 215.504L728.81 215.504C730.228 216.028 731.718 215.932 732.981 215.354C734.236 214.777 735.267 213.714 735.77 212.301L735.77 212.294C736.27 210.885 736.151 209.389 735.549 208.119C734.946 206.849 733.866 205.799 732.445 205.272C731.027 204.748 729.537 204.844 728.275 205.421C727.016 206.002 725.984 207.065 725.482 208.477C724.982 209.887 725.1 211.383 725.703 212.653C725.791 212.835 725.885 213.01 725.991 213.181L722.784 216.31L713.188 206.47L727.215 192.781L749.598 215.718C749.513 215.858 749.435 215.997 749.363 216.144C748.752 217.389 748.619 218.876 749.112 220.31C749.605 221.743 750.628 222.849 751.883 223.482C753.137 224.116 754.627 224.274 756.051 223.806C757.472 223.341 758.563 222.333 759.172 221.092ZM767.094 178.573C767.14 178.557 767.186 178.54 767.235 178.527C767.988 178.256 768.565 177.714 768.893 177.05C769.22 176.386 769.297 175.593 769.056 174.822C769.039 174.775 769.021 174.729 769.007 174.679C768.86 174.288 768.643 173.937 768.375 173.649C768.358 173.631 768.337 173.616 768.322 173.602C768.305 173.584 768.287 173.566 768.277 173.548C768.048 173.328 767.787 173.139 767.506 172.999C766.836 172.66 766.042 172.569 765.275 172.797C765.229 172.813 765.183 172.83 765.134 172.843C764.377 173.11 763.8 173.652 763.476 174.32C763.149 174.984 763.072 175.777 763.313 176.548C763.33 176.595 763.348 176.641 763.362 176.691C763.645 177.449 764.197 178.036 764.867 178.375C765.533 178.717 766.327 178.808 767.094 178.573ZM734.019 149.841C733.977 149.847 733.938 149.849 733.896 149.849C732.239 149.966 730.582 149.472 728.919 148.364C728.296 147.945 727.658 147.434 727.018 146.82C726.525 146.351 726.504 145.577 726.961 145.095C727.421 144.611 728.195 144.602 728.684 145.068C729.201 145.562 729.726 145.986 730.247 146.336C731.395 147.102 732.502 147.464 733.572 147.419C734.226 147.196 734.873 147.023 735.509 146.888C736.308 146.488 737.109 145.862 737.916 145.01C738.597 144.297 739.281 143.41 739.974 142.362C740.339 141.801 741.095 141.654 741.662 142.03C742.23 142.405 742.389 143.164 742.024 143.725C741.289 144.844 740.533 145.813 739.764 146.634C740.562 146.714 741.345 146.872 742.114 147.1C744.826 147.909 747.337 149.631 749.644 152.264C750.094 152.775 750.045 153.548 749.546 153.986C749.043 154.427 748.27 154.365 747.823 153.858C745.833 151.585 743.71 150.11 741.456 149.438C739.83 148.956 738.111 148.881 736.305 149.221C735.708 149.487 735.107 149.673 734.496 149.769C734.337 149.812 734.178 149.826 734.019 149.841ZM720.837 165.329C720.617 164.685 720.955 163.997 721.591 163.791C722.231 163.582 722.925 163.932 723.142 164.572C723.837 166.603 724.173 168.344 724.161 169.791C724.148 171.472 723.67 172.79 722.731 173.756C721.806 174.7 720.484 175.238 718.771 175.361C717.111 175.482 715.043 175.22 712.567 174.568C711.915 174.395 711.511 173.726 711.672 173.076C711.833 172.426 712.495 172.034 713.148 172.207C715.356 172.789 717.156 173.025 718.55 172.923C719.666 172.841 720.483 172.543 720.983 172.028C721.472 171.529 721.718 170.761 721.725 169.734C721.733 168.565 721.438 167.1 720.837 165.329ZM700.244 177.754C700.211 177.082 700.729 176.514 701.403 176.496C702.078 176.471 702.651 177.002 702.681 177.678C702.862 181.4 701.948 184.043 699.952 185.612C699.367 186.07 698.695 186.43 697.939 186.683C698.235 186.879 698.506 187.086 698.752 187.31C700.385 188.806 700.83 190.836 699.974 194.197C699.806 194.847 699.14 195.229 698.491 195.053C697.839 194.873 697.446 194.201 697.611 193.555C698.205 191.222 698.008 189.915 697.118 189.095C696.073 188.137 694.034 187.537 691.216 186.789L691.209 186.789C690.546 186.662 690.103 186.018 690.218 185.356C690.334 184.695 690.971 184.263 691.634 184.39C694.774 185.006 697.038 184.767 698.419 183.68C699.779 182.621 700.382 180.645 700.244 177.754ZM774.574 202.584C774.62 202.567 774.666 202.551 774.716 202.538C775.469 202.267 776.046 201.725 776.373 201.061C776.701 200.397 776.777 199.604 776.537 198.832C776.519 198.786 776.502 198.74 776.488 198.69C776.208 197.929 775.652 197.345 774.983 197.006C774.313 196.667 773.519 196.576 772.752 196.804C772.706 196.821 772.66 196.837 772.611 196.851C772.19 197.001 771.829 197.233 771.531 197.524C771.51 197.551 771.482 197.579 771.457 197.603L771.432 197.628C771.241 197.835 771.078 198.072 770.957 198.324C770.629 198.988 770.552 199.781 770.793 200.552C770.811 200.599 770.828 200.645 770.842 200.695C771.125 201.453 771.678 202.04 772.347 202.379C773.013 202.721 773.811 202.815 774.574 202.584ZM733.449 211.497C733.464 211.448 733.481 211.403 733.499 211.357C733.749 210.6 733.674 209.8 733.352 209.122C733.019 208.42 732.421 207.842 731.638 207.55C730.852 207.262 730.029 207.312 729.332 207.633C728.636 207.954 728.069 208.542 727.79 209.321C727.516 210.102 727.58 210.927 727.913 211.629C728.046 211.914 728.229 212.18 728.443 212.414C728.461 212.432 728.482 212.446 728.499 212.464C728.517 212.482 728.535 212.5 728.545 212.518C728.83 212.796 729.168 213.022 729.56 213.175C729.609 213.19 729.655 213.209 729.701 213.227C730.462 213.49 731.261 213.429 731.932 213.119C732.608 212.811 733.164 212.247 733.449 211.497ZM755.145 201.79C755.933 201.535 756.535 200.975 756.873 200.286C757.211 199.598 757.281 198.776 757.009 197.987C756.74 197.194 756.173 196.585 755.479 196.235C754.785 195.885 753.962 195.801 753.174 196.056C752.753 196.192 752.389 196.414 752.088 196.694C752.07 196.711 752.056 196.732 752.038 196.749C752.021 196.767 752.003 196.784 751.985 196.794C751.769 197.019 751.584 197.277 751.449 197.556C751.111 198.245 751.041 199.066 751.31 199.859C751.579 200.653 752.149 201.265 752.843 201.615C753.534 201.961 754.353 202.049 755.145 201.79ZM683.919 193.784C682.18 196.39 681.493 198.847 681.63 201.043C681.79 203.674 683.138 205.969 685.25 207.708C687.242 209.346 689.662 210.117 692.027 210.032C694.397 209.951 696.727 209.014 698.541 207.244L763.817 143.551L763.813 143.548C765.666 141.74 766.656 139.366 766.76 136.942C766.864 134.518 766.082 132.044 764.391 130.021C762.69 127.986 760.438 126.679 757.851 126.508C755.687 126.36 753.263 126.995 750.68 128.622C751.362 130.384 751.648 132.279 751.415 134.224C751.335 134.893 750.73 135.357 750.063 135.269C749.392 135.177 748.918 134.564 748.994 133.898C749.326 131.119 748.301 128.438 746.476 126.256C744.993 124.481 742.989 123.037 740.75 122.125C738.512 121.213 736.038 120.84 733.618 121.196C730.513 121.657 727.467 123.335 725.069 126.675C724.778 127.078 724.518 127.479 724.28 127.873C724.206 127.995 724.135 128.121 724.06 128.25C725.982 129.844 727.843 131.821 729.564 134.209C729.965 134.762 729.846 135.525 729.304 135.913C728.759 136.304 727.993 136.172 727.596 135.623C725.791 133.128 723.838 131.12 721.835 129.57C721.796 129.545 721.757 129.512 721.722 129.483C718.071 126.691 714.269 125.404 710.898 125.387C708.853 125.376 706.981 125.838 705.417 126.717C703.881 127.582 702.634 128.855 701.823 130.491C700.067 134.028 700.306 139.256 703.852 145.718C704.056 146.083 704.072 146.539 703.851 146.922C703.521 147.505 702.775 147.698 702.19 147.354C695.813 143.647 690.586 143.28 687.01 144.946C685.355 145.717 684.048 146.929 683.149 148.447C682.233 149.988 681.725 151.85 681.686 153.893C681.621 157.264 682.818 161.1 685.516 164.815C685.544 164.851 685.573 164.886 685.597 164.926C687.097 166.966 689.057 168.967 691.508 170.834C692.05 171.248 692.16 172.013 691.756 172.548C691.351 173.083 690.588 173.18 690.046 172.767C687.705 170.984 685.773 169.075 684.223 167.118C684.092 167.19 683.965 167.258 683.841 167.329C683.445 167.554 683.034 167.807 682.624 168.088C679.198 170.425 677.376 173.456 676.789 176.576C676.335 178.982 676.602 181.445 677.424 183.691C678.245 185.936 679.619 187.953 681.375 189.469C683.54 191.34 686.286 192.425 689.274 192.191C689.945 192.134 690.544 192.634 690.605 193.306C690.673 193.979 690.184 194.569 689.513 194.618C687.545 194.764 685.654 194.456 683.919 193.784ZM679.197 201.158C679.404 204.518 681.081 207.42 683.718 209.583C686.193 211.616 689.201 212.572 692.157 212.468C695.109 212.367 698.004 211.202 700.258 209.003L765.534 145.303L765.537 145.307C767.84 143.059 769.072 140.105 769.203 137.085C769.334 134.064 768.36 130.975 766.261 128.463C764.134 125.915 761.284 124.284 757.976 124.063C755.389 123.893 752.544 124.593 749.579 126.409C749.214 125.816 748.796 125.245 748.339 124.699C746.602 122.622 744.257 120.927 741.63 119.866L741.627 119.862C739 118.794 736.089 118.355 733.217 118.779C729.505 119.327 725.889 121.306 723.079 125.217C722.767 125.648 722.468 126.108 722.181 126.586L722.085 126.75C718.306 124.16 714.395 122.952 710.871 122.935C708.403 122.922 706.117 123.493 704.196 124.572C702.243 125.669 700.663 127.288 699.635 129.361C697.871 132.905 697.734 137.768 700.135 143.567C694.393 141.022 689.531 141.044 685.945 142.72C683.848 143.697 682.19 145.238 681.046 147.163C679.917 149.061 679.294 151.329 679.246 153.796C679.177 157.319 680.29 161.259 682.786 165.1L682.62 165.192C682.132 165.464 681.668 165.755 681.229 166.056C677.233 168.78 675.102 172.366 674.404 176.074C673.864 178.923 674.182 181.836 675.151 184.48C676.119 187.124 677.738 189.506 679.808 191.294C680.406 191.808 681.037 192.276 681.703 192.682C679.785 195.658 679.037 198.535 679.197 201.158ZM719.444 231.358C716.426 233.198 713.535 233.88 710.916 233.655C707.563 233.366 704.703 231.619 702.604 228.93C700.633 226.406 699.75 223.375 699.927 220.423C700.1 217.475 701.335 214.608 703.588 212.409L768.854 148.713L768.85 148.709C771.153 146.462 774.137 145.302 777.16 145.245C780.182 145.188 783.246 146.238 785.706 148.397C788.202 150.586 789.763 153.475 789.903 156.787C790.01 159.378 789.241 162.205 787.352 165.124C787.937 165.504 788.497 165.936 789.032 166.406C791.066 168.193 792.703 170.579 793.699 173.231L793.703 173.234C794.707 175.886 795.074 178.807 794.58 181.668C793.942 185.366 791.878 188.936 787.9 191.649C787.461 191.951 786.994 192.238 786.509 192.514L786.343 192.606C788.84 196.447 789.952 200.386 789.883 203.909C789.835 206.377 789.209 208.649 788.083 210.543C786.939 212.468 785.282 214.008 783.184 214.985C779.598 216.662 774.733 216.68 768.994 214.138C771.399 219.941 771.258 224.801 769.494 228.345C768.467 230.417 766.886 232.037 764.933 233.133C763.009 234.216 760.726 234.783 758.258 234.77C754.735 234.753 750.824 233.545 747.044 230.956L746.948 231.12C746.664 231.601 746.362 232.057 746.05 232.489C743.229 236.417 739.593 238.46 735.869 239.067C733.008 239.537 730.103 239.148 727.484 238.115C724.864 237.082 722.522 235.405 720.786 233.293C720.287 232.682 719.837 232.037 719.444 231.358Z" fill="white"/>
<path d="M474 317.5H575.5V206.5L552.5 184.5C555.542 264.654 532.493 287.767 450 292.5L474 317.5Z" fill="black" fill-opacity="0.2"/>
<path d="M599 340H696C605.72 395.812 585.979 445.483 652 510.5C641.061 505.128 635.32 501.609 626.5 493.5C608.983 474.504 603.506 461.261 599 434.5V340Z" fill="black" fill-opacity="0.2"/>
<path d="M871.488 170.909H925.74L977.979 269.57H980.217L1032.46 170.909H1086.71L1003.15 319.013V400H955.048V319.013L871.488 170.909ZM1309.84 285.455C1309.84 310.437 1305.11 331.69 1295.64 349.215C1286.24 366.74 1273.41 380.126 1257.16 389.373C1240.97 398.546 1222.78 403.132 1202.57 403.132C1182.21 403.132 1163.94 398.509 1147.76 389.261C1131.57 380.014 1118.78 366.628 1109.39 349.103C1099.99 331.578 1095.29 310.362 1095.29 285.455C1095.29 260.472 1099.99 239.219 1109.39 221.694C1118.78 204.169 1131.57 190.82 1147.76 181.648C1163.94 172.401 1182.21 167.777 1202.57 167.777C1222.78 167.777 1240.97 172.401 1257.16 181.648C1273.41 190.82 1286.24 204.169 1295.64 221.694C1305.11 239.219 1309.84 260.472 1309.84 285.455ZM1260.74 285.455C1260.74 269.272 1258.31 255.625 1253.46 244.513C1248.69 233.402 1241.94 224.975 1233.22 219.233C1224.49 213.491 1214.28 210.62 1202.57 210.62C1190.86 210.62 1180.64 213.491 1171.92 219.233C1163.19 224.975 1156.41 233.402 1151.56 244.513C1146.79 255.625 1144.4 269.272 1144.4 285.455C1144.4 301.637 1146.79 315.284 1151.56 326.396C1156.41 337.507 1163.19 345.934 1171.92 351.676C1180.64 357.418 1190.86 360.289 1202.57 360.289C1214.28 360.289 1224.49 357.418 1233.22 351.676C1241.94 345.934 1248.69 337.507 1253.46 326.396C1258.31 315.284 1260.74 301.637 1260.74 285.455ZM1487.23 170.909H1535.66V319.684C1535.66 336.388 1531.67 351.005 1523.69 363.533C1515.79 376.062 1504.71 385.831 1490.47 392.841C1476.23 399.776 1459.63 403.244 1440.69 403.244C1421.68 403.244 1405.05 399.776 1390.8 392.841C1376.56 385.831 1365.48 376.062 1357.58 363.533C1349.67 351.005 1345.72 336.388 1345.72 319.684V170.909H1394.16V315.545C1394.16 324.27 1396.06 332.026 1399.86 338.812C1403.74 345.598 1409.18 350.93 1416.19 354.808C1423.2 358.686 1431.37 360.625 1440.69 360.625C1450.09 360.625 1458.25 358.686 1465.19 354.808C1472.2 350.93 1477.61 345.598 1481.41 338.812C1485.29 332.026 1487.23 324.27 1487.23 315.545V170.909ZM1575.51 400V170.909H1665.9C1683.2 170.909 1697.96 174.004 1710.19 180.194C1722.5 186.309 1731.86 194.996 1738.27 206.257C1744.76 217.443 1748 230.605 1748 245.744C1748 260.957 1744.72 274.045 1738.16 285.007C1731.59 295.895 1722.09 304.247 1709.63 310.064C1697.25 315.881 1682.26 318.789 1664.66 318.789H1604.15V279.862H1656.83C1666.08 279.862 1673.76 278.594 1679.88 276.058C1685.99 273.523 1690.54 269.719 1693.52 264.648C1696.58 259.577 1698.11 253.276 1698.11 245.744C1698.11 238.137 1696.58 231.724 1693.52 226.504C1690.54 221.284 1685.96 217.331 1679.77 214.647C1673.65 211.887 1665.93 210.508 1656.61 210.508H1623.95V400H1575.51ZM1699.23 295.746L1756.17 400H1702.7L1646.99 295.746H1699.23ZM1906.51 236.795C1905.61 227.772 1901.77 220.762 1894.99 215.765C1888.2 210.769 1878.99 208.271 1867.36 208.271C1859.45 208.271 1852.78 209.389 1847.33 211.626C1841.89 213.789 1837.71 216.809 1834.81 220.687C1831.97 224.565 1830.55 228.965 1830.55 233.887C1830.41 237.988 1831.26 241.568 1833.13 244.625C1835.07 247.683 1837.71 250.33 1841.07 252.567C1844.43 254.73 1848.3 256.632 1852.7 258.272C1857.1 259.838 1861.8 261.181 1866.8 262.299L1887.38 267.221C1897.37 269.458 1906.55 272.441 1914.9 276.17C1923.25 279.899 1930.48 284.485 1936.6 289.929C1942.71 295.373 1947.45 301.786 1950.8 309.169C1954.24 316.552 1955.99 325.016 1956.06 334.561C1955.99 348.581 1952.41 360.737 1945.32 371.028C1938.31 381.245 1928.17 389.187 1914.9 394.854C1901.7 400.447 1885.78 403.244 1867.13 403.244C1848.64 403.244 1832.53 400.41 1818.81 394.743C1805.16 389.075 1794.5 380.685 1786.82 369.574C1779.21 358.388 1775.22 344.554 1774.85 328.074H1821.72C1822.24 335.755 1824.44 342.168 1828.32 347.314C1832.27 352.385 1837.53 356.225 1844.09 358.835C1850.73 361.371 1858.22 362.638 1866.57 362.638C1874.78 362.638 1881.9 361.445 1887.94 359.059C1894.05 356.673 1898.79 353.354 1902.15 349.103C1905.5 344.853 1907.18 339.968 1907.18 334.45C1907.18 329.304 1905.65 324.979 1902.59 321.474C1899.61 317.969 1895.21 314.986 1889.39 312.525C1883.65 310.064 1876.6 307.827 1868.25 305.813L1843.31 299.549C1823.99 294.851 1808.74 287.505 1797.56 277.512C1786.37 267.52 1780.81 254.059 1780.89 237.131C1780.81 223.26 1784.51 211.142 1791.96 200.776C1799.49 190.41 1809.82 182.319 1822.95 176.502C1836.07 170.685 1850.99 167.777 1867.69 167.777C1884.7 167.777 1899.54 170.685 1912.21 176.502C1924.96 182.319 1934.88 190.41 1941.97 200.776C1949.05 211.142 1952.71 223.148 1952.93 236.795H1906.51ZM2199.16 285.455C2199.16 310.437 2194.43 331.69 2184.96 349.215C2175.56 366.74 2162.73 380.126 2146.48 389.373C2130.29 398.546 2112.1 403.132 2091.89 403.132C2071.53 403.132 2053.26 398.509 2037.08 389.261C2020.89 380.014 2008.11 366.628 1998.71 349.103C1989.31 331.578 1984.61 310.362 1984.61 285.455C1984.61 260.472 1989.31 239.219 1998.71 221.694C2008.11 204.169 2020.89 190.82 2037.08 181.648C2053.26 172.401 2071.53 167.777 2091.89 167.777C2112.1 167.777 2130.29 172.401 2146.48 181.648C2162.73 190.82 2175.56 204.169 2184.96 221.694C2194.43 239.219 2199.16 260.472 2199.16 285.455ZM2150.06 285.455C2150.06 269.272 2147.63 255.625 2142.79 244.513C2138.01 233.402 2131.26 224.975 2122.54 219.233C2113.81 213.491 2103.6 210.62 2091.89 210.62C2080.18 210.62 2069.96 213.491 2061.24 219.233C2052.51 224.975 2045.73 233.402 2040.88 244.513C2036.11 255.625 2033.72 269.272 2033.72 285.455C2033.72 301.637 2036.11 315.284 2040.88 326.396C2045.73 337.507 2052.51 345.934 2061.24 351.676C2069.96 357.418 2080.18 360.289 2091.89 360.289C2103.6 360.289 2113.81 357.418 2122.54 351.676C2131.26 345.934 2138.01 337.507 2142.79 326.396C2147.63 315.284 2150.06 301.637 2150.06 285.455ZM2235.04 400V170.909H2386.73V210.843H2283.48V265.431H2376.66V305.366H2283.48V400H2235.04ZM2410.58 210.843V170.909H2598.73V210.843H2528.59V400H2480.72V210.843H2410.58ZM2783.83 400H2702.62V170.909H2784.5C2807.55 170.909 2827.38 175.495 2844.01 184.668C2860.64 193.766 2873.43 206.854 2882.38 223.931C2891.4 241.009 2895.92 261.442 2895.92 285.231C2895.92 309.094 2891.4 329.602 2882.38 346.754C2873.43 363.906 2860.57 377.069 2843.79 386.241C2827.08 395.414 2807.1 400 2783.83 400ZM2751.06 358.5H2781.82C2796.14 358.5 2808.18 355.964 2817.95 350.893C2827.79 345.748 2835.18 337.805 2840.1 327.067C2845.09 316.254 2847.59 302.308 2847.59 285.231C2847.59 268.303 2845.09 254.469 2840.1 243.73C2835.18 232.992 2827.83 225.087 2818.06 220.016C2808.29 214.945 2796.25 212.409 2781.93 212.409H2751.06V358.5ZM2980.23 170.909V400H2931.8V170.909H2980.23ZM3171.99 244.961C3170.42 239.517 3168.22 234.707 3165.39 230.531C3162.56 226.28 3159.09 222.701 3154.99 219.792C3150.96 216.809 3146.34 214.535 3141.12 212.969C3135.97 211.403 3130.27 210.62 3124 210.62C3112.29 210.62 3102 213.528 3093.13 219.345C3084.33 225.162 3077.47 233.626 3072.54 244.737C3067.62 255.774 3065.16 269.272 3065.16 285.231C3065.16 301.19 3067.59 314.762 3072.43 325.948C3077.28 337.134 3084.14 345.673 3093.02 351.564C3101.89 357.381 3112.37 360.289 3124.45 360.289C3135.41 360.289 3144.77 358.35 3152.53 354.473C3160.36 350.52 3166.32 344.964 3170.42 337.805C3174.6 330.646 3176.69 322.182 3176.69 312.413L3186.53 313.867H3127.47V277.401H3223.33V306.261C3223.33 326.396 3219.08 343.697 3210.58 358.164C3202.08 372.557 3190.37 383.668 3175.46 391.499C3160.54 399.254 3143.46 403.132 3124.22 403.132C3102.75 403.132 3083.88 398.397 3067.62 388.926C3051.37 379.38 3038.69 365.845 3029.59 348.32C3020.57 330.721 3016.06 309.84 3016.06 285.678C3016.06 267.109 3018.74 250.554 3024.11 236.012C3029.55 221.396 3037.16 209.016 3046.93 198.874C3056.7 188.732 3068.07 181.014 3081.05 175.719C3094.02 170.424 3108.08 167.777 3123.22 167.777C3136.19 167.777 3148.27 169.679 3159.46 173.482C3170.65 177.211 3180.57 182.505 3189.22 189.366C3197.94 196.227 3205.06 204.393 3210.58 213.864C3216.1 223.26 3219.64 233.626 3221.21 244.961H3171.99ZM3308.15 170.909V400H3259.72V170.909H3308.15ZM3339.28 210.843V170.909H3527.43V210.843H3457.29V400H3409.41V210.843H3339.28ZM3569.91 400H3518L3597.09 170.909H3659.51L3738.48 400H3686.58L3629.19 223.26H3627.4L3569.91 400ZM3566.66 309.952H3689.26V347.761H3566.66V309.952ZM3766.05 400V170.909H3814.49V360.066H3912.7V400H3766.05Z" fill="white"/>
<path d="M924.395 463.928V456.818H974.031V463.928H953.22V523H945.206V463.928H924.395ZM1017.34 523V456.818H1057.28V463.928H1025.35V486.29H1055.21V493.399H1025.35V515.891H1057.8V523H1017.34ZM1155.92 477.5H1147.91C1147.43 475.195 1146.6 473.17 1145.42 471.425C1144.26 469.68 1142.83 468.215 1141.15 467.03C1139.5 465.823 1137.65 464.919 1135.63 464.315C1133.6 463.712 1131.49 463.411 1129.29 463.411C1125.29 463.411 1121.66 464.423 1118.4 466.448C1115.17 468.473 1112.6 471.457 1110.68 475.4C1108.79 479.342 1107.84 484.179 1107.84 489.909C1107.84 495.64 1108.79 500.476 1110.68 504.419C1112.6 508.361 1115.17 511.345 1118.4 513.37C1121.66 515.395 1125.29 516.408 1129.29 516.408C1131.49 516.408 1133.6 516.106 1135.63 515.503C1137.65 514.9 1139.5 514.006 1141.15 512.821C1142.83 511.614 1144.26 510.138 1145.42 508.393C1146.6 506.627 1147.43 504.602 1147.91 502.318H1155.92C1155.32 505.701 1154.22 508.727 1152.63 511.399C1151.03 514.07 1149.05 516.343 1146.68 518.217C1144.31 520.07 1141.65 521.481 1138.7 522.451C1135.77 523.42 1132.63 523.905 1129.29 523.905C1123.65 523.905 1118.63 522.526 1114.24 519.768C1109.84 517.011 1106.38 513.09 1103.86 508.006C1101.34 502.921 1100.08 496.889 1100.08 489.909C1100.08 482.929 1101.34 476.897 1103.86 471.812C1106.38 466.728 1109.84 462.807 1114.24 460.05C1118.63 457.292 1123.65 455.913 1129.29 455.913C1132.63 455.913 1135.77 456.398 1138.7 457.368C1141.65 458.337 1144.31 459.759 1146.68 461.633C1149.05 463.486 1151.03 465.748 1152.63 468.419C1154.22 471.069 1155.32 474.096 1155.92 477.5ZM1199.81 523V456.818H1207.83V486.29H1243.12V456.818H1251.13V523H1243.12V493.399H1207.83V523H1199.81ZM1350.59 456.818V523H1342.84L1306.77 471.037H1306.13V523H1298.11V456.818H1305.87L1342.06 508.911H1342.71V456.818H1350.59ZM1453.41 489.909C1453.41 496.889 1452.15 502.921 1449.63 508.006C1447.11 513.09 1443.65 517.011 1439.26 519.768C1434.86 522.526 1429.84 523.905 1424.2 523.905C1418.55 523.905 1413.53 522.526 1409.14 519.768C1404.74 517.011 1401.29 513.09 1398.77 508.006C1396.25 502.921 1394.99 496.889 1394.99 489.909C1394.99 482.929 1396.25 476.897 1398.77 471.812C1401.29 466.728 1404.74 462.807 1409.14 460.05C1413.53 457.292 1418.55 455.913 1424.2 455.913C1429.84 455.913 1434.86 457.292 1439.26 460.05C1443.65 462.807 1447.11 466.728 1449.63 471.812C1452.15 476.897 1453.41 482.929 1453.41 489.909ZM1445.66 489.909C1445.66 484.179 1444.7 479.342 1442.78 475.4C1440.88 471.457 1438.31 468.473 1435.06 466.448C1431.82 464.423 1428.21 463.411 1424.2 463.411C1420.19 463.411 1416.56 464.423 1413.31 466.448C1410.08 468.473 1407.5 471.457 1405.58 475.4C1403.69 479.342 1402.74 484.179 1402.74 489.909C1402.74 495.64 1403.69 500.476 1405.58 504.419C1407.5 508.361 1410.08 511.345 1413.31 513.37C1416.56 515.395 1420.19 516.408 1424.2 516.408C1428.21 516.408 1431.82 515.395 1435.06 513.37C1438.31 511.345 1440.88 508.361 1442.78 504.419C1444.7 500.476 1445.66 495.64 1445.66 489.909ZM1497.83 523V456.818H1505.84V515.891H1536.61V523H1497.83ZM1633.22 489.909C1633.22 496.889 1631.96 502.921 1629.44 508.006C1626.92 513.09 1623.46 517.011 1619.06 519.768C1614.67 522.526 1609.65 523.905 1604.01 523.905C1598.36 523.905 1593.34 522.526 1588.95 519.768C1584.55 517.011 1581.09 513.09 1578.57 508.006C1576.05 502.921 1574.79 496.889 1574.79 489.909C1574.79 482.929 1576.05 476.897 1578.57 471.812C1581.09 466.728 1584.55 462.807 1588.95 460.05C1593.34 457.292 1598.36 455.913 1604.01 455.913C1609.65 455.913 1614.67 457.292 1619.06 460.05C1623.46 462.807 1626.92 466.728 1629.44 471.812C1631.96 476.897 1633.22 482.929 1633.22 489.909ZM1625.46 489.909C1625.46 484.179 1624.5 479.342 1622.59 475.4C1620.69 471.457 1618.12 468.473 1614.86 466.448C1611.63 464.423 1608.01 463.411 1604.01 463.411C1600 463.411 1596.37 464.423 1593.11 466.448C1589.88 468.473 1587.31 471.457 1585.39 475.4C1583.5 479.342 1582.55 484.179 1582.55 489.909C1582.55 495.64 1583.5 500.476 1585.39 504.419C1587.31 508.361 1589.88 511.345 1593.11 513.37C1596.37 515.395 1600 516.408 1604.01 516.408C1608.01 516.408 1611.63 515.395 1614.86 513.37C1618.12 511.345 1620.69 508.361 1622.59 504.419C1624.5 500.476 1625.46 495.64 1625.46 489.909ZM1722.88 477.5C1722.16 475.324 1721.23 473.374 1720.06 471.651C1718.92 469.906 1717.55 468.419 1715.96 467.191C1714.39 465.963 1712.6 465.026 1710.6 464.38C1708.59 463.734 1706.39 463.411 1704 463.411C1700.08 463.411 1696.52 464.423 1693.31 466.448C1690.1 468.473 1687.54 471.457 1685.65 475.4C1683.75 479.342 1682.8 484.179 1682.8 489.909C1682.8 495.64 1683.76 500.476 1685.68 504.419C1687.6 508.361 1690.19 511.345 1693.47 513.37C1696.74 515.395 1700.43 516.408 1704.52 516.408C1708.31 516.408 1711.65 515.6 1714.54 513.984C1717.45 512.347 1719.71 510.042 1721.32 507.069C1722.96 504.074 1723.78 500.552 1723.78 496.501L1726.24 497.018H1706.33V489.909H1731.54V497.018C1731.54 502.469 1730.37 507.209 1728.05 511.237C1725.74 515.266 1722.55 518.39 1718.48 520.609C1714.43 522.806 1709.78 523.905 1704.52 523.905C1698.66 523.905 1693.51 522.526 1689.07 519.768C1684.66 517.011 1681.21 513.09 1678.73 508.006C1676.28 502.921 1675.05 496.889 1675.05 489.909C1675.05 484.674 1675.75 479.967 1677.15 475.787C1678.57 471.586 1680.57 468.01 1683.16 465.059C1685.74 462.107 1688.8 459.845 1692.34 458.272C1695.87 456.7 1699.76 455.913 1704 455.913C1707.49 455.913 1710.75 456.441 1713.76 457.497C1716.8 458.531 1719.5 460.007 1721.87 461.924C1724.26 463.82 1726.26 466.093 1727.85 468.743C1729.45 471.371 1730.54 474.29 1731.15 477.5H1722.88ZM1768.47 456.818H1777.65L1796 487.712H1796.78L1815.13 456.818H1824.31L1800.4 495.726V523H1792.38V495.726L1768.47 456.818ZM1939.86 523.905C1935.51 523.905 1931.76 523.108 1928.61 521.513C1925.47 519.919 1923.04 517.733 1921.34 514.953C1919.64 512.174 1918.79 508.997 1918.79 505.42C1918.79 502.663 1919.37 500.218 1920.53 498.085C1921.72 495.931 1923.35 493.938 1925.41 492.107C1927.5 490.254 1929.91 488.401 1932.62 486.548L1942.19 479.439C1944.06 478.211 1945.56 476.897 1946.68 475.496C1947.82 474.096 1948.39 472.265 1948.39 470.003C1948.39 468.322 1947.65 466.696 1946.16 465.123C1944.7 463.551 1942.77 462.764 1940.38 462.764C1938.7 462.764 1937.21 463.195 1935.92 464.057C1934.65 464.897 1933.64 465.974 1932.91 467.288C1932.2 468.581 1931.84 469.917 1931.84 471.295C1931.84 472.847 1932.26 474.419 1933.11 476.013C1933.97 477.586 1935.05 479.202 1936.37 480.861C1937.7 482.498 1939.08 484.179 1940.51 485.902L1970.88 523H1961.7L1936.63 492.753C1934.3 489.952 1932.19 487.41 1930.29 485.126C1928.4 482.843 1926.89 480.591 1925.77 478.373C1924.65 476.154 1924.09 473.751 1924.09 471.166C1924.09 468.193 1924.75 465.586 1926.06 463.346C1927.4 461.084 1929.26 459.328 1931.65 458.078C1934.06 456.807 1936.89 456.172 1940.12 456.172C1943.44 456.172 1946.29 456.818 1948.68 458.111C1951.07 459.382 1952.91 461.073 1954.21 463.184C1955.5 465.274 1956.15 467.547 1956.15 470.003C1956.15 473.17 1955.36 475.917 1953.79 478.243C1952.21 480.57 1950.07 482.735 1947.36 484.739L1934.17 494.562C1931.2 496.76 1929.18 498.893 1928.13 500.961C1927.07 503.029 1926.55 504.516 1926.55 505.42C1926.55 507.489 1927.08 509.417 1928.16 511.205C1929.24 512.993 1930.76 514.436 1932.72 515.535C1934.68 516.634 1936.97 517.183 1939.6 517.183C1942.1 517.183 1944.53 516.655 1946.9 515.6C1949.27 514.523 1951.42 512.971 1953.33 510.946C1955.27 508.921 1956.8 506.487 1957.92 503.643C1959.07 500.799 1959.64 497.6 1959.64 494.045H1967C1967 498.44 1966.5 502.027 1965.49 504.806C1964.47 507.586 1963.33 509.761 1962.06 511.334C1960.79 512.907 1959.77 514.081 1958.99 514.857C1958.73 515.18 1958.49 515.503 1958.28 515.826C1958.06 516.149 1957.83 516.472 1957.57 516.795C1955.43 519.187 1952.74 520.975 1949.49 522.16C1946.24 523.323 1943.03 523.905 1939.86 523.905ZM2088.26 523H2067.83V456.818H2089.16C2095.58 456.818 2101.07 458.143 2105.64 460.793C2110.21 463.421 2113.71 467.202 2116.14 472.136C2118.58 477.048 2119.79 482.929 2119.79 489.78C2119.79 496.674 2118.57 502.609 2116.11 507.586C2113.65 512.541 2110.08 516.354 2105.38 519.025C2100.69 521.675 2094.98 523 2088.26 523ZM2075.85 515.891H2087.74C2093.21 515.891 2097.75 514.835 2101.34 512.724C2104.94 510.612 2107.62 507.607 2109.39 503.708C2111.16 499.808 2112.04 495.166 2112.04 489.78C2112.04 484.437 2111.17 479.837 2109.42 475.981C2107.68 472.103 2105.07 469.13 2101.6 467.062C2098.13 464.972 2093.81 463.928 2088.64 463.928H2075.85V515.891ZM2172.19 456.818V523H2164.18V456.818H2172.19ZM2264.44 477.5C2263.73 475.324 2262.79 473.374 2261.63 471.651C2260.49 469.906 2259.12 468.419 2257.53 467.191C2255.95 465.963 2254.17 465.026 2252.16 464.38C2250.16 463.734 2247.96 463.411 2245.57 463.411C2241.65 463.411 2238.08 464.423 2234.87 466.448C2231.66 468.473 2229.11 471.457 2227.22 475.4C2225.32 479.342 2224.37 484.179 2224.37 489.909C2224.37 495.64 2225.33 500.476 2227.25 504.419C2229.16 508.361 2231.76 511.345 2235.04 513.37C2238.31 515.395 2241.99 516.408 2246.09 516.408C2249.88 516.408 2253.22 515.6 2256.11 513.984C2259.01 512.347 2261.28 510.042 2262.89 507.069C2264.53 504.074 2265.35 500.552 2265.35 496.501L2267.8 497.018H2247.9V489.909H2273.1V497.018C2273.1 502.469 2271.94 507.209 2269.61 511.237C2267.31 515.266 2264.12 518.39 2260.05 520.609C2256 522.806 2251.34 523.905 2246.09 523.905C2240.23 523.905 2235.08 522.526 2230.64 519.768C2226.22 517.011 2222.78 513.09 2220.3 508.006C2217.84 502.921 2216.62 496.889 2216.62 489.909C2216.62 484.674 2217.32 479.967 2218.72 475.787C2220.14 471.586 2222.14 468.01 2224.73 465.059C2227.31 462.107 2230.37 459.845 2233.9 458.272C2237.44 456.7 2241.33 455.913 2245.57 455.913C2249.06 455.913 2252.31 456.441 2255.33 457.497C2258.37 458.531 2261.07 460.007 2263.44 461.924C2265.83 463.82 2267.82 466.093 2269.42 468.743C2271.01 471.371 2272.11 474.29 2272.72 477.5H2264.44ZM2325.78 456.818V523H2317.77V456.818H2325.78ZM2369.17 463.928V456.818H2418.81V463.928H2398V523H2389.98V463.928H2369.17ZM2457.1 523H2448.7L2473 456.818H2481.27L2505.57 523H2497.17L2477.39 467.288H2476.88L2457.1 523ZM2460.2 497.148H2494.07V504.257H2460.2V497.148ZM2546.82 523V456.818H2554.84V515.891H2585.6V523H2546.82ZM2681.86 463.928V456.818H2731.5V463.928H2710.69V523H2702.68V463.928H2681.86ZM2774.81 523V456.818H2797.17C2802.34 456.818 2806.59 457.701 2809.9 459.468C2813.22 461.213 2815.68 463.615 2817.27 466.674C2818.87 469.734 2819.66 473.213 2819.66 477.112C2819.66 481.012 2818.87 484.469 2817.27 487.485C2815.68 490.502 2813.23 492.871 2809.94 494.595C2806.64 496.297 2802.43 497.148 2797.3 497.148H2779.2V489.909H2797.04C2800.58 489.909 2803.42 489.392 2805.57 488.358C2807.75 487.324 2809.32 485.859 2810.29 483.963C2811.28 482.046 2811.78 479.762 2811.78 477.112C2811.78 474.462 2811.28 472.146 2810.29 470.164C2809.3 468.182 2807.72 466.653 2805.54 465.576C2803.37 464.477 2800.49 463.928 2796.91 463.928H2782.82V523H2774.81ZM2805.96 493.27L2822.25 523H2812.94L2796.91 493.27H2805.96ZM2866.67 523H2858.27L2882.57 456.818H2890.84L2915.14 523H2906.74L2886.97 467.288H2886.45L2866.67 523ZM2869.77 497.148H2903.64V504.257H2869.77V497.148ZM3008.87 456.818V523H3001.12L2965.05 471.037H2964.41V523H2956.39V456.818H2964.15L3000.34 508.911H3000.99V456.818H3008.87ZM3092.04 473.364C3091.66 470.089 3090.08 467.547 3087.33 465.737C3084.57 463.928 3081.19 463.023 3077.18 463.023C3074.25 463.023 3071.68 463.497 3069.49 464.445C3067.31 465.393 3065.61 466.696 3064.38 468.355C3063.17 470.014 3062.57 471.899 3062.57 474.01C3062.57 475.777 3062.99 477.295 3063.83 478.566C3064.69 479.816 3065.79 480.861 3067.13 481.701C3068.46 482.52 3069.86 483.198 3071.33 483.737C3072.79 484.254 3074.14 484.674 3075.37 484.997L3082.09 486.807C3083.81 487.259 3085.73 487.884 3087.84 488.681C3089.98 489.478 3092.01 490.566 3093.95 491.945C3095.91 493.302 3097.53 495.047 3098.8 497.18C3100.07 499.313 3100.7 501.93 3100.7 505.033C3100.7 508.609 3099.77 511.84 3097.89 514.727C3096.04 517.614 3093.33 519.908 3089.75 521.61C3086.19 523.312 3081.87 524.163 3076.79 524.163C3072.05 524.163 3067.95 523.399 3064.48 521.869C3061.03 520.339 3058.32 518.207 3056.33 515.471C3054.37 512.734 3053.26 509.557 3053.01 505.938H3061.28C3061.49 508.437 3062.33 510.505 3063.8 512.142C3065.29 513.758 3067.16 514.964 3069.42 515.761C3071.71 516.537 3074.16 516.925 3076.79 516.925C3079.85 516.925 3082.6 516.429 3085.03 515.438C3087.47 514.426 3089.39 513.025 3090.82 511.237C3092.24 509.428 3092.95 507.316 3092.95 504.903C3092.95 502.706 3092.33 500.918 3091.11 499.539C3089.88 498.16 3088.26 497.04 3086.26 496.178C3084.26 495.317 3082.09 494.562 3079.76 493.916L3071.62 491.589C3066.45 490.103 3062.36 487.981 3059.34 485.223C3056.32 482.466 3054.82 478.857 3054.82 474.398C3054.82 470.692 3055.82 467.461 3057.82 464.703C3059.85 461.924 3062.56 459.77 3065.96 458.24C3069.39 456.689 3073.21 455.913 3077.44 455.913C3081.7 455.913 3085.49 456.678 3088.81 458.208C3092.13 459.716 3094.76 461.784 3096.7 464.412C3098.66 467.041 3099.69 470.024 3099.8 473.364H3092.04ZM3144.82 523V456.818H3184.5V463.928H3152.83V486.29H3181.53V493.399H3152.83V523H3144.82ZM3285.01 489.909C3285.01 496.889 3283.75 502.921 3281.23 508.006C3278.71 513.09 3275.25 517.011 3270.86 519.768C3266.46 522.526 3261.44 523.905 3255.8 523.905C3250.15 523.905 3245.13 522.526 3240.74 519.768C3236.34 517.011 3232.89 513.09 3230.37 508.006C3227.84 502.921 3226.58 496.889 3226.58 489.909C3226.58 482.929 3227.84 476.897 3230.37 471.812C3232.89 466.728 3236.34 462.807 3240.74 460.05C3245.13 457.292 3250.15 455.913 3255.8 455.913C3261.44 455.913 3266.46 457.292 3270.86 460.05C3275.25 462.807 3278.71 466.728 3281.23 471.812C3283.75 476.897 3285.01 482.929 3285.01 489.909ZM3277.25 489.909C3277.25 484.179 3276.3 479.342 3274.38 475.4C3272.48 471.457 3269.91 468.473 3266.66 466.448C3263.42 464.423 3259.8 463.411 3255.8 463.411C3251.79 463.411 3248.16 464.423 3244.91 466.448C3241.68 468.473 3239.1 471.457 3237.18 475.4C3235.29 479.342 3234.34 484.179 3234.34 489.909C3234.34 495.64 3235.29 500.476 3237.18 504.419C3239.1 508.361 3241.68 511.345 3244.91 513.37C3248.16 515.395 3251.79 516.408 3255.8 516.408C3259.8 516.408 3263.42 515.395 3266.66 513.37C3269.91 511.345 3272.48 508.361 3274.38 504.419C3276.3 500.476 3277.25 495.64 3277.25 489.909ZM3329.43 523V456.818H3351.79C3356.96 456.818 3361.2 457.701 3364.52 459.468C3367.84 461.213 3370.29 463.615 3371.89 466.674C3373.48 469.734 3374.28 473.213 3374.28 477.112C3374.28 481.012 3373.48 484.469 3371.89 487.485C3370.29 490.502 3367.85 492.871 3364.55 494.595C3361.26 496.297 3357.04 497.148 3351.92 497.148H3333.82V489.909H3351.66C3355.19 489.909 3358.04 489.392 3360.19 488.358C3362.37 487.324 3363.94 485.859 3364.91 483.963C3365.9 482.046 3366.39 479.762 3366.39 477.112C3366.39 474.462 3365.9 472.146 3364.91 470.164C3363.92 468.182 3362.33 466.653 3360.16 465.576C3357.98 464.477 3355.11 463.928 3351.53 463.928H3337.44V523H3329.43ZM3360.58 493.27L3376.86 523H3367.56L3351.53 493.27H3360.58ZM3418.57 456.818H3428.14L3450.63 511.754H3451.41L3473.9 456.818H3483.46V523H3475.97V472.717H3475.32L3454.64 523H3447.4L3426.72 472.717H3426.07V523H3418.57V456.818ZM3533.19 523H3524.78L3549.09 456.818H3557.36L3581.66 523H3573.26L3553.48 467.288H3552.96L3533.19 523ZM3536.29 497.148H3570.16V504.257H3536.29V497.148ZM3611.56 463.928V456.818H3661.19V463.928H3640.38V523H3632.37V463.928H3611.56ZM3712.52 456.818V523H3704.5V456.818H3712.52ZM3815.37 489.909C3815.37 496.889 3814.11 502.921 3811.59 508.006C3809.06 513.09 3805.61 517.011 3801.21 519.768C3796.82 522.526 3791.8 523.905 3786.15 523.905C3780.51 523.905 3775.49 522.526 3771.09 519.768C3766.7 517.011 3763.24 513.09 3760.72 508.006C3758.2 502.921 3756.94 496.889 3756.94 489.909C3756.94 482.929 3758.2 476.897 3760.72 471.812C3763.24 466.728 3766.7 462.807 3771.09 460.05C3775.49 457.292 3780.51 455.913 3786.15 455.913C3791.8 455.913 3796.82 457.292 3801.21 460.05C3805.61 462.807 3809.06 466.728 3811.59 471.812C3814.11 476.897 3815.37 482.929 3815.37 489.909ZM3807.61 489.909C3807.61 484.179 3806.65 479.342 3804.73 475.4C3802.84 471.457 3800.26 468.473 3797.01 466.448C3793.78 464.423 3790.16 463.411 3786.15 463.411C3782.15 463.411 3778.52 464.423 3775.26 466.448C3772.03 468.473 3769.46 471.457 3767.54 475.4C3765.64 479.342 3764.7 484.179 3764.7 489.909C3764.7 495.64 3765.64 500.476 3767.54 504.419C3769.46 508.361 3772.03 511.345 3775.26 513.37C3778.52 515.395 3782.15 516.408 3786.15 516.408C3790.16 516.408 3793.78 515.395 3797.01 513.37C3800.26 511.345 3802.84 508.361 3804.73 504.419C3806.65 500.476 3807.61 495.64 3807.61 489.909ZM3912.26 456.818V523H3904.51L3868.44 471.037H3867.8V523H3859.78V456.818H3867.54L3903.73 508.911H3904.38V456.818H3912.26Z" fill="white"/>
</svg>
