<svg width="3000" height="700" viewBox="0 0 3000 700" fill="none" xmlns="http://www.w3.org/2000/svg">
<g clip-path="url(#clip0_25_5)">
<path d="M1090.54 257.909H1120.17L1148.69 311.781H1149.91L1178.44 257.909H1208.06L1162.43 338.778V383H1136.17V338.778L1090.54 257.909ZM1329.9 320.455C1329.9 334.096 1327.31 345.701 1322.14 355.27C1317.01 364.839 1310.01 372.148 1301.13 377.197C1292.29 382.206 1282.36 384.71 1271.32 384.71C1260.21 384.71 1250.23 382.186 1241.39 377.136C1232.56 372.087 1225.57 364.778 1220.44 355.209C1215.31 345.64 1212.75 334.055 1212.75 320.455C1212.75 306.813 1215.31 295.208 1220.44 285.639C1225.57 276.07 1232.56 268.781 1241.39 263.773C1250.23 258.723 1260.21 256.199 1271.32 256.199C1282.36 256.199 1292.29 258.723 1301.13 263.773C1310.01 268.781 1317.01 276.07 1322.14 285.639C1327.31 295.208 1329.9 306.813 1329.9 320.455ZM1303.08 320.455C1303.08 311.618 1301.76 304.167 1299.11 298.099C1296.51 292.032 1292.82 287.431 1288.06 284.295C1283.29 281.16 1277.72 279.592 1271.32 279.592C1264.93 279.592 1259.35 281.16 1254.59 284.295C1249.82 287.431 1246.12 292.032 1243.47 298.099C1240.86 304.167 1239.56 311.618 1239.56 320.455C1239.56 329.291 1240.86 336.742 1243.47 342.81C1246.12 348.877 1249.82 353.478 1254.59 356.614C1259.35 359.749 1264.93 361.317 1271.32 361.317C1277.72 361.317 1283.29 359.749 1288.06 356.614C1292.82 353.478 1296.51 348.877 1299.11 342.81C1301.76 336.742 1303.08 329.291 1303.08 320.455ZM1426.75 257.909H1453.2V339.145C1453.2 348.266 1451.02 356.247 1446.67 363.088C1442.35 369.929 1436.3 375.263 1428.53 379.091C1420.75 382.878 1411.69 384.771 1401.35 384.771C1390.96 384.771 1381.88 382.878 1374.1 379.091C1366.33 375.263 1360.28 369.929 1355.96 363.088C1351.65 356.247 1349.49 348.266 1349.49 339.145V257.909H1375.94V336.885C1375.94 341.649 1376.98 345.884 1379.05 349.589C1381.17 353.295 1384.14 356.206 1387.97 358.324C1391.8 360.441 1396.26 361.5 1401.35 361.5C1406.48 361.5 1410.94 360.441 1414.72 358.324C1418.55 356.206 1421.5 353.295 1423.58 349.589C1425.7 345.884 1426.75 341.649 1426.75 336.885V257.909ZM1474.96 383V257.909H1524.31C1533.76 257.909 1541.82 259.599 1548.5 262.979C1555.22 266.318 1560.33 271.062 1563.83 277.21C1567.38 283.318 1569.15 290.505 1569.15 298.771C1569.15 307.078 1567.36 314.224 1563.77 320.21C1560.19 326.155 1555 330.716 1548.2 333.892C1541.44 337.068 1533.25 338.656 1523.64 338.656H1490.6V317.401H1519.37C1524.42 317.401 1528.61 316.708 1531.95 315.324C1535.29 313.939 1537.77 311.863 1539.4 309.094C1541.07 306.325 1541.91 302.884 1541.91 298.771C1541.91 294.618 1541.07 291.116 1539.4 288.266C1537.77 285.415 1535.27 283.257 1531.89 281.791C1528.55 280.285 1524.33 279.531 1519.24 279.531H1501.41V383H1474.96ZM1542.52 326.074L1573.61 383H1544.41L1513.99 326.074H1542.52ZM1655.7 293.885C1655.21 288.958 1653.11 285.13 1649.41 282.402C1645.7 279.674 1640.67 278.31 1634.32 278.31C1630 278.31 1626.36 278.92 1623.39 280.142C1620.41 281.323 1618.13 282.972 1616.54 285.089C1615 287.207 1614.22 289.609 1614.22 292.297C1614.14 294.536 1614.61 296.491 1615.63 298.161C1616.69 299.83 1618.13 301.276 1619.96 302.497C1621.8 303.678 1623.91 304.716 1626.32 305.612C1628.72 306.467 1631.28 307.2 1634.01 307.811L1645.25 310.499C1650.71 311.72 1655.72 313.349 1660.28 315.385C1664.84 317.421 1668.79 319.925 1672.13 322.898C1675.47 325.87 1678.05 329.372 1679.88 333.403C1681.76 337.435 1682.71 342.056 1682.75 347.268C1682.71 354.924 1680.76 361.561 1676.89 367.18C1673.06 372.759 1667.53 377.096 1660.28 380.19C1653.07 383.244 1644.38 384.771 1634.2 384.771C1624.1 384.771 1615.3 383.224 1607.81 380.129C1600.36 377.035 1594.54 372.454 1590.34 366.386C1586.19 360.278 1584.01 352.725 1583.81 343.726H1609.4C1609.68 347.92 1610.88 351.422 1613 354.232C1615.16 357 1618.03 359.098 1621.61 360.523C1625.24 361.907 1629.33 362.599 1633.89 362.599C1638.37 362.599 1642.26 361.948 1645.56 360.645C1648.9 359.342 1651.48 357.53 1653.31 355.209C1655.15 352.888 1656.06 350.221 1656.06 347.207C1656.06 344.398 1655.23 342.036 1653.56 340.122C1651.93 338.208 1649.53 336.58 1646.35 335.236C1643.22 333.892 1639.37 332.67 1634.81 331.571L1621.19 328.151C1610.64 325.585 1602.31 321.574 1596.2 316.118C1590.1 310.661 1587.06 303.312 1587.1 294.068C1587.06 286.494 1589.08 279.877 1593.15 274.217C1597.26 268.557 1602.9 264.139 1610.07 260.963C1617.24 257.787 1625.38 256.199 1634.5 256.199C1643.79 256.199 1651.89 257.787 1658.81 260.963C1665.77 264.139 1671.19 268.557 1675.06 274.217C1678.93 279.877 1680.92 286.433 1681.04 293.885H1655.7ZM1815.5 320.455C1815.5 334.096 1812.91 345.701 1807.74 355.27C1802.61 364.839 1795.6 372.148 1786.73 377.197C1777.89 382.206 1767.96 384.71 1756.92 384.71C1745.8 384.71 1735.83 382.186 1726.99 377.136C1718.16 372.087 1711.17 364.778 1706.04 355.209C1700.91 345.64 1698.35 334.055 1698.35 320.455C1698.35 306.813 1700.91 295.208 1706.04 285.639C1711.17 276.07 1718.16 268.781 1726.99 263.773C1735.83 258.723 1745.8 256.199 1756.92 256.199C1767.96 256.199 1777.89 258.723 1786.73 263.773C1795.6 268.781 1802.61 276.07 1807.74 285.639C1812.91 295.208 1815.5 306.813 1815.5 320.455ZM1788.68 320.455C1788.68 311.618 1787.36 304.167 1784.71 298.099C1782.11 292.032 1778.42 287.431 1773.66 284.295C1768.89 281.16 1763.31 279.592 1756.92 279.592C1750.53 279.592 1744.95 281.16 1740.18 284.295C1735.42 287.431 1731.71 292.032 1729.07 298.099C1726.46 304.167 1725.16 311.618 1725.16 320.455C1725.16 329.291 1726.46 336.742 1729.07 342.81C1731.71 348.877 1735.42 353.478 1740.18 356.614C1744.95 359.749 1750.53 361.317 1756.92 361.317C1763.31 361.317 1768.89 359.749 1773.66 356.614C1778.42 353.478 1782.11 348.877 1784.71 342.81C1787.36 336.742 1788.68 329.291 1788.68 320.455ZM1835.09 383V257.909H1917.91V279.714H1861.53V309.521H1912.41V331.327H1861.53V383H1835.09ZM1930.94 279.714V257.909H2033.67V279.714H1995.38V383H1969.23V279.714H1930.94ZM2134.74 383H2090.4V257.909H2135.11C2147.69 257.909 2158.52 260.413 2167.6 265.422C2176.68 270.39 2183.67 277.536 2188.55 286.861C2193.48 296.186 2195.94 307.343 2195.94 320.332C2195.94 333.363 2193.48 344.561 2188.55 353.926C2183.67 363.292 2176.64 370.479 2167.48 375.487C2158.36 380.496 2147.45 383 2134.74 383ZM2116.85 360.339H2133.64C2141.46 360.339 2148.04 358.955 2153.37 356.186C2158.75 353.376 2162.78 349.04 2165.47 343.176C2168.19 337.272 2169.56 329.657 2169.56 320.332C2169.56 311.089 2168.19 303.536 2165.47 297.672C2162.78 291.808 2158.77 287.492 2153.43 284.723C2148.1 281.954 2141.52 280.57 2133.7 280.57H2116.85V360.339ZM2241.98 257.909V383H2215.54V257.909H2241.98ZM2346.69 298.344C2345.83 295.371 2344.63 292.745 2343.09 290.464C2341.54 288.143 2339.64 286.189 2337.41 284.601C2335.21 282.972 2332.68 281.73 2329.83 280.875C2327.02 280.02 2323.91 279.592 2320.49 279.592C2314.09 279.592 2308.47 281.18 2303.63 284.357C2298.82 287.533 2295.08 292.154 2292.39 298.222C2289.7 304.248 2288.36 311.618 2288.36 320.332C2288.36 329.046 2289.68 336.457 2292.33 342.565C2294.98 348.673 2298.72 353.336 2303.57 356.553C2308.41 359.729 2314.13 361.317 2320.73 361.317C2326.72 361.317 2331.83 360.258 2336.06 358.141C2340.34 355.982 2343.59 352.949 2345.83 349.04C2348.11 345.131 2349.25 340.509 2349.25 335.175L2354.63 335.969H2322.38V316.057H2374.72V331.815C2374.72 342.81 2372.4 352.257 2367.76 360.156C2363.12 368.015 2356.73 374.082 2348.58 378.358C2340.44 382.593 2331.11 384.71 2320.61 384.71C2308.88 384.71 2298.58 382.125 2289.7 376.953C2280.83 371.741 2273.9 364.35 2268.94 354.781C2264.01 345.171 2261.54 333.77 2261.54 320.577C2261.54 310.437 2263.01 301.398 2265.94 293.457C2268.91 285.476 2273.07 278.717 2278.4 273.179C2283.74 267.641 2289.95 263.427 2297.03 260.536C2304.12 257.644 2311.79 256.199 2320.06 256.199C2327.14 256.199 2333.74 257.237 2339.85 259.314C2345.96 261.35 2351.37 264.241 2356.1 267.987C2360.86 271.733 2364.75 276.192 2367.76 281.364C2370.77 286.494 2372.71 292.154 2373.56 298.344H2346.69ZM2421.04 257.909V383H2394.59V257.909H2421.04ZM2438.03 279.714V257.909H2540.77V279.714H2502.47V383H2476.33V279.714H2438.03ZM2563.96 383H2535.62L2578.81 257.909H2612.89L2656.01 383H2627.67L2596.34 286.494H2595.36L2563.96 383ZM2562.19 333.831H2629.14V354.476H2562.19V333.831ZM2671.07 383V257.909H2697.51V361.195H2751.14V383H2671.07Z" fill="white"/>
<path d="M517 536H457V521.463H471.5V517.954V504.419H469.5H455V519.458H443V504.419H441H429V502.414V488.378H416.5V486.373V474.843H432V488.378H441V497.401H449.5V488.378H457V487.375V472.337H471.5V457.799H455V472.337H432V457.799H447.5V439.753H432V455.794H416.5V439.753H400V457.799H414.5L415 472.337H400V473.339V477.35V486.373H389L389.5 461.308V401.656V373.082L391 369.072L393.5 364.56L395.5 361.051L397 357.542L401 353.532L404 350.023L407 347.015L411 344.509L415.5 342.504L422 341L480 341.501H575.5V346.013L576 369.072V411.18L575 434.239V456.296V470.332L575.5 486.373L575 507.928L574 513.442L571 517.954L566 523.969L563 526.977L560 529.483L556.5 531.488L554 532.992L550 534.997L545.5 536H537H530.5H517Z" fill="#39A62F"/>
<path d="M415 488.378H401V503.416H415V488.378Z" fill="#39A62F"/>
<path d="M428 505.422H415V520.46H428V505.422Z" fill="#39A62F"/>
<path d="M428 536V521.463H442.5L443 536H428Z" fill="#39A62F"/>
<path d="M377 218L385 228L474 317H575.5V207L488 120L486.5 118.5L483.5 117L480.5 115L477.5 112.5L475.5 110.5L474 109L470.5 106.5L466 103.5L465 104.5V106.5L464.5 109L462 108.5L459 107L456.5 105L453.5 102L449.5 99.5L445 97L442 94.5L439 92L435 89.5L431.5 87.5L428 85.5L423 83L417.5 79.5L412.5 76L409 74L403.5 73L400 75C399.667 76.1667 399 78.7 399 79.5C399 80.5 401.5 82.5 402 83L404.5 85.5L408.5 88L413 93L417.5 98C419.167 99.6667 422.8 103.2 424 104C425.2 104.8 425.5 106.333 425.5 107H422H420.5C419.667 106.667 417.9 105.9 417.5 105.5C417.1 105.1 415.333 103.667 414.5 103C413.167 102.333 410.4 100.9 410 100.5C409.5 100 406.5 99.5 406 99C405.5 98.5 403.5 98 403 97.5C402.5 97 399.5 95.5 399 95C398.6 94.6 397.5 94.1667 397 94L393 94.5L392.5 95.5C392.833 96.5 393.6 98.7 394 99.5C394.5 100.5 396.5 101.5 397 102C397.5 102.5 399 104.5 400 105.5C401 106.5 401 108.5 401 109C401 109.4 400.333 110.167 400 110.5L397 110L394 108.5L391 106.5L388.5 105L385 102.5L383.5 100L380 97L378 94.5L375 94L373.5 93.5C373.667 94.8333 374 97.6 374 98C374 98.4 375 99.8333 375.5 100.5C376.333 101.333 378 103.1 378 103.5C378 104 380.5 106 381 106.5C381.5 107 384 109.5 384.5 110.5C384.9 111.3 386.333 112.833 387 113.5V117L388 118L390 122.5C390.833 122.833 392.7 123.6 393.5 124C394.5 124.5 394.5 125 395 125.5C395.5 126 394.5 128 394.5 128.5C394.5 128.9 393.167 129 392.5 129L390 127.5C389.333 126.833 387.9 125.5 387.5 125.5C387.1 125.5 386.333 124.5 386 124L382.725 121.5C381.817 120.833 379.9 119.3 379.5 118.5C379.1 117.7 377.667 116.833 377 116.5L373 115L372 116.5L372.5 118.5L374.5 121.5L377 123.5L377.5 126L378.5 128.5L379 131.5C379.5 132 380.5 133.1 380.5 133.5C380.5 134 383 136.5 384 137C384.8 137.4 384.333 138.5 384 139L381.5 140L379.5 139L377 137L374.5 135L372 134.5L371 136V139.5L373.5 145L377 150L373.5 155L371 150H366.5L361 148H357.5L361 155L365 163.5L371 170L373.5 177L379.5 185L385 192L389.5 197.5L395 203V207H392.5L385 203L379.5 200.5H377H371L373.5 207V212.5L377 218Z" fill="#FF6707"/>
<path d="M599 400V340H683V345.5L682.5 351V360V371.5L683 377.5L683.5 381C683.667 381.833 684.1 383.8 684.5 385C685 386.5 686 386.5 687.5 388.5C689 390.5 689.5 391 690 391.5C690.5 392 692 394.5 692.5 395.5C692.9 396.3 694.333 397.167 695 397.5L697 399.5C697.833 400.167 699.6 401.5 700 401.5C700.4 401.5 702.167 402.833 703 403.5L705.5 405L709 406.5L711.5 407L715 407.5L725 408.5V359L830 464L725.5 568.5L723.5 518H698.5C696.5 517.833 692.4 517.5 692 517.5C691.6 517.5 687.5 517.167 685.5 517C683.5 516.667 679.3 515.9 678.5 515.5C677.5 515 674 514.5 673.5 514.5C673 514.5 670 513 669 513C668 513 665 511.5 664.5 511.5C664.1 511.5 661.667 510.5 660.5 510C659.333 509.667 656.8 508.9 656 508.5C655 508 654 507.5 653.5 507C653 506.5 650.5 506 649.5 506C648.5 506 646.5 504 645.5 503.5C644.5 503 642.5 501.5 641.5 501C640.7 500.6 638.167 498.167 637 497C635.833 496.5 633.4 495.4 633 495C632.5 494.5 629.5 491.5 628.5 491C627.5 490.5 626.5 488.5 625.5 487.5C624.5 486.5 623 484.5 622.5 484.5C622.1 484.5 619.333 480.833 618 479C617.833 478.5 617.4 477.5 617 477.5C616.5 477.5 616 475.5 615.5 475C615 474.5 614 473 613.5 472.5C613 472 612.5 470 612 469.5C611.6 469.1 610.833 468.667 610.5 468.5L608.5 466C608.167 465 607.5 462.9 607.5 462.5C607.5 462 606.5 460 606 459.5C605.6 459.1 604.833 457 604.5 456L604 453.5C603.667 452.5 603 450.4 603 450C603 449.6 602.333 448.167 602 447.5L600.5 443.5L600 440.5L599 436V432.5V428.5V400Z" fill="#FDAC10"/>
<path d="M389 375C389 356.222 404.222 341 423 341H576V435H389V375Z" fill="#39A62F"/>
<path d="M474 425H576V502C576 520.778 560.778 536 542 536H474V425Z" fill="#39A62F"/>
<rect x="389" y="429" width="11" height="56" fill="#39A62F"/>
<path d="M600 340H696V518H687C638.951 518 600 479.049 600 431V340Z" fill="#FDAC10"/>
<path d="M701.848 402.306C697.259 401.035 695.436 399.281 695.547 391.488L693.103 393.983L693.558 399.065L699.884 404.189L701.848 402.306Z" fill="#FDAC10"/>
<path d="M598 208V316H703.5L787 235L794.5 228L798.5 220.5L800.5 214L802.5 207.5L804 201L806 193.5V185V177.5V170.5V164.5V160.5L804 154L800.5 146.5L794.5 139L785 135.5H778.5V133.5V129.5L776.5 124L772.5 116.5L767.5 113.5L760.5 110L755 108L750 106H741.5H734H728H722L713.5 108L706 110L697.5 113.5L692 116.5L685.5 120.5L598 208Z" fill="#2596BE"/>
<path d="M670.146 135.802L689.047 117.254C712.699 94.0448 751.046 94.7697 774.256 118.421C779.671 123.94 779.672 132.889 774.153 138.305L722.419 189.072L670.146 135.802Z" fill="#2596BE"/>
<path d="M683 217.997L762.083 143.71C774.259 132.272 793.402 132.871 804.84 145.047C825.293 166.821 824.222 201.053 802.449 221.506L740.744 279.469L683 217.997Z" fill="#2596BE"/>
<path d="M1137.26 452.172V445.182H1178.91V452.172H1162.12V499H1154.02V452.172H1137.26ZM1188.11 499V445.182H1221.86V452.172H1196.23V468.57H1220.09V475.533H1196.23V492.01H1222.17V499H1188.11ZM1277.4 462.683H1269.2C1268.89 460.931 1268.3 459.39 1267.44 458.058C1266.58 456.727 1265.53 455.597 1264.29 454.668C1263.04 453.74 1261.65 453.039 1260.11 452.566C1258.59 452.093 1256.97 451.857 1255.25 451.857C1252.15 451.857 1249.37 452.636 1246.92 454.195C1244.48 455.754 1242.56 458.041 1241.14 461.054C1239.74 464.067 1239.03 467.746 1239.03 472.091C1239.03 476.471 1239.74 480.167 1241.14 483.18C1242.56 486.194 1244.49 488.471 1246.94 490.013C1249.4 491.554 1252.16 492.325 1255.22 492.325C1256.92 492.325 1258.53 492.098 1260.06 491.642C1261.6 491.169 1262.99 490.477 1264.24 489.566C1265.48 488.655 1266.53 487.543 1267.39 486.229C1268.27 484.897 1268.87 483.373 1269.2 481.656L1277.4 481.683C1276.96 484.328 1276.11 486.763 1274.85 488.988C1273.61 491.195 1272.01 493.105 1270.04 494.717C1268.1 496.311 1265.87 497.546 1263.37 498.422C1260.86 499.298 1258.13 499.736 1255.17 499.736C1250.51 499.736 1246.36 498.632 1242.71 496.425C1239.07 494.2 1236.2 491.02 1234.09 486.886C1232.01 482.751 1230.97 477.82 1230.97 472.091C1230.97 466.345 1232.02 461.413 1234.12 457.296C1236.22 453.162 1239.1 449.991 1242.74 447.783C1246.38 445.558 1250.53 444.446 1255.17 444.446C1258.03 444.446 1260.69 444.858 1263.16 445.681C1265.65 446.487 1267.88 447.678 1269.86 449.255C1271.84 450.814 1273.48 452.724 1274.77 454.984C1276.07 457.226 1276.95 459.793 1277.4 462.683ZM1287.12 499V445.182H1295.24V468.57H1322.07V445.182H1330.21V499H1322.07V475.533H1295.24V499H1287.12ZM1385.48 445.182V499H1378.01L1350.66 459.53H1350.16V499H1342.04V445.182H1349.56L1376.94 484.705H1377.44V445.182H1385.48ZM1444.07 472.091C1444.07 477.837 1443.02 482.777 1440.92 486.912C1438.82 491.029 1435.93 494.2 1432.27 496.425C1428.63 498.632 1424.49 499.736 1419.84 499.736C1415.18 499.736 1411.02 498.632 1407.36 496.425C1403.72 494.2 1400.84 491.02 1398.74 486.886C1396.64 482.751 1395.59 477.82 1395.59 472.091C1395.59 466.345 1396.64 461.413 1398.74 457.296C1400.84 453.162 1403.72 449.991 1407.36 447.783C1411.02 445.558 1415.18 444.446 1419.84 444.446C1424.49 444.446 1428.63 445.558 1432.27 447.783C1435.93 449.991 1438.82 453.162 1440.92 457.296C1443.02 461.413 1444.07 466.345 1444.07 472.091ZM1436.03 472.091C1436.03 467.711 1435.32 464.023 1433.9 461.028C1432.5 458.014 1430.57 455.737 1428.12 454.195C1425.69 452.636 1422.93 451.857 1419.84 451.857C1416.74 451.857 1413.97 452.636 1411.54 454.195C1409.1 455.737 1407.18 458.014 1405.76 461.028C1404.36 464.023 1403.66 467.711 1403.66 472.091C1403.66 476.471 1404.36 480.167 1405.76 483.18C1407.18 486.176 1409.1 488.454 1411.54 490.013C1413.97 491.554 1416.74 492.325 1419.84 492.325C1422.93 492.325 1425.69 491.554 1428.12 490.013C1430.57 488.454 1432.5 486.176 1433.9 483.18C1435.32 480.167 1436.03 476.471 1436.03 472.091ZM1454.2 499V445.182H1462.32V492.01H1486.7V499H1454.2ZM1540.62 472.091C1540.62 477.837 1539.57 482.777 1537.47 486.912C1535.36 491.029 1532.48 494.2 1528.82 496.425C1525.18 498.632 1521.03 499.736 1516.39 499.736C1511.73 499.736 1507.57 498.632 1503.91 496.425C1500.26 494.2 1497.39 491.02 1495.29 486.886C1493.19 482.751 1492.14 477.82 1492.14 472.091C1492.14 466.345 1493.19 461.413 1495.29 457.296C1497.39 453.162 1500.26 449.991 1503.91 447.783C1507.57 445.558 1511.73 444.446 1516.39 444.446C1521.03 444.446 1525.18 445.558 1528.82 447.783C1532.48 449.991 1535.36 453.162 1537.47 457.296C1539.57 461.413 1540.62 466.345 1540.62 472.091ZM1532.58 472.091C1532.58 467.711 1531.87 464.023 1530.45 461.028C1529.05 458.014 1527.12 455.737 1524.67 454.195C1522.23 452.636 1519.47 451.857 1516.39 451.857C1513.29 451.857 1510.52 452.636 1508.09 454.195C1505.65 455.737 1503.72 458.014 1502.31 461.028C1500.9 464.023 1500.2 467.711 1500.2 472.091C1500.2 476.471 1500.9 480.167 1502.31 483.18C1503.72 486.176 1505.65 488.454 1508.09 490.013C1510.52 491.554 1513.29 492.325 1516.39 492.325C1519.47 492.325 1522.23 491.554 1524.67 490.013C1527.12 488.454 1529.05 486.176 1530.45 483.18C1531.87 480.167 1532.58 476.471 1532.58 472.091ZM1587.16 462.184C1586.66 460.59 1585.97 459.162 1585.11 457.901C1584.27 456.622 1583.27 455.536 1582.09 454.642C1580.92 453.731 1579.58 453.039 1578.07 452.566C1576.58 452.093 1574.95 451.857 1573.16 451.857C1570.13 451.857 1567.39 452.636 1564.96 454.195C1562.52 455.754 1560.6 458.041 1559.18 461.054C1557.78 464.05 1557.08 467.72 1557.08 472.065C1557.08 476.427 1557.79 480.115 1559.2 483.128C1560.62 486.141 1562.57 488.427 1565.04 489.987C1567.51 491.546 1570.32 492.325 1573.47 492.325C1576.4 492.325 1578.95 491.73 1581.12 490.538C1583.31 489.347 1585 487.665 1586.19 485.493C1587.4 483.303 1588.01 480.728 1588.01 477.767L1590.11 478.161H1574.71V471.46H1595.86V477.583C1595.86 482.103 1594.9 486.027 1592.97 489.356C1591.06 492.667 1588.42 495.225 1585.04 497.029C1581.67 498.834 1577.82 499.736 1573.47 499.736C1568.6 499.736 1564.33 498.615 1560.65 496.372C1556.99 494.13 1554.13 490.95 1552.08 486.833C1550.03 482.699 1549.01 477.793 1549.01 472.117C1549.01 467.825 1549.6 463.971 1550.8 460.555C1551.99 457.138 1553.66 454.239 1555.81 451.857C1557.99 449.456 1560.54 447.626 1563.46 446.364C1566.4 445.085 1569.62 444.446 1573.11 444.446C1576.01 444.446 1578.72 444.875 1581.23 445.734C1583.75 446.592 1585.99 447.81 1587.95 449.386C1589.93 450.963 1591.57 452.838 1592.87 455.01C1594.16 457.165 1595.04 459.556 1595.49 462.184H1587.16ZM1600.21 445.182H1609.44L1623.49 469.647H1624.07L1638.13 445.182H1647.36L1627.83 477.872V499H1619.74V477.872L1600.21 445.182ZM1689.64 499.762C1686.03 499.762 1682.92 499.105 1680.31 497.791C1677.72 496.477 1675.72 494.69 1674.32 492.43C1672.92 490.153 1672.21 487.578 1672.21 484.705C1672.21 482.515 1672.67 480.57 1673.58 478.871C1674.49 477.154 1675.76 475.568 1677.39 474.114C1679.02 472.66 1680.9 471.197 1683.04 469.726L1691.71 463.603C1693.18 462.639 1694.33 461.623 1695.16 460.555C1695.98 459.469 1696.39 458.128 1696.39 456.534C1696.39 455.273 1695.85 454.064 1694.76 452.908C1693.68 451.751 1692.22 451.173 1690.4 451.173C1689.14 451.173 1688.03 451.48 1687.06 452.093C1686.12 452.706 1685.37 453.495 1684.83 454.458C1684.3 455.404 1684.04 456.403 1684.04 457.454C1684.04 458.68 1684.37 459.915 1685.04 461.159C1685.72 462.403 1686.6 463.691 1687.67 465.022C1688.74 466.336 1689.86 467.702 1691.03 469.121L1716.02 499H1707.14L1686.46 474.692C1684.72 472.643 1683.11 470.716 1681.62 468.911C1680.13 467.089 1678.92 465.25 1678 463.393C1677.08 461.518 1676.63 459.495 1676.63 457.322C1676.63 454.852 1677.19 452.662 1678.31 450.753C1679.45 448.826 1681.04 447.319 1683.07 446.233C1685.1 445.147 1687.48 444.604 1690.22 444.604C1692.98 444.604 1695.36 445.147 1697.34 446.233C1699.33 447.302 1700.87 448.729 1701.94 450.516C1703.02 452.286 1703.56 454.222 1703.56 456.324C1703.56 458.882 1702.93 461.142 1701.65 463.104C1700.39 465.048 1698.64 466.835 1696.42 468.464L1685.62 476.427C1683.51 477.969 1682.05 479.493 1681.23 480.999C1680.42 482.488 1680.02 483.653 1680.02 484.494C1680.02 486.036 1680.41 487.464 1681.2 488.778C1682.01 490.092 1683.13 491.143 1684.57 491.931C1686.02 492.719 1687.72 493.114 1689.66 493.114C1691.66 493.114 1693.61 492.684 1695.5 491.826C1697.41 490.95 1699.13 489.697 1700.67 488.068C1702.23 486.439 1703.47 484.486 1704.38 482.208C1705.29 479.931 1705.75 477.382 1705.75 474.561H1712.84C1712.84 478.03 1712.45 480.964 1711.66 483.364C1710.87 485.747 1709.92 487.692 1708.79 489.198C1707.69 490.687 1706.65 491.852 1705.67 492.693C1705.35 492.973 1705.05 493.254 1704.77 493.534C1704.49 493.814 1704.2 494.095 1703.88 494.375C1702.06 496.214 1699.85 497.572 1697.26 498.448C1694.68 499.324 1692.14 499.762 1689.64 499.762ZM1759.81 499H1742.39V445.182H1760.37C1765.64 445.182 1770.17 446.259 1773.95 448.414C1777.74 450.551 1780.64 453.626 1782.65 457.638C1784.68 461.632 1785.7 466.424 1785.7 472.012C1785.7 477.618 1784.67 482.436 1782.62 486.465C1780.59 490.495 1777.65 493.595 1773.79 495.768C1769.94 497.923 1765.28 499 1759.81 499ZM1750.51 491.905H1759.37C1763.47 491.905 1766.87 491.134 1769.59 489.592C1772.3 488.033 1774.34 485.782 1775.69 482.839C1777.03 479.878 1777.71 476.269 1777.71 472.012C1777.71 467.79 1777.03 464.207 1775.69 461.264C1774.35 458.321 1772.37 456.087 1769.72 454.563C1767.08 453.039 1763.79 452.277 1759.87 452.277H1750.51V491.905ZM1803.92 445.182V499H1795.8V445.182H1803.92ZM1852.16 462.184C1851.65 460.59 1850.97 459.162 1850.11 457.901C1849.27 456.622 1848.26 455.536 1847.09 454.642C1845.92 453.731 1844.58 453.039 1843.07 452.566C1841.58 452.093 1839.94 451.857 1838.16 451.857C1835.13 451.857 1832.39 452.636 1829.96 454.195C1827.52 455.754 1825.6 458.041 1824.18 461.054C1822.77 464.05 1822.07 467.72 1822.07 472.065C1822.07 476.427 1822.78 480.115 1824.2 483.128C1825.62 486.141 1827.57 488.427 1830.04 489.987C1832.51 491.546 1835.32 492.325 1838.47 492.325C1841.4 492.325 1843.95 491.73 1846.12 490.538C1848.31 489.347 1850 487.665 1851.19 485.493C1852.4 483.303 1853 480.728 1853 477.767L1855.11 478.161H1839.71V471.46H1860.86V477.583C1860.86 482.103 1859.9 486.027 1857.97 489.356C1856.06 492.667 1853.42 495.225 1850.03 497.029C1846.67 498.834 1842.82 499.736 1838.47 499.736C1833.6 499.736 1829.33 498.615 1825.65 496.372C1821.99 494.13 1819.13 490.95 1817.08 486.833C1815.03 482.699 1814.01 477.793 1814.01 472.117C1814.01 467.825 1814.6 463.971 1815.79 460.555C1816.98 457.138 1818.66 454.239 1820.81 451.857C1822.98 449.456 1825.53 447.626 1828.46 446.364C1831.4 445.085 1834.62 444.446 1838.1 444.446C1841.01 444.446 1843.72 444.875 1846.22 445.734C1848.75 446.592 1850.99 447.81 1852.95 449.386C1854.93 450.963 1856.57 452.838 1857.87 455.01C1859.16 457.165 1860.04 459.556 1860.49 462.184H1852.16ZM1879.29 445.182V499H1871.17V445.182H1879.29ZM1888.46 452.172V445.182H1930.11V452.172H1913.32V499H1905.23V452.172H1888.46ZM1937.5 499H1928.88L1948.25 445.182H1957.63L1977 499H1968.38L1953.16 454.957H1952.74L1937.5 499ZM1938.95 477.925H1966.91V484.757H1938.95V477.925ZM1984.77 499V445.182H1992.89V492.01H2017.28V499H1984.77ZM2043.47 452.172V445.182H2085.12V452.172H2068.33V499H2060.24V452.172H2043.47ZM2094.32 499V445.182H2113.51C2117.68 445.182 2121.14 445.9 2123.89 447.337C2126.66 448.773 2128.72 450.762 2130.09 453.302C2131.46 455.825 2132.14 458.741 2132.14 462.053C2132.14 465.346 2131.45 468.246 2130.06 470.751C2128.7 473.238 2126.63 475.174 2123.86 476.558C2121.11 477.942 2117.65 478.634 2113.48 478.634H2098.95V471.644H2112.75C2115.37 471.644 2117.51 471.268 2119.16 470.514C2120.82 469.761 2122.04 468.666 2122.81 467.229C2123.58 465.793 2123.97 464.067 2123.97 462.053C2123.97 460.02 2123.57 458.26 2122.78 456.771C2122.01 455.281 2120.8 454.143 2119.13 453.354C2117.48 452.549 2115.32 452.146 2112.64 452.146H2102.44V499H2094.32ZM2120.89 474.719L2134.19 499H2124.94L2111.91 474.719H2120.89ZM2146.57 499H2137.95L2157.31 445.182H2166.7L2186.06 499H2177.44L2162.23 454.957H2161.81L2146.57 499ZM2148.01 477.925H2175.97V484.757H2148.01V477.925ZM2237.27 445.182V499H2229.81L2202.45 459.53H2201.95V499H2193.83V445.182H2201.35L2228.73 484.705H2229.23V445.182H2237.27ZM2278.47 459.32C2278.19 456.832 2277.03 454.905 2275 453.538C2272.97 452.154 2270.41 451.462 2267.33 451.462C2265.12 451.462 2263.21 451.813 2261.6 452.513C2259.99 453.197 2258.74 454.143 2257.84 455.352C2256.97 456.543 2256.53 457.901 2256.53 459.425C2256.53 460.704 2256.83 461.807 2257.42 462.736C2258.03 463.664 2258.83 464.444 2259.81 465.075C2260.81 465.688 2261.88 466.205 2263.02 466.625C2264.16 467.028 2265.25 467.361 2266.3 467.624L2271.56 468.99C2273.28 469.411 2275.04 469.98 2276.84 470.698C2278.65 471.416 2280.32 472.362 2281.86 473.536C2283.4 474.71 2284.65 476.164 2285.59 477.898C2286.56 479.633 2287.04 481.709 2287.04 484.126C2287.04 487.175 2286.25 489.881 2284.67 492.246C2283.11 494.612 2280.84 496.477 2277.87 497.844C2274.91 499.21 2271.32 499.893 2267.12 499.893C2263.09 499.893 2259.6 499.254 2256.66 497.975C2253.72 496.696 2251.41 494.883 2249.75 492.536C2248.08 490.17 2247.16 487.367 2246.99 484.126H2255.14C2255.29 486.071 2255.92 487.692 2257.03 488.988C2258.15 490.267 2259.58 491.222 2261.31 491.852C2263.06 492.465 2264.98 492.772 2267.07 492.772C2269.36 492.772 2271.4 492.413 2273.19 491.695C2274.99 490.959 2276.41 489.943 2277.45 488.646C2278.48 487.332 2279 485.799 2279 484.048C2279 482.453 2278.54 481.148 2277.63 480.132C2276.74 479.116 2275.52 478.275 2273.98 477.609C2272.45 476.944 2270.73 476.357 2268.8 475.849L2262.44 474.114C2258.13 472.941 2254.72 471.215 2252.19 468.938C2249.69 466.66 2248.43 463.647 2248.43 459.898C2248.43 456.797 2249.28 454.09 2250.96 451.778C2252.64 449.465 2254.92 447.67 2257.79 446.391C2260.66 445.094 2263.9 444.446 2267.51 444.446C2271.16 444.446 2274.37 445.085 2277.16 446.364C2279.96 447.643 2282.17 449.404 2283.78 451.646C2285.39 453.871 2286.23 456.429 2286.3 459.32H2278.47ZM2296.74 499V445.182H2330.11V452.172H2304.86V468.57H2327.72V475.533H2304.86V499H2296.74ZM2386.85 472.091C2386.85 477.837 2385.8 482.777 2383.7 486.912C2381.59 491.029 2378.71 494.2 2375.05 496.425C2371.41 498.632 2367.26 499.736 2362.62 499.736C2357.96 499.736 2353.8 498.632 2350.14 496.425C2346.49 494.2 2343.62 491.02 2341.52 486.886C2339.42 482.751 2338.37 477.82 2338.37 472.091C2338.37 466.345 2339.42 461.413 2341.52 457.296C2343.62 453.162 2346.49 449.991 2350.14 447.783C2353.8 445.558 2357.96 444.446 2362.62 444.446C2367.26 444.446 2371.41 445.558 2375.05 447.783C2378.71 449.991 2381.59 453.162 2383.7 457.296C2385.8 461.413 2386.85 466.345 2386.85 472.091ZM2378.81 472.091C2378.81 467.711 2378.1 464.023 2376.68 461.028C2375.28 458.014 2373.35 455.737 2370.9 454.195C2368.46 452.636 2365.7 451.857 2362.62 451.857C2359.52 451.857 2356.75 452.636 2354.32 454.195C2351.88 455.737 2349.95 458.014 2348.54 461.028C2347.13 464.023 2346.43 467.711 2346.43 472.091C2346.43 476.471 2347.13 480.167 2348.54 483.18C2349.95 486.176 2351.88 488.454 2354.32 490.013C2356.75 491.554 2359.52 492.325 2362.62 492.325C2365.7 492.325 2368.46 491.554 2370.9 490.013C2373.35 488.454 2375.28 486.176 2376.68 483.18C2378.1 480.167 2378.81 476.471 2378.81 472.091ZM2396.97 499V445.182H2416.16C2420.33 445.182 2423.79 445.9 2426.54 447.337C2429.3 448.773 2431.37 450.762 2432.74 453.302C2434.1 455.825 2434.79 458.741 2434.79 462.053C2434.79 465.346 2434.1 468.246 2432.71 470.751C2431.35 473.238 2429.28 475.174 2426.51 476.558C2423.76 477.942 2420.3 478.634 2416.13 478.634H2401.6V471.644H2415.39C2418.02 471.644 2420.16 471.268 2421.81 470.514C2423.47 469.761 2424.69 468.666 2425.46 467.229C2426.23 465.793 2426.62 464.067 2426.62 462.053C2426.62 460.02 2426.22 458.26 2425.43 456.771C2424.66 455.281 2423.44 454.143 2421.78 453.354C2420.13 452.549 2417.97 452.146 2415.29 452.146H2405.09V499H2396.97ZM2423.54 474.719L2436.84 499H2427.59L2414.55 474.719H2423.54ZM2444.67 445.182H2454.52L2471.66 487.017H2472.29L2489.42 445.182H2499.28V499H2491.55V460.055H2491.05L2475.18 498.921H2468.77L2452.89 460.029H2452.39V499H2444.67V445.182ZM2515.63 499H2507.01L2526.37 445.182H2535.76L2555.12 499H2546.5L2531.29 454.957H2530.87L2515.63 499ZM2517.07 477.925H2545.03V484.757H2517.07V477.925ZM2553.88 452.172V445.182H2595.53V452.172H2578.74V499H2570.65V452.172H2553.88ZM2612.86 445.182V499H2604.74V445.182H2612.86ZM2671.43 472.091C2671.43 477.837 2670.38 482.777 2668.28 486.912C2666.18 491.029 2663.29 494.2 2659.63 496.425C2655.99 498.632 2651.85 499.736 2647.2 499.736C2642.54 499.736 2638.38 498.632 2634.72 496.425C2631.08 494.2 2628.2 491.02 2626.1 486.886C2624 482.751 2622.95 477.82 2622.95 472.091C2622.95 466.345 2624 461.413 2626.1 457.296C2628.2 453.162 2631.08 449.991 2634.72 447.783C2638.38 445.558 2642.54 444.446 2647.2 444.446C2651.85 444.446 2655.99 445.558 2659.63 447.783C2663.29 449.991 2666.18 453.162 2668.28 457.296C2670.38 461.413 2671.43 466.345 2671.43 472.091ZM2663.39 472.091C2663.39 467.711 2662.68 464.023 2661.26 461.028C2659.86 458.014 2657.93 455.737 2655.48 454.195C2653.05 452.636 2650.29 451.857 2647.2 451.857C2644.1 451.857 2641.33 452.636 2638.9 454.195C2636.46 455.737 2634.54 458.014 2633.12 461.028C2631.72 464.023 2631.02 467.711 2631.02 472.091C2631.02 476.471 2631.72 480.167 2633.12 483.18C2634.54 486.176 2636.46 488.454 2638.9 490.013C2641.33 491.554 2644.1 492.325 2647.2 492.325C2650.29 492.325 2653.05 491.554 2655.48 490.013C2657.93 488.454 2659.86 486.176 2661.26 483.18C2662.68 480.167 2663.39 476.471 2663.39 472.091ZM2724.99 445.182V499H2717.53L2690.17 459.53H2689.68V499H2681.56V445.182H2689.07L2716.45 484.705H2716.95V445.182H2724.99Z" fill="white"/>
<path d="M211.722 269H203.717V244.273H211.975C214.398 244.273 216.479 244.768 218.217 245.758C219.956 246.74 221.288 248.152 222.214 249.996C223.147 251.831 223.614 254.032 223.614 256.6C223.614 259.176 223.143 261.389 222.202 263.241C221.268 265.092 219.916 266.517 218.145 267.515C216.374 268.505 214.233 269 211.722 269ZM207.447 265.74H211.516C213.4 265.74 214.965 265.386 216.213 264.678C217.461 263.961 218.394 262.927 219.014 261.575C219.634 260.214 219.944 258.556 219.944 256.6C219.944 254.66 219.634 253.014 219.014 251.662C218.402 250.31 217.489 249.283 216.273 248.583C215.058 247.883 213.549 247.533 211.746 247.533H207.447V265.74ZM228.254 269V244.273H243.757V247.484H231.985V255.018H242.948V258.218H231.985V265.788H243.901V269H228.254ZM262.227 250.768C262.098 249.625 261.567 248.74 260.633 248.112C259.699 247.476 258.524 247.158 257.107 247.158C256.093 247.158 255.216 247.319 254.475 247.641C253.735 247.955 253.159 248.39 252.749 248.945C252.346 249.493 252.145 250.116 252.145 250.817C252.145 251.404 252.282 251.911 252.555 252.338C252.837 252.765 253.203 253.123 253.654 253.413C254.113 253.694 254.604 253.932 255.127 254.125C255.65 254.31 256.153 254.463 256.636 254.584L259.051 255.212C259.84 255.405 260.649 255.666 261.478 255.996C262.307 256.326 263.076 256.761 263.784 257.3C264.492 257.84 265.064 258.508 265.499 259.305C265.941 260.102 266.163 261.055 266.163 262.166C266.163 263.567 265.8 264.81 265.076 265.897C264.36 266.984 263.317 267.841 261.949 268.469C260.589 269.097 258.942 269.411 257.011 269.411C255.159 269.411 253.558 269.117 252.205 268.529C250.853 267.942 249.795 267.108 249.03 266.03C248.265 264.943 247.843 263.655 247.762 262.166H251.505C251.577 263.06 251.867 263.804 252.374 264.4C252.889 264.987 253.545 265.426 254.342 265.716C255.147 265.998 256.029 266.138 256.987 266.138C258.041 266.138 258.979 265.973 259.8 265.643C260.629 265.305 261.281 264.839 261.756 264.243C262.231 263.639 262.468 262.935 262.468 262.13C262.468 261.397 262.259 260.798 261.84 260.331C261.43 259.864 260.87 259.478 260.162 259.172C259.462 258.866 258.669 258.596 257.783 258.363L254.862 257.566C252.881 257.027 251.312 256.234 250.153 255.188C249.002 254.141 248.426 252.757 248.426 251.034C248.426 249.609 248.813 248.366 249.585 247.303C250.358 246.241 251.404 245.416 252.724 244.828C254.045 244.232 255.534 243.935 257.192 243.935C258.866 243.935 260.343 244.228 261.623 244.816C262.911 245.404 263.925 246.213 264.665 247.243C265.406 248.265 265.792 249.44 265.825 250.768H262.227ZM274.352 244.273V269H270.621V244.273H274.352ZM296.519 252.085C296.286 251.352 295.972 250.696 295.578 250.116C295.191 249.529 294.728 249.03 294.189 248.619C293.65 248.201 293.034 247.883 292.342 247.665C291.658 247.448 290.905 247.339 290.084 247.339C288.691 247.339 287.436 247.698 286.317 248.414C285.198 249.13 284.313 250.181 283.661 251.565C283.017 252.942 282.695 254.628 282.695 256.624C282.695 258.629 283.021 260.323 283.673 261.707C284.325 263.092 285.218 264.142 286.353 264.859C287.488 265.575 288.78 265.933 290.229 265.933C291.573 265.933 292.744 265.66 293.742 265.112C294.749 264.565 295.525 263.792 296.073 262.794C296.628 261.788 296.906 260.605 296.906 259.244L297.872 259.425H290.796V256.347H300.516V259.16C300.516 261.237 300.073 263.04 299.188 264.569C298.31 266.09 297.095 267.265 295.541 268.094C293.996 268.924 292.225 269.338 290.229 269.338C287.991 269.338 286.027 268.823 284.337 267.793C282.655 266.762 281.343 265.301 280.401 263.41C279.459 261.51 278.988 259.256 278.988 256.648C278.988 254.676 279.262 252.906 279.809 251.336C280.356 249.766 281.125 248.434 282.115 247.339C283.113 246.237 284.285 245.396 285.629 244.816C286.981 244.228 288.458 243.935 290.06 243.935C291.396 243.935 292.64 244.132 293.791 244.526C294.95 244.921 295.98 245.48 296.882 246.205C297.791 246.929 298.544 247.79 299.139 248.788C299.735 249.778 300.137 250.877 300.347 252.085H296.519ZM325.21 244.273V269H321.781L309.212 250.865H308.983V269H305.252V244.273H308.705L321.286 262.432H321.515V244.273H325.21ZM346.556 269.35C344.898 269.35 343.47 269.048 342.27 268.445C341.079 267.841 340.161 267.02 339.517 265.982C338.873 264.935 338.551 263.752 338.551 262.432C338.551 261.426 338.761 260.532 339.179 259.751C339.598 258.963 340.181 258.234 340.93 257.566C341.679 256.898 342.544 256.226 343.526 255.55L347.51 252.737C348.186 252.294 348.714 251.827 349.092 251.336C349.47 250.837 349.659 250.221 349.659 249.489C349.659 248.909 349.41 248.354 348.911 247.822C348.412 247.291 347.744 247.026 346.907 247.026C346.327 247.026 345.816 247.166 345.373 247.448C344.939 247.73 344.596 248.092 344.347 248.535C344.105 248.969 343.985 249.428 343.985 249.911C343.985 250.475 344.138 251.042 344.444 251.614C344.757 252.185 345.16 252.777 345.651 253.388C346.142 253.992 346.657 254.62 347.196 255.272L358.679 269H354.598L345.096 257.832C344.299 256.89 343.558 256.004 342.874 255.175C342.19 254.338 341.634 253.493 341.208 252.64C340.789 251.779 340.58 250.849 340.58 249.851C340.58 248.716 340.837 247.71 341.353 246.832C341.876 245.947 342.604 245.255 343.538 244.756C344.472 244.257 345.566 244.007 346.822 244.007C348.094 244.007 349.185 244.257 350.094 244.756C351.012 245.247 351.716 245.903 352.207 246.724C352.706 247.537 352.956 248.426 352.956 249.392C352.956 250.567 352.662 251.606 352.074 252.507C351.495 253.401 350.694 254.222 349.672 254.97L344.709 258.629C343.743 259.337 343.071 260.037 342.693 260.729C342.323 261.414 342.137 261.949 342.137 262.335C342.137 263.044 342.319 263.7 342.681 264.303C343.051 264.907 343.566 265.39 344.226 265.752C344.894 266.114 345.675 266.295 346.569 266.295C347.486 266.295 348.38 266.098 349.249 265.704C350.126 265.301 350.919 264.726 351.627 263.977C352.344 263.229 352.911 262.331 353.33 261.285C353.748 260.238 353.958 259.067 353.958 257.771H357.218C357.218 259.365 357.037 260.713 356.674 261.816C356.312 262.911 355.873 263.804 355.358 264.496C354.851 265.181 354.372 265.716 353.922 266.102C353.777 266.231 353.64 266.36 353.511 266.489C353.382 266.617 353.245 266.746 353.1 266.875C352.263 267.72 351.249 268.344 350.058 268.746C348.875 269.149 347.708 269.35 346.556 269.35ZM224.254 293.314H220.487C220.342 292.509 220.073 291.801 219.678 291.189C219.284 290.577 218.801 290.058 218.229 289.631C217.658 289.205 217.018 288.883 216.31 288.665C215.609 288.448 214.865 288.339 214.076 288.339C212.651 288.339 211.375 288.698 210.249 289.414C209.13 290.13 208.244 291.181 207.592 292.565C206.948 293.95 206.626 295.64 206.626 297.636C206.626 299.649 206.948 301.347 207.592 302.732C208.244 304.116 209.134 305.162 210.261 305.871C211.388 306.579 212.655 306.933 214.064 306.933C214.845 306.933 215.585 306.829 216.286 306.619C216.994 306.402 217.634 306.084 218.205 305.665C218.777 305.247 219.26 304.736 219.654 304.132C220.057 303.52 220.334 302.82 220.487 302.031L224.254 302.043C224.053 303.259 223.663 304.378 223.083 305.4C222.512 306.414 221.775 307.291 220.874 308.032C219.98 308.764 218.958 309.332 217.807 309.734C216.656 310.137 215.4 310.338 214.04 310.338C211.899 310.338 209.991 309.831 208.317 308.817C206.643 307.795 205.322 306.334 204.357 304.434C203.399 302.534 202.92 300.268 202.92 297.636C202.92 294.996 203.403 292.73 204.369 290.839C205.335 288.939 206.655 287.482 208.329 286.468C210.003 285.446 211.907 284.935 214.04 284.935C215.352 284.935 216.575 285.124 217.71 285.502C218.853 285.872 219.879 286.42 220.789 287.144C221.699 287.861 222.451 288.738 223.047 289.776C223.643 290.807 224.045 291.986 224.254 293.314ZM228.719 310V285.273H237.532C239.448 285.273 241.038 285.603 242.302 286.263C243.573 286.923 244.523 287.836 245.151 289.004C245.779 290.163 246.093 291.503 246.093 293.024C246.093 294.537 245.775 295.87 245.139 297.021C244.511 298.164 243.561 299.053 242.29 299.689C241.026 300.325 239.436 300.643 237.52 300.643H230.844V297.431H237.182C238.39 297.431 239.372 297.258 240.128 296.912C240.893 296.566 241.452 296.063 241.807 295.403C242.161 294.743 242.338 293.95 242.338 293.024C242.338 292.09 242.157 291.281 241.795 290.597C241.44 289.913 240.881 289.39 240.116 289.028C239.36 288.657 238.366 288.472 237.134 288.472H232.449V310H228.719ZM240.925 298.844L247.035 310H242.785L236.796 298.844H240.925ZM250.633 310V285.273H266.135V288.484H254.363V296.018H265.327V299.218H254.363V306.788H266.28V310H250.633ZM273.208 310H269.248L278.146 285.273H282.456L291.355 310H287.395L280.404 289.764H280.211L273.208 310ZM273.872 300.317H286.718V303.456H273.872V300.317ZM290.784 288.484V285.273H309.921V288.484H302.206V310H298.487V288.484H290.784ZM317.881 285.273V310H314.15V285.273H317.881ZM325.475 285.273L332.358 305.412H332.635L339.517 285.273H343.55L334.652 310H330.341L321.443 285.273H325.475ZM350.852 285.273V310H347.121V285.273H350.852ZM355.066 288.484V285.273H374.203V288.484H366.487V310H362.769V288.484H355.066ZM376.524 285.273H380.762L387.221 296.513H387.487L393.946 285.273H398.184L389.213 300.293V310H385.495V300.293L376.524 285.273Z" fill="#FF6707"/>
<path d="M193.195 507.768C193.067 506.625 192.535 505.74 191.602 505.112C190.668 504.476 189.493 504.158 188.076 504.158C187.062 504.158 186.184 504.319 185.444 504.641C184.703 504.955 184.128 505.39 183.717 505.945C183.315 506.493 183.114 507.116 183.114 507.817C183.114 508.404 183.25 508.911 183.524 509.338C183.806 509.765 184.172 510.123 184.623 510.413C185.082 510.694 185.573 510.932 186.096 511.125C186.619 511.31 187.122 511.463 187.605 511.584L190.02 512.212C190.809 512.405 191.618 512.666 192.447 512.996C193.276 513.326 194.045 513.761 194.753 514.3C195.461 514.84 196.033 515.508 196.467 516.305C196.91 517.102 197.131 518.055 197.131 519.166C197.131 520.567 196.769 521.81 196.045 522.897C195.328 523.984 194.286 524.841 192.918 525.469C191.557 526.097 189.911 526.411 187.979 526.411C186.128 526.411 184.526 526.117 183.174 525.529C181.822 524.942 180.763 524.108 179.999 523.03C179.234 521.943 178.811 520.655 178.731 519.166H182.474C182.546 520.06 182.836 520.804 183.343 521.4C183.858 521.987 184.514 522.426 185.311 522.716C186.116 522.998 186.997 523.138 187.955 523.138C189.01 523.138 189.947 522.973 190.768 522.643C191.598 522.305 192.25 521.839 192.724 521.243C193.199 520.639 193.437 519.935 193.437 519.13C193.437 518.397 193.228 517.798 192.809 517.331C192.398 516.864 191.839 516.478 191.131 516.172C190.43 515.866 189.638 515.596 188.752 515.363L185.83 514.566C183.85 514.027 182.281 513.234 181.121 512.188C179.97 511.141 179.395 509.757 179.395 508.034C179.395 506.609 179.781 505.366 180.554 504.303C181.327 503.241 182.373 502.416 183.693 501.828C185.013 501.232 186.502 500.935 188.161 500.935C189.835 500.935 191.312 501.228 192.592 501.816C193.879 502.404 194.894 503.213 195.634 504.243C196.375 505.265 196.761 506.44 196.793 507.768H193.195ZM223.069 513.636C223.069 516.277 222.586 518.546 221.62 520.446C220.654 522.338 219.33 523.795 217.648 524.817C215.974 525.831 214.07 526.338 211.937 526.338C209.796 526.338 207.884 525.831 206.202 524.817C204.528 523.795 203.208 522.334 202.242 520.434C201.276 518.534 200.793 516.268 200.793 513.636C200.793 510.996 201.276 508.73 202.242 506.839C203.208 504.939 204.528 503.482 206.202 502.468C207.884 501.446 209.796 500.935 211.937 500.935C214.07 500.935 215.974 501.446 217.648 502.468C219.33 503.482 220.654 504.939 221.62 506.839C222.586 508.73 223.069 510.996 223.069 513.636ZM219.374 513.636C219.374 511.624 219.048 509.93 218.396 508.553C217.753 507.169 216.867 506.122 215.74 505.414C214.621 504.698 213.354 504.339 211.937 504.339C210.512 504.339 209.24 504.698 208.122 505.414C207.003 506.122 206.117 507.169 205.465 508.553C204.821 509.93 204.499 511.624 204.499 513.636C204.499 515.649 204.821 517.347 205.465 518.732C206.117 520.108 207.003 521.154 208.122 521.871C209.24 522.579 210.512 522.933 211.937 522.933C213.354 522.933 214.621 522.579 215.74 521.871C216.867 521.154 217.753 520.108 218.396 518.732C219.048 517.347 219.374 515.649 219.374 513.636ZM227.721 526V501.273H243.054V504.484H231.451V512.018H241.956V515.218H231.451V526H227.721ZM246.423 504.484V501.273H265.56V504.484H257.845V526H254.126V504.484H246.423ZM274.631 526L267.773 501.273H271.697L276.514 520.422H276.743L281.754 501.273H285.642L290.653 520.434H290.882L295.687 501.273H299.623L292.753 526H288.998L283.795 507.479H283.601L278.398 526H274.631ZM302.989 526H299.029L307.927 501.273H312.238L321.136 526H317.176L310.185 505.764H309.992L302.989 526ZM303.653 516.317H316.5V519.456H303.653V516.317ZM324.707 526V501.273H333.521C335.436 501.273 337.026 501.603 338.29 502.263C339.562 502.923 340.512 503.836 341.139 505.004C341.767 506.163 342.081 507.503 342.081 509.024C342.081 510.537 341.763 511.87 341.127 513.021C340.499 514.164 339.55 515.053 338.278 515.689C337.014 516.325 335.424 516.643 333.509 516.643H326.832V513.431H333.171C334.378 513.431 335.36 513.258 336.117 512.912C336.881 512.566 337.441 512.063 337.795 511.403C338.149 510.743 338.326 509.95 338.326 509.024C338.326 508.09 338.145 507.281 337.783 506.597C337.429 505.913 336.869 505.39 336.105 505.028C335.348 504.657 334.354 504.472 333.122 504.472H328.438V526H324.707ZM336.914 514.844L343.023 526H338.773L332.784 514.844H336.914ZM346.621 526V501.273H362.124V504.484H350.352V512.018H361.315V515.218H350.352V522.788H362.269V526H346.621ZM151.722 567H143.717V542.273H151.975C154.398 542.273 156.479 542.768 158.217 543.758C159.956 544.74 161.288 546.152 162.214 547.996C163.147 549.831 163.614 552.032 163.614 554.6C163.614 557.176 163.143 559.389 162.202 561.241C161.268 563.092 159.916 564.517 158.145 565.515C156.374 566.505 154.233 567 151.722 567ZM147.447 563.74H151.516C153.4 563.74 154.965 563.386 156.213 562.678C157.461 561.961 158.394 560.927 159.014 559.575C159.634 558.214 159.944 556.556 159.944 554.6C159.944 552.66 159.634 551.014 159.014 549.662C158.402 548.31 157.489 547.283 156.273 546.583C155.058 545.883 153.549 545.533 151.746 545.533H147.447V563.74ZM168.254 567V542.273H183.757V545.484H171.985V553.018H182.948V556.218H171.985V563.788H183.901V567H168.254ZM190.901 542.273L197.783 562.412H198.061L204.943 542.273H208.976L200.077 567H195.767L186.869 542.273H190.901ZM212.547 567V542.273H228.05V545.484H216.278V553.018H227.241V556.218H216.278V563.788H228.194V567H212.547ZM233.033 567V542.273H236.764V563.788H247.968V567H233.033ZM272.741 554.636C272.741 557.277 272.258 559.546 271.292 561.446C270.326 563.338 269.002 564.795 267.32 565.817C265.646 566.831 263.742 567.338 261.609 567.338C259.468 567.338 257.556 566.831 255.874 565.817C254.2 564.795 252.879 563.334 251.914 561.434C250.948 559.534 250.465 557.268 250.465 554.636C250.465 551.996 250.948 549.73 251.914 547.839C252.879 545.939 254.2 544.482 255.874 543.468C257.556 542.446 259.468 541.935 261.609 541.935C263.742 541.935 265.646 542.446 267.32 543.468C269.002 544.482 270.326 545.939 271.292 547.839C272.258 549.73 272.741 551.996 272.741 554.636ZM269.046 554.636C269.046 552.624 268.72 550.93 268.068 549.553C267.424 548.169 266.539 547.122 265.412 546.414C264.293 545.698 263.026 545.339 261.609 545.339C260.184 545.339 258.912 545.698 257.794 546.414C256.675 547.122 255.789 548.169 255.137 549.553C254.493 550.93 254.171 552.624 254.171 554.636C254.171 556.649 254.493 558.347 255.137 559.732C255.789 561.108 256.675 562.154 257.794 562.871C258.912 563.579 260.184 563.933 261.609 563.933C263.026 563.933 264.293 563.579 265.412 562.871C266.539 562.154 267.424 561.108 268.068 559.732C268.72 558.347 269.046 556.649 269.046 554.636ZM277.392 567V542.273H286.206C288.13 542.273 289.724 542.623 290.988 543.323C292.251 544.023 293.197 544.981 293.825 546.197C294.453 547.404 294.767 548.764 294.767 550.278C294.767 551.799 294.449 553.167 293.813 554.383C293.185 555.59 292.235 556.548 290.963 557.256C289.7 557.957 288.11 558.307 286.194 558.307H280.133V555.143H285.856C287.072 555.143 288.058 554.934 288.814 554.516C289.571 554.089 290.126 553.509 290.48 552.777C290.835 552.045 291.012 551.211 291.012 550.278C291.012 549.344 290.835 548.515 290.48 547.79C290.126 547.066 289.567 546.499 288.802 546.088C288.046 545.678 287.047 545.472 285.808 545.472H281.123V567H277.392ZM299.14 542.273H303.668L311.54 561.494H311.83L319.702 542.273H324.23V567H320.68V549.107H320.451L313.158 566.964H310.212L302.92 549.094H302.69V567H299.14V542.273ZM329.654 567V542.273H345.157V545.484H333.385V553.018H344.348V556.218H333.385V563.788H345.302V567H329.654ZM370.099 542.273V567H366.67L354.101 548.865H353.871V567H350.14V542.273H353.594L366.175 560.432H366.404V542.273H370.099ZM374.321 545.484V542.273H393.458V545.484H385.743V567H382.025V545.484H374.321Z" fill="#39A62F"/>
<path d="M811.796 261H807.835L816.734 236.273H821.044L829.943 261H825.982L818.992 240.764H818.798L811.796 261ZM812.46 251.317H825.306V254.456H812.46V251.317ZM837.244 236.273V261H833.513V236.273H837.244ZM858.582 261.35C856.924 261.35 855.495 261.048 854.296 260.445C853.104 259.841 852.187 259.02 851.543 257.982C850.899 256.935 850.577 255.752 850.577 254.432C850.577 253.426 850.786 252.532 851.205 251.751C851.623 250.963 852.207 250.234 852.955 249.566C853.704 248.898 854.569 248.226 855.551 247.55L859.536 244.737C860.212 244.294 860.739 243.827 861.117 243.336C861.496 242.837 861.685 242.221 861.685 241.489C861.685 240.909 861.435 240.354 860.936 239.822C860.437 239.291 859.769 239.026 858.932 239.026C858.352 239.026 857.841 239.166 857.399 239.448C856.964 239.73 856.622 240.092 856.372 240.535C856.131 240.969 856.01 241.428 856.01 241.911C856.01 242.475 856.163 243.042 856.469 243.614C856.783 244.185 857.185 244.777 857.676 245.388C858.167 245.992 858.682 246.62 859.222 247.272L870.704 261H866.623L857.121 249.832C856.324 248.89 855.584 248.004 854.899 247.175C854.215 246.338 853.66 245.493 853.233 244.64C852.815 243.779 852.605 242.849 852.605 241.851C852.605 240.716 852.863 239.71 853.378 238.832C853.901 237.947 854.63 237.255 855.563 236.756C856.497 236.257 857.592 236.007 858.847 236.007C860.119 236.007 861.21 236.257 862.119 236.756C863.037 237.247 863.741 237.903 864.232 238.724C864.731 239.537 864.981 240.426 864.981 241.392C864.981 242.567 864.687 243.606 864.1 244.507C863.52 245.401 862.719 246.222 861.697 246.97L856.735 250.629C855.769 251.337 855.097 252.037 854.718 252.729C854.348 253.414 854.163 253.949 854.163 254.335C854.163 255.044 854.344 255.7 854.706 256.303C855.076 256.907 855.592 257.39 856.252 257.752C856.92 258.114 857.7 258.295 858.594 258.295C859.512 258.295 860.405 258.098 861.274 257.704C862.152 257.301 862.945 256.726 863.653 255.977C864.369 255.229 864.937 254.331 865.355 253.285C865.774 252.238 865.983 251.067 865.983 249.771H869.243C869.243 251.365 869.062 252.713 868.7 253.816C868.338 254.911 867.899 255.804 867.384 256.496C866.877 257.181 866.398 257.716 865.947 258.102C865.802 258.231 865.665 258.36 865.536 258.489C865.408 258.617 865.271 258.746 865.126 258.875C864.289 259.72 863.275 260.344 862.083 260.746C860.9 261.149 859.733 261.35 858.582 261.35ZM766.805 302H762.845L771.744 277.273H776.054L784.952 302H780.992L774.001 281.764H773.808L766.805 302ZM767.469 292.317H780.316V295.456H767.469V292.317ZM804.425 277.273H808.167V293.536C808.167 295.267 807.761 296.8 806.948 298.136C806.135 299.464 804.992 300.511 803.519 301.276C802.046 302.032 800.319 302.411 798.339 302.411C796.367 302.411 794.645 302.032 793.172 301.276C791.699 300.511 790.556 299.464 789.743 298.136C788.93 296.8 788.523 295.267 788.523 293.536V277.273H792.254V293.234C792.254 294.353 792.5 295.347 792.991 296.217C793.49 297.086 794.194 297.77 795.104 298.269C796.013 298.76 797.092 299.006 798.339 299.006C799.595 299.006 800.678 298.76 801.587 298.269C802.505 297.77 803.205 297.086 803.688 296.217C804.179 295.347 804.425 294.353 804.425 293.234V277.273ZM812.372 280.484V277.273H831.509V280.484H823.794V302H820.075V280.484H812.372ZM856.155 289.636C856.155 292.277 855.672 294.546 854.706 296.446C853.74 298.338 852.416 299.795 850.734 300.817C849.06 301.831 847.156 302.338 845.023 302.338C842.882 302.338 840.97 301.831 839.288 300.817C837.614 299.795 836.294 298.334 835.328 296.434C834.362 294.534 833.879 292.268 833.879 289.636C833.879 286.996 834.362 284.73 835.328 282.839C836.294 280.939 837.614 279.482 839.288 278.468C840.97 277.446 842.882 276.935 845.023 276.935C847.156 276.935 849.06 277.446 850.734 278.468C852.416 279.482 853.74 280.939 854.706 282.839C855.672 284.73 856.155 286.996 856.155 289.636ZM852.46 289.636C852.46 287.624 852.134 285.93 851.482 284.553C850.838 283.169 849.953 282.122 848.826 281.414C847.707 280.698 846.44 280.339 845.023 280.339C843.598 280.339 842.326 280.698 841.208 281.414C840.089 282.122 839.203 283.169 838.551 284.553C837.907 285.93 837.585 287.624 837.585 289.636C837.585 291.649 837.907 293.347 838.551 294.732C839.203 296.108 840.089 297.154 841.208 297.871C842.326 298.579 843.598 298.933 845.023 298.933C846.44 298.933 847.707 298.579 848.826 297.871C849.953 297.154 850.838 296.108 851.482 294.732C852.134 293.347 852.46 291.649 852.46 289.636ZM860.806 277.273H865.334L873.206 296.494H873.496L881.368 277.273H885.896V302H882.346V284.107H882.117L874.824 301.964H871.878L864.586 284.094H864.356V302H860.806V277.273ZM893.409 302H889.449L898.347 277.273H902.657L911.556 302H907.596L900.605 281.764H900.412L893.409 302ZM894.073 292.317H906.92V295.456H894.073V292.317ZM910.985 280.484V277.273H930.123V280.484H922.407V302H918.689V280.484H910.985ZM938.082 277.273V302H934.351V277.273H938.082ZM964.995 289.636C964.995 292.277 964.512 294.546 963.546 296.446C962.58 298.338 961.256 299.795 959.574 300.817C957.899 301.831 955.996 302.338 953.863 302.338C951.722 302.338 949.81 301.831 948.128 300.817C946.453 299.795 945.133 298.334 944.167 296.434C943.202 294.534 942.719 292.268 942.719 289.636C942.719 286.996 943.202 284.73 944.167 282.839C945.133 280.939 946.453 279.482 948.128 278.468C949.81 277.446 951.722 276.935 953.863 276.935C955.996 276.935 957.899 277.446 959.574 278.468C961.256 279.482 962.58 280.939 963.546 282.839C964.512 284.73 964.995 286.996 964.995 289.636ZM961.3 289.636C961.3 287.624 960.974 285.93 960.322 284.553C959.678 283.169 958.793 282.122 957.666 281.414C956.547 280.698 955.279 280.339 953.863 280.339C952.438 280.339 951.166 280.698 950.047 281.414C948.929 282.122 948.043 283.169 947.391 284.553C946.747 285.93 946.425 287.624 946.425 289.636C946.425 291.649 946.747 293.347 947.391 294.732C948.043 296.108 948.929 297.154 950.047 297.871C951.166 298.579 952.438 298.933 953.863 298.933C955.279 298.933 956.547 298.579 957.666 297.871C958.793 297.154 959.678 296.108 960.322 294.732C960.974 293.347 961.3 291.649 961.3 289.636ZM989.604 277.273V302H986.175L973.607 283.865H973.377V302H969.646V277.273H973.099L985.68 295.432H985.91V277.273H989.604Z" fill="#2596BE"/>
<path d="M701.333 412L726 406.5C723.297 406.565 720.797 406.552 718.493 406.433C701.277 405.549 694.916 398.801 695.435 375L689 385.5L690.609 403.5L701.333 412Z" fill="#FDAC10"/>
<path d="M786.776 401H779.477V378.455H787.007C789.216 378.455 791.113 378.906 792.698 379.809C794.283 380.704 795.498 381.992 796.342 383.673C797.193 385.346 797.619 387.353 797.619 389.694C797.619 392.043 797.19 394.061 796.331 395.749C795.48 397.437 794.247 398.736 792.632 399.646C791.018 400.549 789.065 401 786.776 401ZM782.879 398.028H786.588C788.306 398.028 789.733 397.705 790.871 397.059C792.008 396.406 792.86 395.463 793.425 394.23C793.99 392.989 794.272 391.478 794.272 389.694C794.272 387.926 793.99 386.425 793.425 385.192C792.867 383.959 792.034 383.023 790.926 382.385C789.818 381.746 788.442 381.427 786.798 381.427H782.879V398.028ZM805.251 378.455V401H801.849V378.455H805.251ZM825.462 385.577C825.249 384.909 824.963 384.311 824.604 383.783C824.251 383.247 823.829 382.792 823.338 382.418C822.846 382.036 822.284 381.746 821.653 381.548C821.03 381.35 820.343 381.251 819.595 381.251C818.325 381.251 817.18 381.577 816.16 382.23C815.14 382.884 814.333 383.841 813.738 385.104C813.151 386.359 812.858 387.896 812.858 389.716C812.858 391.544 813.155 393.089 813.749 394.351C814.344 395.613 815.158 396.571 816.193 397.224C817.228 397.877 818.406 398.204 819.727 398.204C820.952 398.204 822.02 397.954 822.93 397.455C823.848 396.956 824.556 396.252 825.055 395.342C825.561 394.424 825.815 393.345 825.815 392.105L826.695 392.27H820.244V389.463H829.106V392.028C829.106 393.922 828.702 395.565 827.895 396.96C827.095 398.347 825.987 399.418 824.571 400.174C823.161 400.93 821.547 401.308 819.727 401.308C817.687 401.308 815.896 400.839 814.355 399.899C812.821 398.96 811.625 397.628 810.766 395.903C809.907 394.171 809.478 392.116 809.478 389.738C809.478 387.94 809.727 386.326 810.226 384.895C810.726 383.463 811.426 382.249 812.329 381.251C813.239 380.245 814.307 379.478 815.533 378.95C816.766 378.414 818.112 378.146 819.573 378.146C820.791 378.146 821.925 378.326 822.974 378.686C824.031 379.045 824.971 379.555 825.793 380.216C826.622 380.876 827.308 381.662 827.851 382.572C828.394 383.474 828.761 384.476 828.952 385.577H825.462ZM836.826 378.455V401H833.424V378.455H836.826ZM840.668 381.383V378.455H858.116V381.383H851.082V401H847.691V381.383H840.668ZM861.212 401H857.602L865.715 378.455H869.645L877.758 401H874.147L867.774 382.55H867.597L861.212 401ZM861.818 392.171H873.531V395.033H861.818V392.171ZM881.014 401V378.455H884.416V398.072H894.632V401H881.014ZM906.716 378.455H910.844L918.022 395.98H918.286L925.464 378.455H929.592V401H926.355V384.685H926.146L919.497 400.967H916.811L910.162 384.674H909.953V401H906.716V378.455ZM936.442 401H932.831L940.944 378.455H944.874L952.988 401H949.377L943.003 382.55H942.827L936.442 401ZM937.047 392.171H948.76V395.033H937.047V392.171ZM956.244 401V378.455H964.28C966.026 378.455 967.476 378.755 968.628 379.357C969.788 379.959 970.654 380.792 971.226 381.856C971.799 382.913 972.085 384.135 972.085 385.522C972.085 386.902 971.795 388.116 971.215 389.166C970.643 390.208 969.777 391.019 968.617 391.599C967.465 392.179 966.015 392.468 964.269 392.468H958.181V389.54H963.96C965.061 389.54 965.957 389.382 966.647 389.067C967.344 388.751 967.854 388.292 968.177 387.691C968.5 387.089 968.661 386.366 968.661 385.522C968.661 384.671 968.496 383.933 968.166 383.309C967.843 382.685 967.333 382.208 966.636 381.878C965.946 381.541 965.039 381.372 963.916 381.372H959.645V401H956.244ZM967.373 390.828L972.943 401H969.068L963.608 390.828H967.373ZM976.224 401V378.455H979.626V389.221H979.901L989.357 378.455H993.639L984.546 388.604L993.672 401H989.577L982.29 390.927L979.626 393.988V401H976.224ZM996.81 401V378.455H1010.94V381.383H1000.21V388.252H1010.21V391.169H1000.21V398.072H1011.08V401H996.81ZM1014.38 381.383V378.455H1031.83V381.383H1024.79V401H1021.4V381.383H1014.38ZM1039.08 378.455V401H1035.68V378.455H1039.08ZM1062.23 378.455V401H1059.11L1047.65 384.465H1047.44V401H1044.04V378.455H1047.18L1058.66 395.011H1058.86V378.455H1062.23ZM1082.45 385.577C1082.24 384.909 1081.95 384.311 1081.59 383.783C1081.24 383.247 1080.82 382.792 1080.33 382.418C1079.84 382.036 1079.28 381.746 1078.64 381.548C1078.02 381.35 1077.33 381.251 1076.59 381.251C1075.32 381.251 1074.17 381.577 1073.15 382.23C1072.13 382.884 1071.32 383.841 1070.73 385.104C1070.14 386.359 1069.85 387.896 1069.85 389.716C1069.85 391.544 1070.15 393.089 1070.74 394.351C1071.33 395.613 1072.15 396.571 1073.18 397.224C1074.22 397.877 1075.4 398.204 1076.72 398.204C1077.94 398.204 1079.01 397.954 1079.92 397.455C1080.84 396.956 1081.55 396.252 1082.05 395.342C1082.55 394.424 1082.81 393.345 1082.81 392.105L1083.69 392.27H1077.24V389.463H1086.1V392.028C1086.1 393.922 1085.69 395.565 1084.89 396.96C1084.09 398.347 1082.98 399.418 1081.56 400.174C1080.15 400.93 1078.54 401.308 1076.72 401.308C1074.68 401.308 1072.89 400.839 1071.35 399.899C1069.81 398.96 1068.62 397.628 1067.76 395.903C1066.9 394.171 1066.47 392.116 1066.47 389.738C1066.47 387.94 1066.72 386.326 1067.22 384.895C1067.72 383.463 1068.42 382.249 1069.32 381.251C1070.23 380.245 1071.3 379.478 1072.52 378.95C1073.76 378.414 1075.1 378.146 1076.56 378.146C1077.78 378.146 1078.92 378.326 1079.97 378.686C1081.02 379.045 1081.96 379.555 1082.78 380.216C1083.61 380.876 1084.3 381.662 1084.84 382.572C1085.39 383.474 1085.75 384.476 1085.94 385.577H1082.45Z" fill="#FDAC10"/>
<path d="M726 406.769C710.807 406.315 703.241 404.615 693 396L704.948 410L726 408.923V406.769Z" fill="#FDAC10"/>
<path d="M704 316.5H598V208.5L623.5 183C617.563 281.849 647.607 297.488 730.5 290L704 316.5Z" fill="black" fill-opacity="0.2"/>
<path fill-rule="evenodd" clip-rule="evenodd" d="M716.568 150.052C717.242 150.076 717.777 150.638 717.764 151.313C717.751 151.987 717.198 152.512 716.524 152.488C714.261 152.402 712.522 152.973 711.303 154.197C710.895 154.609 710.537 155.092 710.228 155.662C710.217 155.686 710.207 155.703 710.192 155.724C709.574 156.898 709.166 158.394 708.979 160.223C708.91 160.896 708.308 161.371 707.641 161.29C706.967 161.208 706.482 160.598 706.548 159.928C706.624 159.192 706.733 158.495 706.873 157.845C706.007 158.141 705.088 158.305 704.1 158.341C701.928 158.419 699.483 157.856 696.758 156.652C696.138 156.377 695.851 155.651 696.118 155.038C696.381 154.422 697.103 154.148 697.723 154.422C700.095 155.471 702.177 155.967 703.97 155.905C705.595 155.847 706.995 155.319 708.163 154.326C708.561 153.621 709.03 153.002 709.565 152.466C711.276 150.746 713.609 149.941 716.568 150.052ZM755.255 221.487C756.039 221.228 756.642 220.675 756.983 219.983C757.321 219.295 757.391 218.473 757.122 217.68C756.849 216.89 756.287 216.278 755.592 215.928C754.898 215.578 754.076 215.494 753.287 215.749C752.842 215.896 752.456 216.138 752.141 216.446C752.123 216.47 752.099 216.494 752.077 216.515L752.056 216.536C751.858 216.751 751.691 216.991 751.563 217.25C751.225 217.938 751.155 218.76 751.424 219.553C751.696 220.342 752.259 220.954 752.953 221.304C753.644 221.658 754.466 221.742 755.255 221.487ZM759.172 221.092C759.783 219.847 759.916 218.36 759.423 216.926C758.93 215.493 757.907 214.387 756.652 213.754C755.398 213.12 753.908 212.962 752.484 213.43C752.056 213.573 751.66 213.763 751.299 213.988L728.951 191.087L737.078 183.156L749.546 195.932C749.439 196.099 749.34 196.273 749.254 196.448C748.643 197.693 748.51 199.18 749.003 200.614C749.492 202.043 750.519 203.153 751.77 203.782C753.025 204.416 754.514 204.574 755.939 204.106C757.363 203.638 758.451 202.633 759.059 201.392C759.67 200.148 759.803 198.66 759.31 197.227C758.818 195.793 757.794 194.688 756.539 194.054C755.285 193.421 753.795 193.262 752.371 193.731C751.979 193.86 751.611 194.029 751.271 194.234L738.811 181.466L746.595 173.87L768.982 196.81C768.9 196.946 768.825 197.082 768.754 197.222C768.143 198.467 768.01 199.954 768.503 201.388L768.503 201.395C768.996 202.821 770.016 203.93 771.27 204.563C772.525 205.197 774.014 205.355 775.439 204.887L775.446 204.887C776.863 204.419 777.954 203.417 778.566 202.173C779.178 200.929 779.31 199.441 778.817 198.008L778.814 198.004C778.325 196.574 777.301 195.469 776.046 194.835C774.792 194.202 773.302 194.044 771.878 194.512L771.874 194.515C771.44 194.658 771.044 194.847 770.675 195.08L748.331 172.176L762.694 158.159L772.294 167.996L769.088 171.125C768.919 171.016 768.743 170.913 768.566 170.825C767.312 170.191 765.822 170.033 764.398 170.501L764.394 170.505C762.973 170.97 761.886 171.975 761.274 173.219C760.662 174.463 760.53 175.951 761.023 177.384L761.023 177.391C761.515 178.818 762.535 179.927 763.79 180.56C765.044 181.194 766.534 181.352 767.958 180.884L767.965 180.884C769.386 180.419 770.474 179.414 771.086 178.17C771.697 176.925 771.83 175.438 771.337 174.004L771.334 174.001C771.197 173.606 771.022 173.242 770.811 172.899L774.889 168.912C775.368 168.445 775.37 167.669 774.896 167.182L764.43 156.465L770.57 150.473L770.574 150.477C772.427 148.669 774.824 147.737 777.25 147.692C779.675 147.648 782.13 148.49 784.111 150.23C786.103 151.98 787.356 154.263 787.463 156.854C787.558 159.021 786.864 161.429 785.174 163.971C783.429 163.246 781.542 162.914 779.592 163.099C778.921 163.163 778.442 163.757 778.514 164.425C778.589 165.098 779.191 165.587 779.859 165.527C782.645 165.264 785.3 166.354 787.436 168.231C789.175 169.758 790.57 171.796 791.426 174.057C792.283 176.317 792.596 178.799 792.181 181.209C791.644 184.302 789.893 187.306 786.495 189.622C786.084 189.903 785.677 190.153 785.278 190.381C785.154 190.452 785.027 190.52 784.896 190.592C783.349 188.631 781.418 186.723 779.073 184.944C778.53 184.53 777.764 184.63 777.363 185.162C776.959 185.698 777.072 186.466 777.611 186.877C780.062 188.743 782.021 190.744 783.521 192.784C783.546 192.824 783.578 192.863 783.606 192.899C786.307 196.618 787.501 200.449 787.436 203.82C787.397 205.864 786.889 207.725 785.973 209.267C785.071 210.781 783.767 211.997 782.112 212.767C778.533 214.437 773.312 214.07 766.939 210.367C766.579 210.155 766.124 210.128 765.735 210.338C765.144 210.654 764.933 211.395 765.263 211.988C768.816 218.458 769.052 223.689 767.299 227.223C766.488 228.859 765.244 230.136 763.705 230.997C762.141 231.876 760.269 232.338 758.224 232.327C754.853 232.31 751.048 231.019 747.4 228.231C747.365 228.202 747.33 228.173 747.291 228.147C745.287 226.597 743.335 224.59 741.529 222.094C741.129 221.542 740.367 221.413 739.821 221.804C739.276 222.195 739.161 222.956 739.561 223.508C741.286 225.892 743.147 227.87 745.065 229.467C744.991 229.596 744.92 229.722 744.845 229.844C744.611 230.235 744.348 230.639 744.057 231.043C741.637 234.41 738.563 236.158 735.429 236.668C733.013 237.063 730.557 236.736 728.332 235.86C726.107 234.983 724.125 233.561 722.652 231.768C720.834 229.558 719.817 226.786 720.124 223.805C720.197 223.136 719.712 222.525 719.041 222.448C718.371 222.363 717.772 222.841 717.703 223.507C717.498 225.488 717.76 227.386 718.386 229.133C715.739 230.808 713.265 231.434 711.073 231.244C708.447 231.02 706.185 229.616 704.498 227.462C702.91 225.43 702.198 222.993 702.341 220.63C702.48 218.263 703.473 215.957 705.287 214.187L711.448 208.174L721.91 218.895C722.385 219.381 723.162 219.397 723.64 218.931L727.714 214.955C728.049 215.17 728.416 215.354 728.803 215.504L728.81 215.504C730.228 216.028 731.718 215.932 732.981 215.354C734.236 214.777 735.267 213.714 735.77 212.301L735.77 212.294C736.27 210.885 736.151 209.389 735.549 208.119C734.946 206.849 733.866 205.799 732.445 205.272C731.027 204.748 729.537 204.844 728.275 205.421C727.016 206.002 725.984 207.065 725.482 208.477C724.982 209.887 725.1 211.383 725.703 212.653C725.791 212.835 725.885 213.01 725.991 213.181L722.784 216.31L713.188 206.469L727.215 192.781L749.598 215.718C749.513 215.858 749.435 215.997 749.363 216.144C748.752 217.389 748.619 218.876 749.112 220.31C749.605 221.743 750.628 222.849 751.883 223.482C753.137 224.116 754.627 224.274 756.051 223.806C757.472 223.341 758.563 222.333 759.172 221.092ZM767.094 178.573C767.14 178.556 767.186 178.54 767.235 178.527C767.988 178.256 768.565 177.714 768.893 177.05C769.22 176.386 769.297 175.593 769.056 174.821C769.039 174.775 769.021 174.729 769.007 174.679C768.86 174.288 768.643 173.937 768.375 173.649C768.358 173.631 768.337 173.616 768.322 173.602C768.305 173.584 768.287 173.566 768.277 173.548C768.048 173.328 767.787 173.139 767.506 172.999C766.836 172.66 766.042 172.569 765.275 172.797C765.229 172.813 765.183 172.83 765.134 172.843C764.377 173.11 763.8 173.652 763.476 174.32C763.149 174.984 763.072 175.777 763.313 176.548C763.33 176.595 763.348 176.641 763.362 176.691C763.645 177.449 764.197 178.036 764.867 178.375C765.533 178.717 766.327 178.808 767.094 178.573ZM734.019 149.84C733.977 149.847 733.938 149.849 733.896 149.848C732.239 149.966 730.582 149.472 728.919 148.364C728.296 147.945 727.658 147.434 727.018 146.82C726.525 146.351 726.504 145.577 726.961 145.095C727.421 144.611 728.195 144.602 728.684 145.068C729.201 145.562 729.726 145.986 730.247 146.336C731.395 147.102 732.502 147.464 733.572 147.419C734.226 147.196 734.873 147.023 735.509 146.888C736.308 146.488 737.109 145.862 737.916 145.01C738.597 144.297 739.281 143.41 739.974 142.362C740.339 141.801 741.095 141.654 741.662 142.03C742.23 142.405 742.389 143.164 742.024 143.725C741.289 144.844 740.533 145.813 739.764 146.634C740.562 146.714 741.345 146.872 742.114 147.1C744.826 147.909 747.337 149.631 749.644 152.264C750.094 152.775 750.045 153.548 749.546 153.986C749.043 154.427 748.27 154.365 747.823 153.858C745.833 151.585 743.71 150.11 741.456 149.438C739.83 148.956 738.111 148.881 736.305 149.221C735.708 149.487 735.107 149.673 734.496 149.769C734.337 149.812 734.178 149.826 734.019 149.84ZM720.837 165.329C720.617 164.685 720.955 163.997 721.591 163.791C722.231 163.582 722.925 163.932 723.142 164.572C723.837 166.603 724.173 168.344 724.161 169.791C724.148 171.472 723.67 172.79 722.731 173.756C721.806 174.7 720.484 175.238 718.771 175.361C717.111 175.482 715.043 175.219 712.567 174.568C711.915 174.395 711.511 173.726 711.672 173.076C711.833 172.426 712.495 172.034 713.148 172.207C715.356 172.789 717.156 173.025 718.55 172.923C719.666 172.841 720.483 172.543 720.983 172.028C721.472 171.529 721.718 170.761 721.725 169.734C721.733 168.565 721.438 167.1 720.837 165.329ZM700.244 177.754C700.211 177.082 700.729 176.514 701.403 176.496C702.078 176.471 702.651 177.002 702.681 177.678C702.862 181.4 701.948 184.043 699.952 185.612C699.367 186.07 698.695 186.43 697.939 186.683C698.235 186.879 698.506 187.086 698.752 187.31C700.385 188.806 700.83 190.836 699.974 194.197C699.806 194.847 699.14 195.229 698.491 195.053C697.839 194.873 697.446 194.201 697.611 193.555C698.205 191.222 698.008 189.915 697.118 189.095C696.073 188.137 694.034 187.537 691.216 186.789L691.209 186.789C690.546 186.662 690.103 186.018 690.218 185.356C690.334 184.695 690.971 184.263 691.634 184.39C694.774 185.006 697.038 184.767 698.419 183.68C699.779 182.621 700.382 180.645 700.244 177.754ZM774.574 202.584C774.62 202.567 774.666 202.551 774.716 202.538C775.469 202.267 776.046 201.725 776.373 201.061C776.701 200.397 776.777 199.604 776.537 198.832C776.519 198.786 776.502 198.74 776.488 198.69C776.208 197.928 775.652 197.345 774.983 197.006C774.313 196.667 773.519 196.576 772.752 196.804C772.706 196.821 772.66 196.837 772.611 196.85C772.19 197.001 771.829 197.233 771.531 197.524C771.51 197.551 771.482 197.579 771.457 197.603L771.432 197.628C771.241 197.835 771.078 198.072 770.957 198.324C770.629 198.988 770.552 199.781 770.793 200.552C770.811 200.599 770.828 200.645 770.842 200.695C771.125 201.453 771.678 202.04 772.347 202.379C773.013 202.721 773.811 202.815 774.574 202.584ZM733.449 211.497C733.464 211.448 733.481 211.403 733.499 211.357C733.749 210.6 733.674 209.8 733.352 209.122C733.019 208.42 732.421 207.842 731.638 207.55C730.852 207.262 730.029 207.312 729.332 207.633C728.636 207.954 728.069 208.542 727.79 209.321C727.516 210.102 727.58 210.926 727.913 211.629C728.046 211.914 728.229 212.18 728.443 212.414C728.461 212.432 728.482 212.446 728.499 212.464C728.517 212.482 728.535 212.5 728.545 212.518C728.83 212.796 729.168 213.022 729.56 213.175C729.609 213.19 729.655 213.209 729.701 213.227C730.462 213.49 731.261 213.429 731.932 213.118C732.608 212.811 733.164 212.247 733.449 211.497ZM755.145 201.79C755.933 201.535 756.535 200.975 756.873 200.286C757.211 199.598 757.281 198.776 757.009 197.987C756.74 197.194 756.173 196.585 755.479 196.235C754.785 195.885 753.962 195.801 753.174 196.056C752.753 196.192 752.389 196.414 752.088 196.694C752.07 196.711 752.056 196.732 752.038 196.749C752.021 196.767 752.003 196.784 751.985 196.794C751.769 197.019 751.584 197.277 751.449 197.556C751.111 198.245 751.041 199.066 751.31 199.859C751.579 200.653 752.149 201.265 752.843 201.615C753.534 201.961 754.353 202.049 755.145 201.79ZM683.919 193.784C682.18 196.39 681.493 198.847 681.63 201.043C681.79 203.674 683.138 205.969 685.25 207.708C687.242 209.346 689.662 210.117 692.027 210.032C694.397 209.951 696.727 209.014 698.541 207.244L763.817 143.551L763.813 143.548C765.666 141.739 766.656 139.366 766.76 136.942C766.864 134.518 766.082 132.044 764.391 130.02C762.69 127.986 760.438 126.678 757.851 126.508C755.687 126.36 753.263 126.995 750.68 128.622C751.362 130.384 751.648 132.279 751.415 134.224C751.335 134.893 750.73 135.357 750.063 135.269C749.392 135.177 748.918 134.564 748.994 133.898C749.326 131.119 748.301 128.438 746.476 126.256C744.993 124.481 742.989 123.037 740.75 122.125C738.512 121.213 736.038 120.84 733.618 121.196C730.513 121.657 727.467 123.335 725.069 126.675C724.778 127.078 724.518 127.479 724.28 127.873C724.206 127.995 724.135 128.121 724.06 128.25C725.982 129.844 727.843 131.821 729.564 134.209C729.965 134.762 729.846 135.525 729.304 135.913C728.759 136.304 727.993 136.172 727.596 135.623C725.791 133.128 723.838 131.12 721.835 129.57C721.796 129.545 721.757 129.512 721.722 129.483C718.071 126.691 714.269 125.404 710.898 125.387C708.853 125.376 706.981 125.838 705.417 126.717C703.881 127.582 702.634 128.855 701.823 130.491C700.067 134.028 700.306 139.256 703.852 145.718C704.056 146.083 704.072 146.539 703.851 146.922C703.521 147.505 702.775 147.698 702.19 147.354C695.813 143.647 690.586 143.28 687.01 144.946C685.355 145.717 684.048 146.929 683.149 148.447C682.233 149.988 681.725 151.85 681.686 153.893C681.621 157.264 682.818 161.1 685.516 164.815C685.544 164.851 685.573 164.886 685.597 164.926C687.097 166.966 689.057 168.967 691.508 170.834C692.05 171.247 692.16 172.013 691.756 172.548C691.351 173.083 690.588 173.18 690.046 172.766C687.705 170.984 685.773 169.075 684.223 167.118C684.092 167.19 683.965 167.258 683.841 167.329C683.445 167.554 683.034 167.807 682.624 168.088C679.198 170.425 677.376 173.455 676.789 176.576C676.335 178.982 676.602 181.445 677.424 183.691C678.245 185.936 679.619 187.953 681.375 189.469C683.54 191.34 686.286 192.425 689.274 192.191C689.945 192.134 690.544 192.634 690.605 193.306C690.673 193.979 690.184 194.569 689.513 194.618C687.545 194.764 685.654 194.456 683.919 193.784ZM679.197 201.158C679.404 204.518 681.081 207.42 683.718 209.583C686.193 211.616 689.201 212.572 692.157 212.468C695.109 212.367 698.004 211.202 700.258 209.003L765.534 145.303L765.537 145.307C767.84 143.059 769.072 140.105 769.203 137.085C769.334 134.064 768.36 130.975 766.261 128.463C764.134 125.915 761.284 124.284 757.976 124.063C755.389 123.893 752.544 124.593 749.579 126.409C749.214 125.816 748.796 125.245 748.339 124.699C746.602 122.622 744.257 120.927 741.63 119.866L741.627 119.862C739 118.794 736.089 118.355 733.217 118.779C729.505 119.327 725.889 121.306 723.079 125.217C722.767 125.648 722.468 126.108 722.181 126.586L722.085 126.75C718.306 124.16 714.395 122.952 710.871 122.935C708.403 122.922 706.117 123.493 704.196 124.572C702.243 125.669 700.663 127.288 699.635 129.361C697.871 132.905 697.734 137.768 700.135 143.567C694.393 141.022 689.531 141.044 685.945 142.72C683.848 143.697 682.19 145.238 681.046 147.163C679.917 149.061 679.294 151.329 679.246 153.796C679.177 157.319 680.29 161.259 682.786 165.1L682.62 165.192C682.132 165.464 681.668 165.755 681.229 166.056C677.233 168.78 675.102 172.366 674.404 176.074C673.864 178.923 674.182 181.836 675.151 184.48C676.119 187.124 677.738 189.506 679.808 191.294C680.406 191.807 681.037 192.276 681.703 192.682C679.785 195.658 679.037 198.535 679.197 201.158ZM719.444 231.358C716.426 233.198 713.535 233.88 710.916 233.655C707.563 233.366 704.703 231.619 702.604 228.93C700.633 226.406 699.75 223.375 699.927 220.423C700.1 217.475 701.335 214.608 703.588 212.409L768.854 148.713L768.85 148.709C771.153 146.462 774.137 145.302 777.16 145.245C780.182 145.188 783.246 146.238 785.706 148.397C788.202 150.586 789.763 153.475 789.903 156.787C790.01 159.378 789.241 162.204 787.352 165.124C787.937 165.504 788.497 165.936 789.032 166.406C791.066 168.193 792.703 170.579 793.699 173.231L793.703 173.234C794.707 175.886 795.074 178.807 794.58 181.668C793.942 185.366 791.878 188.935 787.9 191.649C787.461 191.951 786.994 192.238 786.509 192.514L786.343 192.606C788.84 196.447 789.952 200.386 789.883 203.909C789.835 206.377 789.209 208.648 788.083 210.543C786.939 212.468 785.282 214.008 783.184 214.985C779.598 216.662 774.733 216.68 768.994 214.138C771.399 219.941 771.258 224.801 769.494 228.345C768.467 230.417 766.886 232.037 764.933 233.133C763.009 234.216 760.726 234.783 758.258 234.77C754.735 234.753 750.824 233.545 747.044 230.955L746.948 231.119C746.664 231.601 746.362 232.057 746.05 232.489C743.229 236.417 739.593 238.46 735.869 239.067C733.008 239.537 730.103 239.148 727.484 238.115C724.864 237.082 722.522 235.405 720.786 233.293C720.287 232.682 719.837 232.037 719.444 231.358Z" fill="white"/>
<path d="M474 317.5H575.5V206.5L552.5 184.5C555.542 264.654 532.493 287.767 450 292.5L474 317.5Z" fill="black" fill-opacity="0.2"/>
<path d="M599 340H696C605.72 395.812 585.979 445.483 652 510.5C641.061 505.128 635.32 501.609 626.5 493.5C608.983 474.504 603.506 461.261 599 434.5V340Z" fill="black" fill-opacity="0.2"/>
</g>
<defs>
<clipPath id="clip0_25_5">
<rect width="3000" height="700" fill="white"/>
</clipPath>
</defs>
</svg>
